%TF.GenerationSoftware,KiCad,Pcbnew,9.0.7*%
%TF.CreationDate,2026-06-28T12:00:23+02:00*%
%TF.ProjectId,AstroWeather,41737472-6f57-4656-9174-6865722e6b69,rev?*%
%TF.SameCoordinates,Original*%
%TF.FileFunction,Paste,Top*%
%TF.FilePolarity,Positive*%
%FSLAX46Y46*%
G04 Gerber Fmt 4.6, Leading zero omitted, Abs format (unit mm)*
G04 Created by KiCad (PCBNEW 9.0.7) date 2026-06-28 12:00:23*
%MOMM*%
%LPD*%
G01*
G04 APERTURE LIST*
G04 Aperture macros list*
%AMRoundRect*
0 Rectangle with rounded corners*
0 $1 Rounding radius*
0 $2 $3 $4 $5 $6 $7 $8 $9 X,Y pos of 4 corners*
0 Add a 4 corners polygon primitive as box body*
4,1,4,$2,$3,$4,$5,$6,$7,$8,$9,$2,$3,0*
0 Add four circle primitives for the rounded corners*
1,1,$1+$1,$2,$3*
1,1,$1+$1,$4,$5*
1,1,$1+$1,$6,$7*
1,1,$1+$1,$8,$9*
0 Add four rect primitives between the rounded corners*
20,1,$1+$1,$2,$3,$4,$5,0*
20,1,$1+$1,$4,$5,$6,$7,0*
20,1,$1+$1,$6,$7,$8,$9,0*
20,1,$1+$1,$8,$9,$2,$3,0*%
G04 Aperture macros list end*
%ADD10RoundRect,0.075000X-0.662500X0.075000X-0.662500X-0.075000X0.662500X-0.075000X0.662500X0.075000X0*%
%ADD11RoundRect,0.075000X-0.075000X0.662500X-0.075000X-0.662500X0.075000X-0.662500X0.075000X0.662500X0*%
%ADD12RoundRect,0.112500X0.187500X0.112500X-0.187500X0.112500X-0.187500X-0.112500X0.187500X-0.112500X0*%
%ADD13RoundRect,0.112500X0.112500X-0.187500X0.112500X0.187500X-0.112500X0.187500X-0.112500X-0.187500X0*%
%ADD14RoundRect,0.250000X-0.250000X-0.475000X0.250000X-0.475000X0.250000X0.475000X-0.250000X0.475000X0*%
%ADD15RoundRect,0.250000X-0.475000X0.250000X-0.475000X-0.250000X0.475000X-0.250000X0.475000X0.250000X0*%
%ADD16R,0.125000X0.125000*%
%ADD17R,0.847000X0.847000*%
%ADD18RoundRect,0.250000X0.475000X-0.250000X0.475000X0.250000X-0.475000X0.250000X-0.475000X-0.250000X0*%
%ADD19RoundRect,0.150000X-0.150000X-0.425000X0.150000X-0.425000X0.150000X0.425000X-0.150000X0.425000X0*%
%ADD20RoundRect,0.075000X-0.075000X-0.500000X0.075000X-0.500000X0.075000X0.500000X-0.075000X0.500000X0*%
%ADD21RoundRect,0.156250X-0.618750X-0.468750X0.618750X-0.468750X0.618750X0.468750X-0.618750X0.468750X0*%
%ADD22RoundRect,0.187500X-0.587500X-0.562500X0.587500X-0.562500X0.587500X0.562500X-0.587500X0.562500X0*%
%ADD23RoundRect,0.250000X0.250000X0.475000X-0.250000X0.475000X-0.250000X-0.475000X0.250000X-0.475000X0*%
%ADD24RoundRect,0.250000X-0.450000X0.262500X-0.450000X-0.262500X0.450000X-0.262500X0.450000X0.262500X0*%
%ADD25RoundRect,0.250000X0.262500X0.450000X-0.262500X0.450000X-0.262500X-0.450000X0.262500X-0.450000X0*%
%ADD26RoundRect,0.243750X-0.456250X0.243750X-0.456250X-0.243750X0.456250X-0.243750X0.456250X0.243750X0*%
%ADD27RoundRect,0.250000X0.650000X-0.325000X0.650000X0.325000X-0.650000X0.325000X-0.650000X-0.325000X0*%
%ADD28RoundRect,0.250000X-0.262500X-0.450000X0.262500X-0.450000X0.262500X0.450000X-0.262500X0.450000X0*%
%ADD29RoundRect,0.250000X0.450000X-0.262500X0.450000X0.262500X-0.450000X0.262500X-0.450000X-0.262500X0*%
%ADD30RoundRect,0.225000X0.225000X0.250000X-0.225000X0.250000X-0.225000X-0.250000X0.225000X-0.250000X0*%
%ADD31R,2.950000X3.500000*%
%ADD32RoundRect,0.250000X0.650000X0.350000X-0.650000X0.350000X-0.650000X-0.350000X0.650000X-0.350000X0*%
%ADD33R,1.250000X1.000000*%
%ADD34RoundRect,0.225000X-0.225000X-0.250000X0.225000X-0.250000X0.225000X0.250000X-0.225000X0.250000X0*%
%ADD35RoundRect,0.375000X0.375000X-0.625000X0.375000X0.625000X-0.375000X0.625000X-0.375000X-0.625000X0*%
%ADD36RoundRect,0.500000X1.400000X-0.500000X1.400000X0.500000X-1.400000X0.500000X-1.400000X-0.500000X0*%
%ADD37RoundRect,0.150000X0.150000X-0.512500X0.150000X0.512500X-0.150000X0.512500X-0.150000X-0.512500X0*%
%ADD38RoundRect,0.150000X-0.150000X0.587500X-0.150000X-0.587500X0.150000X-0.587500X0.150000X0.587500X0*%
G04 APERTURE END LIST*
D10*
%TO.C,U302*%
X50662500Y-66250000D03*
X50662500Y-66750000D03*
X50662500Y-67250000D03*
X50662500Y-67750000D03*
X50662500Y-68250000D03*
X50662500Y-68750000D03*
X50662500Y-69250000D03*
X50662500Y-69750000D03*
X50662500Y-70250000D03*
X50662500Y-70750000D03*
X50662500Y-71250000D03*
X50662500Y-71750000D03*
D11*
X49250000Y-73162500D03*
X48750000Y-73162500D03*
X48250000Y-73162500D03*
X47750000Y-73162500D03*
X47250000Y-73162500D03*
X46750000Y-73162500D03*
X46250000Y-73162500D03*
X45750000Y-73162500D03*
X45250000Y-73162500D03*
X44750000Y-73162500D03*
X44250000Y-73162500D03*
X43750000Y-73162500D03*
D10*
X42337500Y-71750000D03*
X42337500Y-71250000D03*
X42337500Y-70750000D03*
X42337500Y-70250000D03*
X42337500Y-69750000D03*
X42337500Y-69250000D03*
X42337500Y-68750000D03*
X42337500Y-68250000D03*
X42337500Y-67750000D03*
X42337500Y-67250000D03*
X42337500Y-66750000D03*
X42337500Y-66250000D03*
D11*
X43750000Y-64837500D03*
X44250000Y-64837500D03*
X44750000Y-64837500D03*
X45250000Y-64837500D03*
X45750000Y-64837500D03*
X46250000Y-64837500D03*
X46750000Y-64837500D03*
X47250000Y-64837500D03*
X47750000Y-64837500D03*
X48250000Y-64837500D03*
X48750000Y-64837500D03*
X49250000Y-64837500D03*
%TD*%
D12*
%TO.C,D102*%
X102050000Y-70150000D03*
X99950000Y-70150000D03*
%TD*%
D13*
%TO.C,D101*%
X93000000Y-73050000D03*
X93000000Y-70950000D03*
%TD*%
D14*
%TO.C,C204*%
X30050000Y-56200000D03*
X31950000Y-56200000D03*
%TD*%
D15*
%TO.C,C303*%
X45200000Y-59850000D03*
X45200000Y-61750000D03*
%TD*%
D16*
%TO.C,U201*%
X26487500Y-63154000D03*
D17*
X22730000Y-70433000D03*
X24000000Y-70433000D03*
X25270000Y-70433000D03*
X26540000Y-70433000D03*
X27810000Y-70433000D03*
X29080000Y-70433000D03*
X30350000Y-70433000D03*
X31620000Y-70433000D03*
X32891500Y-69161500D03*
X32891500Y-67891500D03*
X32891500Y-66621500D03*
X32891500Y-65351500D03*
X32891500Y-64081500D03*
X32891500Y-62811500D03*
X32891500Y-61541500D03*
X32891500Y-60271500D03*
X31620000Y-59000000D03*
X30350000Y-59000000D03*
X29080000Y-59000000D03*
X27810000Y-59000000D03*
X26540000Y-59000000D03*
X25270000Y-59000000D03*
X24000000Y-59000000D03*
X22730000Y-59000000D03*
X21458500Y-60271500D03*
X21458500Y-61541500D03*
X21458500Y-62811500D03*
X21458500Y-64081500D03*
X21458500Y-65351500D03*
X21458500Y-66621500D03*
X21458500Y-67891500D03*
X21458500Y-69161500D03*
%TD*%
D18*
%TO.C,C203*%
X35500000Y-69450000D03*
X35500000Y-67550000D03*
%TD*%
%TO.C,C607*%
X172200000Y-55100000D03*
X172200000Y-53200000D03*
%TD*%
D19*
%TO.C,J106*%
X96950000Y-72350000D03*
X97750000Y-72350000D03*
D20*
X98900000Y-72350000D03*
X99900000Y-72350000D03*
X100400000Y-72350000D03*
X101400000Y-72350000D03*
D19*
X102550000Y-72350000D03*
X103350000Y-72350000D03*
X103350000Y-72350000D03*
X102550000Y-72350000D03*
D20*
X101900000Y-72350000D03*
X100900000Y-72350000D03*
X99400000Y-72350000D03*
X98400000Y-72350000D03*
D19*
X97750000Y-72350000D03*
X96950000Y-72350000D03*
D21*
X95055000Y-73000000D03*
D22*
X95055000Y-76925000D03*
D21*
X105245000Y-73000000D03*
D22*
X105245000Y-76925000D03*
%TD*%
D23*
%TO.C,C201*%
X23200000Y-56800000D03*
X21300000Y-56800000D03*
%TD*%
%TO.C,C601*%
X167750000Y-64185000D03*
X165850000Y-64185000D03*
%TD*%
D14*
%TO.C,C602*%
X169565000Y-70550000D03*
X171465000Y-70550000D03*
%TD*%
D24*
%TO.C,R705*%
X55750000Y-56675000D03*
X55750000Y-58500000D03*
%TD*%
D25*
%TO.C,R602*%
X163112500Y-63600000D03*
X161287500Y-63600000D03*
%TD*%
D18*
%TO.C,C606*%
X163000000Y-55050000D03*
X163000000Y-53150000D03*
%TD*%
D26*
%TO.C,D302*%
X57000000Y-50200000D03*
X57000000Y-52075000D03*
%TD*%
D18*
%TO.C,C608*%
X162200000Y-67550000D03*
X162200000Y-65650000D03*
%TD*%
D27*
%TO.C,C605*%
X165115000Y-70612500D03*
X165115000Y-67662500D03*
%TD*%
D14*
%TO.C,C302*%
X47500000Y-60500000D03*
X49400000Y-60500000D03*
%TD*%
D28*
%TO.C,R702*%
X54587500Y-60250000D03*
X56412500Y-60250000D03*
%TD*%
D29*
%TO.C,R704*%
X58250000Y-60412500D03*
X58250000Y-58587500D03*
%TD*%
D30*
%TO.C,C305*%
X36375000Y-57000000D03*
X34825000Y-57000000D03*
%TD*%
D27*
%TO.C,C604*%
X167515000Y-70612500D03*
X167515000Y-67662500D03*
%TD*%
D31*
%TO.C,L601*%
X170725000Y-75200000D03*
X165275000Y-75200000D03*
%TD*%
D32*
%TO.C,Y301*%
X45200000Y-55800000D03*
X41200000Y-55800000D03*
X41200000Y-58200000D03*
X45200000Y-58200000D03*
%TD*%
D33*
%TO.C,SW301*%
X31250000Y-76275000D03*
X39000000Y-76275000D03*
%TD*%
D29*
%TO.C,R601*%
X160200000Y-67512500D03*
X160200000Y-65687500D03*
%TD*%
D34*
%TO.C,C301*%
X47425000Y-62250000D03*
X48975000Y-62250000D03*
%TD*%
D25*
%TO.C,R311*%
X60912500Y-50200000D03*
X59087500Y-50200000D03*
%TD*%
D26*
%TO.C,D301*%
X54400000Y-50200000D03*
X54400000Y-52075000D03*
%TD*%
D15*
%TO.C,C202*%
X35500000Y-60050000D03*
X35500000Y-61950000D03*
%TD*%
D24*
%TO.C,R701*%
X52500000Y-60337500D03*
X52500000Y-62162500D03*
%TD*%
D35*
%TO.C,U602*%
X165300000Y-56950000D03*
X167600000Y-56950000D03*
D36*
X167600000Y-50650000D03*
D35*
X169900000Y-56950000D03*
%TD*%
D37*
%TO.C,U601*%
X169440000Y-65675000D03*
X170390000Y-65675000D03*
X171340000Y-65675000D03*
X171340000Y-63400000D03*
X170390000Y-63400000D03*
X169440000Y-63400000D03*
%TD*%
D30*
%TO.C,C603*%
X171400000Y-68800000D03*
X169850000Y-68800000D03*
%TD*%
D15*
%TO.C,C304*%
X39000000Y-57950000D03*
X39000000Y-56050000D03*
%TD*%
D38*
%TO.C,Q701*%
X59450000Y-54800000D03*
X57550000Y-54800000D03*
X58500000Y-56675000D03*
%TD*%
D33*
%TO.C,SW302*%
X48500000Y-76275000D03*
X40750000Y-76275000D03*
%TD*%
D28*
%TO.C,R201*%
X30087500Y-54250000D03*
X31912500Y-54250000D03*
%TD*%
D24*
%TO.C,R502*%
X60100000Y-66187500D03*
X60100000Y-68012500D03*
%TD*%
D18*
%TO.C,C504*%
X62800000Y-63050000D03*
X62800000Y-64950000D03*
%TD*%
D25*
%TO.C,R303*%
X42600000Y-60400000D03*
X40775000Y-60400000D03*
%TD*%
M02*
