%TF.GenerationSoftware,KiCad,Pcbnew,9.0.7*%
%TF.CreationDate,2026-06-28T12:00:23+02:00*%
%TF.ProjectId,AstroWeather,41737472-6f57-4656-9174-6865722e6b69,rev?*%
%TF.SameCoordinates,Original*%
%TF.FileFunction,Copper,L1,Top*%
%TF.FilePolarity,Positive*%
%FSLAX46Y46*%
G04 Gerber Fmt 4.6, Leading zero omitted, Abs format (unit mm)*
G04 Created by KiCad (PCBNEW 9.0.7) date 2026-06-28 12:00:23*
%MOMM*%
%LPD*%
G01*
G04 APERTURE LIST*
G04 Aperture macros list*
%AMRoundRect*
0 Rectangle with rounded corners*
0 $1 Rounding radius*
0 $2 $3 $4 $5 $6 $7 $8 $9 X,Y pos of 4 corners*
0 Add a 4 corners polygon primitive as box body*
4,1,4,$2,$3,$4,$5,$6,$7,$8,$9,$2,$3,0*
0 Add four circle primitives for the rounded corners*
1,1,$1+$1,$2,$3*
1,1,$1+$1,$4,$5*
1,1,$1+$1,$6,$7*
1,1,$1+$1,$8,$9*
0 Add four rect primitives between the rounded corners*
20,1,$1+$1,$2,$3,$4,$5,0*
20,1,$1+$1,$4,$5,$6,$7,0*
20,1,$1+$1,$6,$7,$8,$9,0*
20,1,$1+$1,$8,$9,$2,$3,0*%
%AMOutline5P*
0 Free polygon, 5 corners , with rotation*
0 The origin of the aperture is its center*
0 number of corners: always 5*
0 $1 to $10 corner X, Y*
0 $11 Rotation angle, in degrees counterclockwise*
0 create outline with 5 corners*
4,1,5,$1,$2,$3,$4,$5,$6,$7,$8,$9,$10,$1,$2,$11*%
%AMOutline6P*
0 Free polygon, 6 corners , with rotation*
0 The origin of the aperture is its center*
0 number of corners: always 6*
0 $1 to $12 corner X, Y*
0 $13 Rotation angle, in degrees counterclockwise*
0 create outline with 6 corners*
4,1,6,$1,$2,$3,$4,$5,$6,$7,$8,$9,$10,$11,$12,$1,$2,$13*%
%AMOutline7P*
0 Free polygon, 7 corners , with rotation*
0 The origin of the aperture is its center*
0 number of corners: always 7*
0 $1 to $14 corner X, Y*
0 $15 Rotation angle, in degrees counterclockwise*
0 create outline with 7 corners*
4,1,7,$1,$2,$3,$4,$5,$6,$7,$8,$9,$10,$11,$12,$13,$14,$1,$2,$15*%
%AMOutline8P*
0 Free polygon, 8 corners , with rotation*
0 The origin of the aperture is its center*
0 number of corners: always 8*
0 $1 to $16 corner X, Y*
0 $17 Rotation angle, in degrees counterclockwise*
0 create outline with 8 corners*
4,1,8,$1,$2,$3,$4,$5,$6,$7,$8,$9,$10,$11,$12,$13,$14,$15,$16,$1,$2,$17*%
%AMFreePoly0*
4,1,23,0.550000,-0.750000,0.000000,-0.750000,0.000000,-0.745722,-0.065263,-0.745722,-0.191342,-0.711940,-0.304381,-0.646677,-0.396677,-0.554381,-0.461940,-0.441342,-0.495722,-0.315263,-0.495722,-0.250000,-0.500000,-0.250000,-0.500000,0.250000,-0.495722,0.250000,-0.495722,0.315263,-0.461940,0.441342,-0.396677,0.554381,-0.304381,0.646677,-0.191342,0.711940,-0.065263,0.745722,0.000000,0.745722,
0.000000,0.750000,0.550000,0.750000,0.550000,-0.750000,0.550000,-0.750000,$1*%
%AMFreePoly1*
4,1,23,0.000000,0.745722,0.065263,0.745722,0.191342,0.711940,0.304381,0.646677,0.396677,0.554381,0.461940,0.441342,0.495722,0.315263,0.495722,0.250000,0.500000,0.250000,0.500000,-0.250000,0.495722,-0.250000,0.495722,-0.315263,0.461940,-0.441342,0.396677,-0.554381,0.304381,-0.646677,0.191342,-0.711940,0.065263,-0.745722,0.000000,-0.745722,0.000000,-0.750000,-0.550000,-0.750000,
-0.550000,0.750000,0.000000,0.750000,0.000000,0.745722,0.000000,0.745722,$1*%
G04 Aperture macros list end*
%TA.AperFunction,ComponentPad*%
%ADD10R,1.500000X1.500000*%
%TD*%
%TA.AperFunction,ComponentPad*%
%ADD11C,1.500000*%
%TD*%
%TA.AperFunction,SMDPad,CuDef*%
%ADD12RoundRect,0.075000X-0.662500X0.075000X-0.662500X-0.075000X0.662500X-0.075000X0.662500X0.075000X0*%
%TD*%
%TA.AperFunction,SMDPad,CuDef*%
%ADD13RoundRect,0.075000X-0.075000X0.662500X-0.075000X-0.662500X0.075000X-0.662500X0.075000X0.662500X0*%
%TD*%
%TA.AperFunction,SMDPad,CuDef*%
%ADD14RoundRect,0.112500X0.187500X0.112500X-0.187500X0.112500X-0.187500X-0.112500X0.187500X-0.112500X0*%
%TD*%
%TA.AperFunction,SMDPad,CuDef*%
%ADD15RoundRect,0.112500X0.112500X-0.187500X0.112500X0.187500X-0.112500X0.187500X-0.112500X-0.187500X0*%
%TD*%
%TA.AperFunction,SMDPad,CuDef*%
%ADD16RoundRect,0.250000X-0.250000X-0.475000X0.250000X-0.475000X0.250000X0.475000X-0.250000X0.475000X0*%
%TD*%
%TA.AperFunction,ComponentPad*%
%ADD17R,1.700000X1.700000*%
%TD*%
%TA.AperFunction,ComponentPad*%
%ADD18C,1.700000*%
%TD*%
%TA.AperFunction,SMDPad,CuDef*%
%ADD19RoundRect,0.250000X-0.475000X0.250000X-0.475000X-0.250000X0.475000X-0.250000X0.475000X0.250000X0*%
%TD*%
%TA.AperFunction,SMDPad,CuDef*%
%ADD20R,0.847000X0.847000*%
%TD*%
%TA.AperFunction,HeatsinkPad*%
%ADD21C,1.000000*%
%TD*%
%TA.AperFunction,SMDPad,CuDef*%
%ADD22Outline5P,-1.500000X0.900000X-0.900000X1.500000X1.500000X1.500000X1.500000X-1.500000X-1.500000X-1.500000X90.000000*%
%TD*%
%TA.AperFunction,SMDPad,CuDef*%
%ADD23R,3.000000X3.000000*%
%TD*%
%TA.AperFunction,SMDPad,CuDef*%
%ADD24RoundRect,0.250000X0.475000X-0.250000X0.475000X0.250000X-0.475000X0.250000X-0.475000X-0.250000X0*%
%TD*%
%TA.AperFunction,SMDPad,CuDef*%
%ADD25RoundRect,0.150000X-0.150000X-0.425000X0.150000X-0.425000X0.150000X0.425000X-0.150000X0.425000X0*%
%TD*%
%TA.AperFunction,SMDPad,CuDef*%
%ADD26RoundRect,0.075000X-0.075000X-0.500000X0.075000X-0.500000X0.075000X0.500000X-0.075000X0.500000X0*%
%TD*%
%TA.AperFunction,SMDPad,CuDef*%
%ADD27RoundRect,0.156250X-0.618750X-0.468750X0.618750X-0.468750X0.618750X0.468750X-0.618750X0.468750X0*%
%TD*%
%TA.AperFunction,SMDPad,CuDef*%
%ADD28RoundRect,0.187500X-0.587500X-0.562500X0.587500X-0.562500X0.587500X0.562500X-0.587500X0.562500X0*%
%TD*%
%TA.AperFunction,SMDPad,CuDef*%
%ADD29FreePoly0,270.000000*%
%TD*%
%TA.AperFunction,SMDPad,CuDef*%
%ADD30R,1.500000X1.000000*%
%TD*%
%TA.AperFunction,SMDPad,CuDef*%
%ADD31FreePoly1,270.000000*%
%TD*%
%TA.AperFunction,SMDPad,CuDef*%
%ADD32RoundRect,0.250000X0.250000X0.475000X-0.250000X0.475000X-0.250000X-0.475000X0.250000X-0.475000X0*%
%TD*%
%TA.AperFunction,SMDPad,CuDef*%
%ADD33RoundRect,0.250000X-0.450000X0.262500X-0.450000X-0.262500X0.450000X-0.262500X0.450000X0.262500X0*%
%TD*%
%TA.AperFunction,ComponentPad*%
%ADD34C,1.600000*%
%TD*%
%TA.AperFunction,ComponentPad*%
%ADD35RoundRect,0.250000X0.350000X0.625000X-0.350000X0.625000X-0.350000X-0.625000X0.350000X-0.625000X0*%
%TD*%
%TA.AperFunction,ComponentPad*%
%ADD36O,1.200000X1.750000*%
%TD*%
%TA.AperFunction,SMDPad,CuDef*%
%ADD37RoundRect,0.250000X0.262500X0.450000X-0.262500X0.450000X-0.262500X-0.450000X0.262500X-0.450000X0*%
%TD*%
%TA.AperFunction,SMDPad,CuDef*%
%ADD38RoundRect,0.243750X-0.456250X0.243750X-0.456250X-0.243750X0.456250X-0.243750X0.456250X0.243750X0*%
%TD*%
%TA.AperFunction,SMDPad,CuDef*%
%ADD39C,1.500000*%
%TD*%
%TA.AperFunction,SMDPad,CuDef*%
%ADD40RoundRect,0.250000X0.650000X-0.325000X0.650000X0.325000X-0.650000X0.325000X-0.650000X-0.325000X0*%
%TD*%
%TA.AperFunction,SMDPad,CuDef*%
%ADD41RoundRect,0.250000X-0.262500X-0.450000X0.262500X-0.450000X0.262500X0.450000X-0.262500X0.450000X0*%
%TD*%
%TA.AperFunction,SMDPad,CuDef*%
%ADD42RoundRect,0.250000X0.450000X-0.262500X0.450000X0.262500X-0.450000X0.262500X-0.450000X-0.262500X0*%
%TD*%
%TA.AperFunction,SMDPad,CuDef*%
%ADD43RoundRect,0.225000X0.225000X0.250000X-0.225000X0.250000X-0.225000X-0.250000X0.225000X-0.250000X0*%
%TD*%
%TA.AperFunction,SMDPad,CuDef*%
%ADD44R,2.950000X3.500000*%
%TD*%
%TA.AperFunction,SMDPad,CuDef*%
%ADD45RoundRect,0.250000X0.650000X0.350000X-0.650000X0.350000X-0.650000X-0.350000X0.650000X-0.350000X0*%
%TD*%
%TA.AperFunction,SMDPad,CuDef*%
%ADD46R,1.250000X1.000000*%
%TD*%
%TA.AperFunction,SMDPad,CuDef*%
%ADD47RoundRect,0.225000X-0.225000X-0.250000X0.225000X-0.250000X0.225000X0.250000X-0.225000X0.250000X0*%
%TD*%
%TA.AperFunction,SMDPad,CuDef*%
%ADD48RoundRect,0.375000X0.375000X-0.625000X0.375000X0.625000X-0.375000X0.625000X-0.375000X-0.625000X0*%
%TD*%
%TA.AperFunction,SMDPad,CuDef*%
%ADD49RoundRect,0.500000X1.400000X-0.500000X1.400000X0.500000X-1.400000X0.500000X-1.400000X-0.500000X0*%
%TD*%
%TA.AperFunction,SMDPad,CuDef*%
%ADD50RoundRect,0.150000X0.150000X-0.512500X0.150000X0.512500X-0.150000X0.512500X-0.150000X-0.512500X0*%
%TD*%
%TA.AperFunction,SMDPad,CuDef*%
%ADD51RoundRect,0.150000X-0.150000X0.587500X-0.150000X-0.587500X0.150000X-0.587500X0.150000X0.587500X0*%
%TD*%
%TA.AperFunction,ViaPad*%
%ADD52C,0.700000*%
%TD*%
%TA.AperFunction,ViaPad*%
%ADD53C,0.800000*%
%TD*%
%TA.AperFunction,ViaPad*%
%ADD54C,0.900000*%
%TD*%
%TA.AperFunction,ViaPad*%
%ADD55C,1.400000*%
%TD*%
%TA.AperFunction,Conductor*%
%ADD56C,0.500000*%
%TD*%
%TA.AperFunction,Conductor*%
%ADD57C,1.000000*%
%TD*%
%TA.AperFunction,Conductor*%
%ADD58C,0.300000*%
%TD*%
%TA.AperFunction,Conductor*%
%ADD59C,0.250000*%
%TD*%
%TA.AperFunction,Conductor*%
%ADD60C,0.200000*%
%TD*%
G04 APERTURE END LIST*
D10*
%TO.P,U508,1,COL1*%
%TO.N,/Display/VDD_DIG1*%
X125810000Y-67810000D03*
D11*
%TO.P,U508,2,ROW3*%
%TO.N,/Display/DIS3_10*%
X128350000Y-67810000D03*
%TO.P,U508,3,COL2*%
%TO.N,/Display/VDD_DIG2*%
X130890000Y-67810000D03*
%TO.P,U508,4,ROW5*%
%TO.N,/Display/DIS3_12*%
X133430000Y-67810000D03*
%TO.P,U508,5,ROW6*%
%TO.N,/Display/DIS3_13*%
X135970000Y-67810000D03*
%TO.P,U508,6,ROW7*%
%TO.N,/Display/DIS3_14*%
X138510000Y-67810000D03*
%TO.P,U508,7,COL4*%
%TO.N,/Display/VDD_DIG4*%
X138510000Y-60190000D03*
%TO.P,U508,8,COL5*%
%TO.N,/Display/VDD_DIG5*%
X135970000Y-60190000D03*
%TO.P,U508,9,ROW4*%
%TO.N,/Display/DIS3_11*%
X133430000Y-60190000D03*
%TO.P,U508,10,COL3*%
%TO.N,/Display/VDD_DIG3*%
X130890000Y-60190000D03*
%TO.P,U508,11,ROW2*%
%TO.N,/Display/DIS3_9*%
X128350000Y-60190000D03*
%TO.P,U508,12,ROW1*%
%TO.N,/Display/DIS3_8*%
X125810000Y-60190000D03*
%TD*%
D10*
%TO.P,U509,1,COL1*%
%TO.N,/Display/VDD_DIG1*%
X143590000Y-67810000D03*
D11*
%TO.P,U509,2,ROW3*%
%TO.N,/Display/DIS3_17*%
X146130000Y-67810000D03*
%TO.P,U509,3,COL2*%
%TO.N,/Display/VDD_DIG2*%
X148670000Y-67810000D03*
%TO.P,U509,4,ROW5*%
%TO.N,/Display/DIS3_19*%
X151210000Y-67810000D03*
%TO.P,U509,5,ROW6*%
%TO.N,/Display/DIS3_20*%
X153750000Y-67810000D03*
%TO.P,U509,6,ROW7*%
%TO.N,/Display/DIS3_21*%
X156290000Y-67810000D03*
%TO.P,U509,7,COL4*%
%TO.N,/Display/VDD_DIG4*%
X156290000Y-60190000D03*
%TO.P,U509,8,COL5*%
%TO.N,/Display/VDD_DIG5*%
X153750000Y-60190000D03*
%TO.P,U509,9,ROW4*%
%TO.N,/Display/DIS3_18*%
X151210000Y-60190000D03*
%TO.P,U509,10,COL3*%
%TO.N,/Display/VDD_DIG3*%
X148670000Y-60190000D03*
%TO.P,U509,11,ROW2*%
%TO.N,/Display/DIS3_16*%
X146130000Y-60190000D03*
%TO.P,U509,12,ROW1*%
%TO.N,/Display/DIS3_15*%
X143590000Y-60190000D03*
%TD*%
D10*
%TO.P,U506,1,COL1*%
%TO.N,/Display/VDD_DIG1*%
X107980000Y-67810000D03*
D11*
%TO.P,U506,2,ROW3*%
%TO.N,/Display/DIS3_3*%
X110520000Y-67810000D03*
%TO.P,U506,3,COL2*%
%TO.N,/Display/VDD_DIG2*%
X113060000Y-67810000D03*
%TO.P,U506,4,ROW5*%
%TO.N,/Display/DIS3_5*%
X115600000Y-67810000D03*
%TO.P,U506,5,ROW6*%
%TO.N,/Display/DIS3_6*%
X118140000Y-67810000D03*
%TO.P,U506,6,ROW7*%
%TO.N,/Display/DIS3_7*%
X120680000Y-67810000D03*
%TO.P,U506,7,COL4*%
%TO.N,/Display/VDD_DIG4*%
X120680000Y-60190000D03*
%TO.P,U506,8,COL5*%
%TO.N,/Display/VDD_DIG5*%
X118140000Y-60190000D03*
%TO.P,U506,9,ROW4*%
%TO.N,/Display/DIS3_4*%
X115600000Y-60190000D03*
%TO.P,U506,10,COL3*%
%TO.N,/Display/VDD_DIG3*%
X113060000Y-60190000D03*
%TO.P,U506,11,ROW2*%
%TO.N,/Display/DIS3_2*%
X110520000Y-60190000D03*
%TO.P,U506,12,ROW1*%
%TO.N,/Display/DIS3_1*%
X107980000Y-60190000D03*
%TD*%
D10*
%TO.P,U514,1,Dig1*%
%TO.N,/Display/VDD_DIG1*%
X180980000Y-74810000D03*
D11*
%TO.P,U514,2,C*%
%TO.N,/Display/DIS5_C*%
X183520000Y-74810000D03*
%TO.P,U514,3,DP*%
%TO.N,/Display/DIS5_DP*%
X186060000Y-74810000D03*
%TO.P,U514,4*%
%TO.N,N/C*%
X188600000Y-74810000D03*
%TO.P,U514,5,E*%
%TO.N,/Display/DIS5_E*%
X191140000Y-74810000D03*
%TO.P,U514,6,D*%
%TO.N,/Display/DIS5_D*%
X193680000Y-74810000D03*
%TO.P,U514,7,G*%
%TO.N,/Display/DIS5_G*%
X196220000Y-74810000D03*
%TO.P,U514,8,Dig4*%
%TO.N,/Display/VDD_DIG4*%
X198760000Y-74810000D03*
%TO.P,U514,9*%
%TO.N,N/C*%
X198760000Y-67190000D03*
%TO.P,U514,11,Dig3*%
%TO.N,/Display/VDD_DIG3*%
X193680000Y-67190000D03*
%TO.P,U514,12,L*%
%TO.N,/Display/VDD_DIG5*%
X191140000Y-67190000D03*
%TO.P,U514,13,A*%
%TO.N,/Display/DIS5_A*%
X188600000Y-67190000D03*
%TO.P,U514,14,Dig2*%
%TO.N,/Display/VDD_DIG2*%
X186060000Y-67190000D03*
%TO.P,U514,15,B*%
%TO.N,/Display/DIS5_B*%
X183520000Y-67190000D03*
%TO.P,U514,16,F*%
%TO.N,/Display/DIS5_F*%
X180980000Y-67190000D03*
%TD*%
D10*
%TO.P,U502,1,Dig1*%
%TO.N,/Display/VDD_DIG1*%
X68800000Y-60810000D03*
D11*
%TO.P,U502,2,C*%
%TO.N,/Display/DIS1_C*%
X71340000Y-60810000D03*
%TO.P,U502,3,DP*%
%TO.N,/Display/DIS1_DP*%
X73880000Y-60810000D03*
%TO.P,U502,4*%
%TO.N,N/C*%
X76420000Y-60810000D03*
%TO.P,U502,5,E*%
%TO.N,/Display/DIS1_E*%
X78960000Y-60810000D03*
%TO.P,U502,6,D*%
%TO.N,/Display/DIS1_D*%
X81500000Y-60810000D03*
%TO.P,U502,7,G*%
%TO.N,/Display/DIS1_G*%
X84040000Y-60810000D03*
%TO.P,U502,8,Dig4*%
%TO.N,/Display/VDD_DIG4*%
X86580000Y-60810000D03*
%TO.P,U502,9*%
%TO.N,N/C*%
X86580000Y-53190000D03*
%TO.P,U502,11,Dig3*%
%TO.N,/Display/VDD_DIG3*%
X81500000Y-53190000D03*
%TO.P,U502,12,L*%
%TO.N,/Display/VDD_DIG5*%
X78960000Y-53190000D03*
%TO.P,U502,13,A*%
%TO.N,/Display/DIS1_A*%
X76420000Y-53190000D03*
%TO.P,U502,14,Dig2*%
%TO.N,/Display/VDD_DIG2*%
X73880000Y-53190000D03*
%TO.P,U502,15,B*%
%TO.N,/Display/DIS1_B*%
X71340000Y-53190000D03*
%TO.P,U502,16,F*%
%TO.N,/Display/DIS1_F*%
X68800000Y-53190000D03*
%TD*%
D10*
%TO.P,U512,1,Dig1*%
%TO.N,/Display/VDD_DIG1*%
X180980000Y-60810000D03*
D11*
%TO.P,U512,2,C*%
%TO.N,/Display/DIS4_C*%
X183520000Y-60810000D03*
%TO.P,U512,3,DP*%
%TO.N,/Display/DIS4_DP*%
X186060000Y-60810000D03*
%TO.P,U512,4*%
%TO.N,N/C*%
X188600000Y-60810000D03*
%TO.P,U512,5,E*%
%TO.N,/Display/DIS4_E*%
X191140000Y-60810000D03*
%TO.P,U512,6,D*%
%TO.N,/Display/DIS4_D*%
X193680000Y-60810000D03*
%TO.P,U512,7,G*%
%TO.N,/Display/DIS4_G*%
X196220000Y-60810000D03*
%TO.P,U512,8,Dig4*%
%TO.N,/Display/VDD_DIG4*%
X198760000Y-60810000D03*
%TO.P,U512,9*%
%TO.N,N/C*%
X198760000Y-53190000D03*
%TO.P,U512,11,Dig3*%
%TO.N,/Display/VDD_DIG3*%
X193680000Y-53190000D03*
%TO.P,U512,12,L*%
%TO.N,/Display/VDD_DIG5*%
X191140000Y-53190000D03*
%TO.P,U512,13,A*%
%TO.N,/Display/DIS4_A*%
X188600000Y-53190000D03*
%TO.P,U512,14,Dig2*%
%TO.N,/Display/VDD_DIG2*%
X186060000Y-53190000D03*
%TO.P,U512,15,B*%
%TO.N,/Display/DIS4_B*%
X183520000Y-53190000D03*
%TO.P,U512,16,F*%
%TO.N,/Display/DIS4_F*%
X180980000Y-53190000D03*
%TD*%
D10*
%TO.P,U504,1,Dig1*%
%TO.N,/Display/VDD_DIG1*%
X68840000Y-74810000D03*
D11*
%TO.P,U504,2,C*%
%TO.N,/Display/DIS2_C*%
X71380000Y-74810000D03*
%TO.P,U504,3,DP*%
%TO.N,/Display/DIS2_DP*%
X73920000Y-74810000D03*
%TO.P,U504,4*%
%TO.N,N/C*%
X76460000Y-74810000D03*
%TO.P,U504,5,E*%
%TO.N,/Display/DIS2_E*%
X79000000Y-74810000D03*
%TO.P,U504,6,D*%
%TO.N,/Display/DIS2_D*%
X81540000Y-74810000D03*
%TO.P,U504,7,G*%
%TO.N,/Display/DIS2_G*%
X84080000Y-74810000D03*
%TO.P,U504,8,Dig4*%
%TO.N,/Display/VDD_DIG4*%
X86620000Y-74810000D03*
%TO.P,U504,9*%
%TO.N,N/C*%
X86620000Y-67190000D03*
%TO.P,U504,11,Dig3*%
%TO.N,/Display/VDD_DIG3*%
X81540000Y-67190000D03*
%TO.P,U504,12,L*%
%TO.N,/Display/VDD_DIG5*%
X79000000Y-67190000D03*
%TO.P,U504,13,A*%
%TO.N,/Display/DIS2_A*%
X76460000Y-67190000D03*
%TO.P,U504,14,Dig2*%
%TO.N,/Display/VDD_DIG2*%
X73920000Y-67190000D03*
%TO.P,U504,15,B*%
%TO.N,/Display/DIS2_B*%
X71380000Y-67190000D03*
%TO.P,U504,16,F*%
%TO.N,/Display/DIS2_F*%
X68840000Y-67190000D03*
%TD*%
D12*
%TO.P,U302,48,PB9*%
%TO.N,/Host Controller/LED2*%
X50662500Y-66250000D03*
%TO.P,U302,47,PB8*%
%TO.N,/Host Controller/LOW_POWER_ENABLE*%
X50662500Y-66750000D03*
%TO.P,U302,46,PB7*%
%TO.N,/Display/~{SCT_EN}*%
X50662500Y-67250000D03*
%TO.P,U302,45,PB6*%
%TO.N,/Display/~{SCT_LA}*%
X50662500Y-67750000D03*
%TO.P,U302,44,SPI3_MOSI*%
%TO.N,/Display/SCT_SDI*%
X50662500Y-68250000D03*
%TO.P,U302,43,PB4*%
%TO.N,unconnected-(U302-PB4-Pad43)*%
X50662500Y-68750000D03*
%TO.P,U302,42,SPI3_SCK*%
%TO.N,/Display/SCT_CLK*%
X50662500Y-69250000D03*
%TO.P,U302,41,PD3*%
%TO.N,/Display/DISPLAY1_EN*%
X50662500Y-69750000D03*
%TO.P,U302,40,PD2*%
%TO.N,/Display/DISPLAY4_EN*%
X50662500Y-70250000D03*
%TO.P,U302,39,PD1*%
%TO.N,/Display/DISPLAY3_EN*%
X50662500Y-70750000D03*
%TO.P,U302,38,PD0*%
%TO.N,/Display/DISPLAY5_EN*%
X50662500Y-71250000D03*
%TO.P,U302,37,PA15*%
%TO.N,/Display/DISPLAY2_EN*%
X50662500Y-71750000D03*
D13*
%TO.P,U302,36,SYS_SWCLK*%
%TO.N,/Host Controller/SWCLK*%
X49250000Y-73162500D03*
%TO.P,U302,35,SYS_SWDIO*%
%TO.N,/Host Controller/SWDIO*%
X48750000Y-73162500D03*
%TO.P,U302,34,USB_DP (PA12)*%
%TO.N,/Host Controller/USB+*%
X48250000Y-73162500D03*
%TO.P,U302,33,USB_DM (PA11)*%
%TO.N,/Host Controller/USB-*%
X47750000Y-73162500D03*
%TO.P,U302,32,I2C1_SDA (PA10)*%
%TO.N,/Host Controller/I2C_SDA*%
X47250000Y-73162500D03*
%TO.P,U302,31,PC7*%
%TO.N,/Host Controller/VOLTAGE_SENS_FLTR*%
X46750000Y-73162500D03*
%TO.P,U302,30,PC6*%
%TO.N,/Host Controller/CURRENT_SENSE_FLTR*%
X46250000Y-73162500D03*
%TO.P,U302,29,I2C1_SCL (PA9)*%
%TO.N,/Host Controller/I2C_SCL*%
X45750000Y-73162500D03*
%TO.P,U302,28,UCPD1_CC1*%
%TO.N,/Host Controller/UCPD_CC1*%
X45250000Y-73162500D03*
%TO.P,U302,27,UCPD1_CC2*%
%TO.N,/Host Controller/UCPD_CC2*%
X44750000Y-73162500D03*
%TO.P,U302,26,PB14*%
%TO.N,/Host Controller/ADDR_2*%
X44250000Y-73162500D03*
%TO.P,U302,25,PB13*%
%TO.N,/Host Controller/SWITCH_1*%
X43750000Y-73162500D03*
D12*
%TO.P,U302,24,PB12*%
%TO.N,/Host Controller/SWITCH_2*%
X42337500Y-71750000D03*
%TO.P,U302,23,PB11*%
%TO.N,/Host Controller/ADDR_1*%
X42337500Y-71250000D03*
%TO.P,U302,22,PB10*%
%TO.N,/Host Controller/ADDR_0*%
X42337500Y-70750000D03*
%TO.P,U302,21,RCC_MCO_2*%
%TO.N,/Host Controller/OSC_OUT_PIN*%
X42337500Y-70250000D03*
%TO.P,U302,20,PB1*%
%TO.N,/Host Controller/ST67_BOOT*%
X42337500Y-69750000D03*
%TO.P,U302,19,PB0*%
%TO.N,unconnected-(U302-PB0-Pad19)*%
X42337500Y-69250000D03*
%TO.P,U302,18,SPI1_MOSI*%
%TO.N,/Host Controller/ST67_MOSI*%
X42337500Y-68750000D03*
%TO.P,U302,17,SPI1_MISO*%
%TO.N,/Host Controller/ST67_MISO*%
X42337500Y-68250000D03*
%TO.P,U302,16,PA5*%
%TO.N,/Host Controller/ST67_CS*%
X42337500Y-67750000D03*
%TO.P,U302,15,PA4*%
%TO.N,/Host Controller/ST67_RDY*%
X42337500Y-67250000D03*
%TO.P,U302,14,USART2_RX*%
%TO.N,/Host Controller/ST67_RX*%
X42337500Y-66750000D03*
%TO.P,U302,13,USART2_TX*%
%TO.N,/Host Controller/ST67_TX*%
X42337500Y-66250000D03*
D13*
%TO.P,U302,12,SPI1_SCK*%
%TO.N,/Host Controller/ST67_SCK*%
X43750000Y-64837500D03*
%TO.P,U302,11,PA0*%
%TO.N,/Host Controller/ST67_CHIP_EN*%
X44250000Y-64837500D03*
%TO.P,U302,10,PF2*%
%TO.N,/Host Controller/NRST*%
X44750000Y-64837500D03*
%TO.P,U302,9,RCC_OSC_OUT*%
%TO.N,/Host Controller/OSC_OUT*%
X45250000Y-64837500D03*
%TO.P,U302,8,RCC_OSC_IN*%
%TO.N,/Host Controller/OSC_IN*%
X45750000Y-64837500D03*
%TO.P,U302,7,VSS*%
%TO.N,GND*%
X46250000Y-64837500D03*
%TO.P,U302,6,VDD*%
%TO.N,+3.3V*%
X46750000Y-64837500D03*
%TO.P,U302,5,VREF+*%
%TO.N,GND*%
X47250000Y-64837500D03*
%TO.P,U302,4,VBAT*%
%TO.N,+3.3V*%
X47750000Y-64837500D03*
%TO.P,U302,3,PC15*%
%TO.N,unconnected-(U302-PC15-Pad3)*%
X48250000Y-64837500D03*
%TO.P,U302,2,PC14*%
%TO.N,unconnected-(U302-PC14-Pad2)*%
X48750000Y-64837500D03*
%TO.P,U302,1,PC13*%
%TO.N,/Host Controller/LED1*%
X49250000Y-64837500D03*
%TD*%
D14*
%TO.P,D102,1,A1*%
%TO.N,GND*%
X102050000Y-70150000D03*
%TO.P,D102,2,A2*%
%TO.N,/Host Controller/USB+*%
X99950000Y-70150000D03*
%TD*%
D15*
%TO.P,D101,1,A1*%
%TO.N,GND*%
X93000000Y-73050000D03*
%TO.P,D101,2,A2*%
%TO.N,/Host Controller/USB-*%
X93000000Y-70950000D03*
%TD*%
D16*
%TO.P,C204,1*%
%TO.N,GND*%
X30050000Y-56200000D03*
%TO.P,C204,2*%
%TO.N,/Host Controller/ST67_CHIP_EN*%
X31950000Y-56200000D03*
%TD*%
D17*
%TO.P,J102,1,Pin_1*%
%TO.N,GND*%
X132860000Y-52000000D03*
D18*
%TO.P,J102,2,Pin_2*%
%TO.N,/Host Controller/I2C_SCL*%
X130320000Y-52000000D03*
%TO.P,J102,3,Pin_3*%
%TO.N,GND*%
X127780000Y-52000000D03*
%TO.P,J102,4,Pin_4*%
%TO.N,/Host Controller/I2C_SDA*%
X125240000Y-52000000D03*
%TO.P,J102,5,Pin_5*%
%TO.N,GND*%
X122700000Y-52000000D03*
%TO.P,J102,6,Pin_6*%
%TO.N,VBUS*%
X120160000Y-52000000D03*
%TO.P,J102,7,Pin_7*%
%TO.N,GND*%
X117620000Y-52000000D03*
%TO.P,J102,8,Pin_8*%
%TO.N,VBUS*%
X115080000Y-52000000D03*
%TO.P,J102,9,Pin_9*%
%TO.N,/Host Controller/LOW_POWER_ENABLE*%
X112540000Y-52000000D03*
%TO.P,J102,10,Pin_10*%
%TO.N,/Display/LED_BRIGHTNESS*%
X110000000Y-52000000D03*
%TD*%
D19*
%TO.P,C303,1*%
%TO.N,GND*%
X45200000Y-59850000D03*
%TO.P,C303,2*%
%TO.N,/Host Controller/OSC_IN*%
X45200000Y-61750000D03*
%TD*%
D20*
%TO.P,U201,1,NC*%
%TO.N,unconnected-(U201-NC-Pad1)*%
X22730000Y-70433000D03*
%TO.P,U201,2,NC*%
%TO.N,unconnected-(U201-NC-Pad2)*%
X24000000Y-70433000D03*
%TO.P,U201,3,BOOT*%
%TO.N,/Host Controller/ST67_BOOT*%
X25270000Y-70433000D03*
%TO.P,U201,4,NC*%
%TO.N,unconnected-(U201-NC-Pad4)*%
X26540000Y-70433000D03*
%TO.P,U201,5,NC*%
%TO.N,unconnected-(U201-NC-Pad5)*%
X27810000Y-70433000D03*
%TO.P,U201,6,NC*%
%TO.N,unconnected-(U201-NC-Pad6)*%
X29080000Y-70433000D03*
%TO.P,U201,7,NC*%
%TO.N,unconnected-(U201-NC-Pad7)*%
X30350000Y-70433000D03*
%TO.P,U201,8,NC*%
%TO.N,unconnected-(U201-NC-Pad8)*%
X31620000Y-70433000D03*
%TO.P,U201,9,VDDIO*%
%TO.N,+3.3V*%
X32891500Y-69161500D03*
%TO.P,U201,10,GND*%
%TO.N,GND*%
X32891500Y-67891500D03*
%TO.P,U201,11,NC*%
%TO.N,unconnected-(U201-NC-Pad11)*%
X32891500Y-66621500D03*
%TO.P,U201,12,NC*%
%TO.N,unconnected-(U201-NC-Pad12)*%
X32891500Y-65351500D03*
%TO.P,U201,13,XTAL32K_OUT*%
%TO.N,unconnected-(U201-XTAL32K_OUT-Pad13)*%
X32891500Y-64081500D03*
%TO.P,U201,14,XTAL32K_IN*%
%TO.N,unconnected-(U201-XTAL32K_IN-Pad14)*%
X32891500Y-62811500D03*
%TO.P,U201,15,GND*%
%TO.N,GND*%
X32891500Y-61541500D03*
%TO.P,U201,16,VDD33*%
%TO.N,+3.3V*%
X32891500Y-60271500D03*
%TO.P,U201,17,CHIP_EN*%
%TO.N,/Host Controller/ST67_CHIP_EN*%
X31620000Y-59000000D03*
%TO.P,U201,18,GND*%
%TO.N,GND*%
X30350000Y-59000000D03*
%TO.P,U201,19,NC*%
%TO.N,unconnected-(U201-NC-Pad19)*%
X29080000Y-59000000D03*
%TO.P,U201,20,NC*%
%TO.N,unconnected-(U201-NC-Pad20)*%
X27810000Y-59000000D03*
%TO.P,U201,21,SPI_RDY*%
%TO.N,/Host Controller/ST67_RDY*%
X26540000Y-59000000D03*
%TO.P,U201,22,UART_TX*%
%TO.N,/Host Controller/ST67_RX*%
X25270000Y-59000000D03*
%TO.P,U201,23,UART_RX*%
%TO.N,/Host Controller/ST67_TX*%
X24000000Y-59000000D03*
%TO.P,U201,24,SPI_CS*%
%TO.N,/Host Controller/ST67_CS*%
X22730000Y-59000000D03*
%TO.P,U201,25,VDDIO*%
%TO.N,+3.3V*%
X21458500Y-60271500D03*
%TO.P,U201,26,GND*%
%TO.N,GND*%
X21458500Y-61541500D03*
%TO.P,U201,27,SPI_MOSI*%
%TO.N,/Host Controller/ST67_MOSI*%
X21458500Y-62811500D03*
%TO.P,U201,28,SPI_CLK*%
%TO.N,/Host Controller/ST67_SCK*%
X21458500Y-64081500D03*
%TO.P,U201,29,SPI_MISO*%
%TO.N,/Host Controller/ST67_MISO*%
X21458500Y-65351500D03*
%TO.P,U201,30,GND*%
%TO.N,GND*%
X21458500Y-66621500D03*
%TO.P,U201,31,NC*%
%TO.N,unconnected-(U201-NC-Pad31)*%
X21458500Y-67891500D03*
%TO.P,U201,32,GND*%
%TO.N,GND*%
X21458500Y-69161500D03*
D21*
%TO.P,U201,33*%
%TO.N,N/C*%
X26175000Y-66916500D03*
X28175000Y-66916500D03*
D22*
X25525000Y-66366500D03*
D23*
X28825000Y-66366500D03*
D21*
X24975000Y-65916500D03*
X29375000Y-65716500D03*
X24975000Y-63516500D03*
X29375000Y-63516500D03*
D23*
X25525000Y-63066500D03*
X28825000Y-63066500D03*
D21*
X26175000Y-62516500D03*
X28175000Y-62516500D03*
%TD*%
D24*
%TO.P,C203,1*%
%TO.N,+3.3V*%
X35500000Y-69450000D03*
%TO.P,C203,2*%
%TO.N,GND*%
X35500000Y-67550000D03*
%TD*%
D17*
%TO.P,J104,1,Pin_1*%
%TO.N,GND*%
X132860000Y-76115000D03*
D18*
%TO.P,J104,2,Pin_2*%
%TO.N,/Host Controller/I2C_SCL*%
X130320000Y-76115000D03*
%TO.P,J104,3,Pin_3*%
%TO.N,GND*%
X127780000Y-76115000D03*
%TO.P,J104,4,Pin_4*%
%TO.N,/Host Controller/I2C_SDA*%
X125240000Y-76115000D03*
%TO.P,J104,5,Pin_5*%
%TO.N,GND*%
X122700000Y-76115000D03*
%TO.P,J104,6,Pin_6*%
%TO.N,VBUS*%
X120160000Y-76115000D03*
%TO.P,J104,7,Pin_7*%
%TO.N,GND*%
X117620000Y-76115000D03*
%TO.P,J104,8,Pin_8*%
%TO.N,VBUS*%
X115080000Y-76115000D03*
%TO.P,J104,9,Pin_9*%
%TO.N,/Host Controller/LOW_POWER_ENABLE*%
X112540000Y-76115000D03*
%TO.P,J104,10,Pin_10*%
%TO.N,/Display/LED_BRIGHTNESS*%
X110000000Y-76115000D03*
%TD*%
D24*
%TO.P,C607,1*%
%TO.N,+3.3V*%
X172200000Y-55100000D03*
%TO.P,C607,2*%
%TO.N,GND*%
X172200000Y-53200000D03*
%TD*%
D25*
%TO.P,J106,A1,GND*%
%TO.N,GND*%
X96950000Y-72350000D03*
%TO.P,J106,A4,VBUS*%
%TO.N,/VBUS_IN*%
X97750000Y-72350000D03*
D26*
%TO.P,J106,A5,CC1*%
%TO.N,/Host Controller/UCPD_CC1*%
X98900000Y-72350000D03*
%TO.P,J106,A6,D+*%
%TO.N,/Host Controller/USB+*%
X99900000Y-72350000D03*
%TO.P,J106,A7,D-*%
%TO.N,/Host Controller/USB-*%
X100400000Y-72350000D03*
%TO.P,J106,A8*%
%TO.N,N/C*%
X101400000Y-72350000D03*
D25*
%TO.P,J106,A9,VBUS*%
%TO.N,/VBUS_IN*%
X102550000Y-72350000D03*
%TO.P,J106,A12,GND*%
%TO.N,GND*%
X103350000Y-72350000D03*
%TO.P,J106,B1,GND*%
X103350000Y-72350000D03*
%TO.P,J106,B4,VBUS*%
%TO.N,/VBUS_IN*%
X102550000Y-72350000D03*
D26*
%TO.P,J106,B5,CC2*%
%TO.N,/Host Controller/UCPD_CC2*%
X101900000Y-72350000D03*
%TO.P,J106,B6,D+*%
%TO.N,/Host Controller/USB+*%
X100900000Y-72350000D03*
%TO.P,J106,B7,D-*%
%TO.N,/Host Controller/USB-*%
X99400000Y-72350000D03*
%TO.P,J106,B8*%
%TO.N,N/C*%
X98400000Y-72350000D03*
D25*
%TO.P,J106,B9,VBUS*%
%TO.N,/VBUS_IN*%
X97750000Y-72350000D03*
%TO.P,J106,B12,GND*%
%TO.N,GND*%
X96950000Y-72350000D03*
D27*
%TO.P,J106,S1,SHIELD*%
%TO.N,unconnected-(J106-SHIELD-PadS1)_3*%
X95055000Y-73000000D03*
D28*
%TO.N,unconnected-(J106-SHIELD-PadS1)_2*%
X95055000Y-76925000D03*
D27*
%TO.N,unconnected-(J106-SHIELD-PadS1)*%
X105245000Y-73000000D03*
D28*
%TO.N,unconnected-(J106-SHIELD-PadS1)_1*%
X105245000Y-76925000D03*
%TD*%
D29*
%TO.P,JP301,1,A*%
%TO.N,+3.3V*%
X23400000Y-75000000D03*
D30*
%TO.P,JP301,2,C*%
%TO.N,/Host Controller/ADDR_0*%
X23400000Y-76300000D03*
D31*
%TO.P,JP301,3,B*%
%TO.N,GND*%
X23400000Y-77600000D03*
%TD*%
D32*
%TO.P,C201,1*%
%TO.N,GND*%
X23200000Y-56800000D03*
%TO.P,C201,2*%
%TO.N,+3.3V*%
X21300000Y-56800000D03*
%TD*%
%TO.P,C601,1*%
%TO.N,Net-(U601-BOOT)*%
X167750000Y-64185000D03*
%TO.P,C601,2*%
%TO.N,Net-(U601-SW)*%
X165850000Y-64185000D03*
%TD*%
D17*
%TO.P,J101,1,Pin_1*%
%TO.N,+3.3V*%
X59000000Y-76500000D03*
D18*
%TO.P,J101,2,Pin_2*%
%TO.N,GND*%
X56460000Y-76500000D03*
%TO.P,J101,3,Pin_3*%
%TO.N,/Host Controller/I2C_SCL*%
X53920000Y-76500000D03*
%TO.P,J101,4,Pin_4*%
%TO.N,/Host Controller/I2C_SDA*%
X51380000Y-76500000D03*
%TD*%
D16*
%TO.P,C602,1*%
%TO.N,GND*%
X169565000Y-70550000D03*
%TO.P,C602,2*%
%TO.N,VBUS*%
X171465000Y-70550000D03*
%TD*%
D33*
%TO.P,R705,1*%
%TO.N,GND*%
X55750000Y-56675000D03*
%TO.P,R705,2*%
%TO.N,Net-(Q701-D)*%
X55750000Y-58500000D03*
%TD*%
D17*
%TO.P,J105,1,Pin_1*%
%TO.N,GND*%
X100275000Y-76250000D03*
D18*
%TO.P,J105,2,Pin_2*%
%TO.N,/VBUS_IN*%
X97735000Y-76250000D03*
%TD*%
D34*
%TO.P,R703,1*%
%TO.N,Net-(R701-Pad2)*%
X54587500Y-62250000D03*
%TO.P,R703,2*%
%TO.N,/Display/LED_BRIGHTNESS*%
X57127500Y-62250000D03*
%TD*%
D35*
%TO.P,J103,1,Pin_1*%
%TO.N,+3.3V*%
X49500000Y-52500000D03*
D36*
%TO.P,J103,2,Pin_2*%
%TO.N,/Host Controller/SWCLK*%
X47500000Y-52500000D03*
%TO.P,J103,3,Pin_3*%
%TO.N,GND*%
X45500000Y-52500000D03*
%TO.P,J103,4,Pin_4*%
%TO.N,/Host Controller/SWDIO*%
X43500000Y-52500000D03*
%TO.P,J103,5,Pin_5*%
%TO.N,/Host Controller/NRST*%
X41500000Y-52500000D03*
%TO.P,J103,6,Pin_6*%
%TO.N,unconnected-(J103-Pin_6-Pad6)*%
X39500000Y-52500000D03*
%TD*%
D37*
%TO.P,R602,1*%
%TO.N,Net-(U601-FB)*%
X163112500Y-63600000D03*
%TO.P,R602,2*%
%TO.N,GND*%
X161287500Y-63600000D03*
%TD*%
D24*
%TO.P,C606,1*%
%TO.N,VDD*%
X163000000Y-55050000D03*
%TO.P,C606,2*%
%TO.N,GND*%
X163000000Y-53150000D03*
%TD*%
D38*
%TO.P,D302,1,K*%
%TO.N,Net-(D302-K)*%
X57000000Y-50200000D03*
%TO.P,D302,2,A*%
%TO.N,/Host Controller/LED2*%
X57000000Y-52075000D03*
%TD*%
D39*
%TO.P,TP701,1,1*%
%TO.N,/Display/LED_BRIGHTNESS*%
X54600000Y-65000000D03*
%TD*%
D24*
%TO.P,C608,1*%
%TO.N,VDD*%
X162200000Y-67550000D03*
%TO.P,C608,2*%
%TO.N,Net-(U601-FB)*%
X162200000Y-65650000D03*
%TD*%
D40*
%TO.P,C605,1*%
%TO.N,VDD*%
X165115000Y-70612500D03*
%TO.P,C605,2*%
%TO.N,GND*%
X165115000Y-67662500D03*
%TD*%
D39*
%TO.P,TP301,1,1*%
%TO.N,/Host Controller/OSC_OUT_PIN*%
X38800000Y-71200000D03*
%TD*%
D16*
%TO.P,C302,1*%
%TO.N,+3.3V*%
X47500000Y-60500000D03*
%TO.P,C302,2*%
%TO.N,GND*%
X49400000Y-60500000D03*
%TD*%
D41*
%TO.P,R702,1*%
%TO.N,+3.3V*%
X54587500Y-60250000D03*
%TO.P,R702,2*%
%TO.N,/Display/LED_BRIGHTNESS*%
X56412500Y-60250000D03*
%TD*%
D29*
%TO.P,JP303,1,A*%
%TO.N,+3.3V*%
X28600000Y-75000000D03*
D30*
%TO.P,JP303,2,C*%
%TO.N,/Host Controller/ADDR_2*%
X28600000Y-76300000D03*
D31*
%TO.P,JP303,3,B*%
%TO.N,GND*%
X28600000Y-77600000D03*
%TD*%
D42*
%TO.P,R704,1*%
%TO.N,/Display/LED_BRIGHTNESS*%
X58250000Y-60412500D03*
%TO.P,R704,2*%
%TO.N,Net-(Q701-D)*%
X58250000Y-58587500D03*
%TD*%
D43*
%TO.P,C305,1*%
%TO.N,/Host Controller/NRST*%
X36375000Y-57000000D03*
%TO.P,C305,2*%
%TO.N,GND*%
X34825000Y-57000000D03*
%TD*%
D40*
%TO.P,C604,1*%
%TO.N,VDD*%
X167515000Y-70612500D03*
%TO.P,C604,2*%
%TO.N,GND*%
X167515000Y-67662500D03*
%TD*%
D44*
%TO.P,L601,1,1*%
%TO.N,Net-(U601-SW)*%
X170725000Y-75200000D03*
%TO.P,L601,2,2*%
%TO.N,VDD*%
X165275000Y-75200000D03*
%TD*%
D45*
%TO.P,Y301,1,1*%
%TO.N,/Host Controller/OSC_IN*%
X45200000Y-55800000D03*
%TO.P,Y301,2,G*%
%TO.N,GND*%
X41200000Y-55800000D03*
%TO.P,Y301,3,3*%
%TO.N,Net-(C304-Pad2)*%
X41200000Y-58200000D03*
%TO.P,Y301,4,G*%
%TO.N,GND*%
X45200000Y-58200000D03*
%TD*%
D46*
%TO.P,SW301,1,1*%
%TO.N,GND*%
X31250000Y-76275000D03*
%TO.P,SW301,2,2*%
%TO.N,Net-(R306-Pad2)*%
X39000000Y-76275000D03*
%TD*%
D42*
%TO.P,R601,1*%
%TO.N,VDD*%
X160200000Y-67512500D03*
%TO.P,R601,2*%
%TO.N,Net-(U601-FB)*%
X160200000Y-65687500D03*
%TD*%
D47*
%TO.P,C301,1*%
%TO.N,+3.3V*%
X47425000Y-62250000D03*
%TO.P,C301,2*%
%TO.N,GND*%
X48975000Y-62250000D03*
%TD*%
D37*
%TO.P,R311,1*%
%TO.N,GND*%
X60912500Y-50200000D03*
%TO.P,R311,2*%
%TO.N,Net-(D302-K)*%
X59087500Y-50200000D03*
%TD*%
D38*
%TO.P,D301,1,K*%
%TO.N,Net-(D301-K)*%
X54400000Y-50200000D03*
%TO.P,D301,2,A*%
%TO.N,/Host Controller/LED1*%
X54400000Y-52075000D03*
%TD*%
D19*
%TO.P,C202,1*%
%TO.N,+3.3V*%
X35500000Y-60050000D03*
%TO.P,C202,2*%
%TO.N,GND*%
X35500000Y-61950000D03*
%TD*%
D33*
%TO.P,R701,1*%
%TO.N,+3.3V*%
X52500000Y-60337500D03*
%TO.P,R701,2*%
%TO.N,Net-(R701-Pad2)*%
X52500000Y-62162500D03*
%TD*%
D39*
%TO.P,TP602,1,1*%
%TO.N,+3.3V*%
X172000000Y-57600000D03*
%TD*%
D48*
%TO.P,U602,1,VI*%
%TO.N,VDD*%
X165300000Y-56950000D03*
%TO.P,U602,2,GND*%
%TO.N,GND*%
X167600000Y-56950000D03*
D49*
X167600000Y-50650000D03*
D48*
%TO.P,U602,3,VO*%
%TO.N,+3.3V*%
X169900000Y-56950000D03*
%TD*%
D50*
%TO.P,U601,1,GND*%
%TO.N,GND*%
X169440000Y-65675000D03*
%TO.P,U601,2,SW*%
%TO.N,Net-(U601-SW)*%
X170390000Y-65675000D03*
%TO.P,U601,3,VIN*%
%TO.N,VBUS*%
X171340000Y-65675000D03*
%TO.P,U601,4,FB*%
%TO.N,Net-(U601-FB)*%
X171340000Y-63400000D03*
%TO.P,U601,5,EN*%
%TO.N,unconnected-(U601-EN-Pad5)*%
X170390000Y-63400000D03*
%TO.P,U601,6,BOOT*%
%TO.N,Net-(U601-BOOT)*%
X169440000Y-63400000D03*
%TD*%
D43*
%TO.P,C603,1*%
%TO.N,VBUS*%
X171400000Y-68800000D03*
%TO.P,C603,2*%
%TO.N,GND*%
X169850000Y-68800000D03*
%TD*%
D39*
%TO.P,TP601,1,1*%
%TO.N,VDD*%
X162000000Y-73400000D03*
%TD*%
D19*
%TO.P,C304,2*%
%TO.N,Net-(C304-Pad2)*%
X39000000Y-57950000D03*
%TO.P,C304,1*%
%TO.N,GND*%
X39000000Y-56050000D03*
%TD*%
D51*
%TO.P,Q701,1,G*%
%TO.N,/Host Controller/LOW_POWER_ENABLE*%
X59450000Y-54800000D03*
%TO.P,Q701,2,S*%
%TO.N,GND*%
X57550000Y-54800000D03*
%TO.P,Q701,3,D*%
%TO.N,Net-(Q701-D)*%
X58500000Y-56675000D03*
%TD*%
D29*
%TO.P,JP302,1,A*%
%TO.N,+3.3V*%
X26000000Y-75000000D03*
D30*
%TO.P,JP302,2,C*%
%TO.N,/Host Controller/ADDR_1*%
X26000000Y-76300000D03*
D31*
%TO.P,JP302,3,B*%
%TO.N,GND*%
X26000000Y-77600000D03*
%TD*%
D46*
%TO.P,SW302,1,1*%
%TO.N,GND*%
X48500000Y-76275000D03*
%TO.P,SW302,2,2*%
%TO.N,Net-(R307-Pad2)*%
X40750000Y-76275000D03*
%TD*%
D41*
%TO.P,R201,1*%
%TO.N,+3.3V*%
X30087500Y-54250000D03*
%TO.P,R201,2*%
%TO.N,/Host Controller/ST67_CHIP_EN*%
X31912500Y-54250000D03*
%TD*%
D33*
%TO.P,R502,1*%
%TO.N,/Display/SCT_CLK_F*%
X60100000Y-66187500D03*
%TO.P,R502,2*%
%TO.N,/Display/SCT_CLK*%
X60100000Y-68012500D03*
%TD*%
D24*
%TO.P,C504,2*%
%TO.N,GND*%
X62800000Y-63050000D03*
%TO.P,C504,1*%
%TO.N,/Display/SCT_CLK_F*%
X62800000Y-64950000D03*
%TD*%
D37*
%TO.P,R303,1*%
%TO.N,/Host Controller/OSC_OUT*%
X42600000Y-60400000D03*
%TO.P,R303,2*%
%TO.N,Net-(C304-Pad2)*%
X40775000Y-60400000D03*
%TD*%
D52*
%TO.N,VBUS*%
X99800000Y-68200000D03*
X102300000Y-68200000D03*
X173100000Y-71800000D03*
X172200000Y-71800000D03*
%TO.N,GND*%
X98400000Y-59000000D03*
%TO.N,/Display/DIS3_16*%
X100000000Y-55600000D03*
%TO.N,/Display/DIS3_7*%
X113800000Y-53400000D03*
%TO.N,GND*%
X98100000Y-68200000D03*
X104600000Y-66700000D03*
X98700000Y-54200000D03*
X97200000Y-53800000D03*
X175000000Y-56700000D03*
X173300000Y-56400000D03*
X62900000Y-61100000D03*
X61900000Y-57000000D03*
X66200000Y-57600000D03*
%TO.N,/Display/SCT_CLK_F*%
X65671731Y-58371732D03*
%TO.N,GND*%
X49900000Y-76000000D03*
X48300000Y-66600000D03*
X46300000Y-67400000D03*
X27000000Y-60600000D03*
X63000000Y-59600000D03*
D53*
%TO.N,+3.3V*%
X58400000Y-72800000D03*
D52*
%TO.N,GND*%
X37600000Y-57000000D03*
X46257426Y-62690875D03*
X42600000Y-62000000D03*
X40576708Y-62000000D03*
X38988354Y-60411646D03*
X37988354Y-59411646D03*
X38000000Y-54800000D03*
X41400000Y-54600000D03*
X43800000Y-54600000D03*
X46524000Y-61400000D03*
X46700000Y-59300000D03*
X46600000Y-54800000D03*
X46800000Y-57000000D03*
D54*
X45200000Y-59200000D03*
X39600000Y-55500000D03*
D52*
X34000000Y-57000000D03*
%TO.N,/Host Controller/UCPD_CC2*%
X104000000Y-70400000D03*
%TO.N,/Host Controller/ST67_CHIP_EN*%
X38000000Y-62750000D03*
X33250000Y-58750000D03*
D55*
%TO.N,VDD*%
X158000000Y-66400000D03*
X163200000Y-58175000D03*
D54*
%TO.N,GND*%
X169600000Y-51600000D03*
X54025000Y-72800000D03*
D52*
X22250000Y-69000000D03*
D54*
X94250000Y-61487500D03*
X161200000Y-64600000D03*
D52*
X24600000Y-77600000D03*
D54*
X164800000Y-66416576D03*
X104800000Y-71400000D03*
X169000000Y-68829076D03*
X35500000Y-66750000D03*
X167600000Y-51800000D03*
D52*
X27200000Y-77600000D03*
X23400000Y-63800000D03*
X23600000Y-69200000D03*
D54*
X63700000Y-54400000D03*
X93000000Y-74250000D03*
X61200000Y-77800000D03*
D52*
X40000000Y-65000000D03*
D53*
X49800000Y-62250000D03*
D52*
X38800000Y-64400000D03*
X32200000Y-67800000D03*
D54*
X165800000Y-61800000D03*
D52*
X29000000Y-56200000D03*
D54*
X168000000Y-66366576D03*
X91250000Y-51000000D03*
X93250000Y-60750000D03*
X96400000Y-71575000D03*
D52*
X32750000Y-77250000D03*
D54*
X165600000Y-51800000D03*
X167000000Y-66366576D03*
X35500000Y-62750000D03*
D52*
X24050000Y-57200000D03*
D54*
X93000000Y-51000000D03*
D52*
X47200000Y-76200000D03*
D54*
X165800000Y-66466579D03*
X94436827Y-50686827D03*
D53*
X44000000Y-66750000D03*
D54*
X57000000Y-57600000D03*
D52*
X32250000Y-61541500D03*
D53*
X103000000Y-69950000D03*
D52*
X22250000Y-67000000D03*
D54*
X64300000Y-56300000D03*
X63700000Y-53000000D03*
X54200000Y-54000000D03*
X90840000Y-70640000D03*
D52*
X22250000Y-61500000D03*
X62000000Y-50250000D03*
X22800000Y-62400000D03*
X45800000Y-66250000D03*
X38200000Y-66800000D03*
X30350000Y-59750000D03*
X37800000Y-67800000D03*
D54*
X161763173Y-57363173D03*
X168956747Y-66816099D03*
D52*
%TO.N,/Host Controller/SWITCH_2*%
X41600000Y-72600000D03*
%TO.N,/Host Controller/SWITCH_1*%
X43200000Y-74800000D03*
%TO.N,Net-(U601-SW)*%
X172800002Y-74240128D03*
X170006685Y-66800000D03*
X165000000Y-64600000D03*
X170800000Y-66812611D03*
X173600002Y-74240128D03*
X169997604Y-67599951D03*
X173600000Y-73440125D03*
X170800000Y-67588902D03*
X172800002Y-73440125D03*
D55*
%TO.N,VBUS*%
X172800000Y-70600000D03*
X101000000Y-68200000D03*
D53*
%TO.N,/Display/DIS1_D*%
X67300000Y-61200000D03*
D52*
%TO.N,Net-(D301-K)*%
X52250000Y-50250000D03*
%TO.N,/Host Controller/LOW_POWER_ENABLE*%
X60150002Y-57200000D03*
X90575221Y-74400000D03*
X65000000Y-65400000D03*
%TO.N,/Display/LED_BRIGHTNESS*%
X56500000Y-54000000D03*
X103600000Y-69000000D03*
X88250000Y-67000000D03*
D55*
%TO.N,/VBUS_IN*%
X98300000Y-74401532D03*
D52*
%TO.N,/Host Controller/UCPD_CC1*%
X94800000Y-71400000D03*
X62800000Y-74600000D03*
X45400000Y-74800000D03*
%TO.N,/Host Controller/UCPD_CC2*%
X61400000Y-73650000D03*
X44400000Y-74800000D03*
%TO.N,Net-(Q506-E)*%
X53183333Y-54616667D03*
X54600000Y-56000000D03*
%TO.N,Net-(R306-Pad2)*%
X38750000Y-77250000D03*
%TO.N,Net-(R307-Pad2)*%
X41000000Y-77250000D03*
%TO.N,/Host Controller/ST67_RDY*%
X34000000Y-62800000D03*
X27000000Y-57750000D03*
%TO.N,/Host Controller/ST67_CS*%
X23250000Y-60000000D03*
X34500000Y-65000000D03*
D53*
%TO.N,+3.3V*%
X108600000Y-66000000D03*
X52600000Y-59400000D03*
D52*
X92750000Y-68175000D03*
D53*
X168800000Y-55600000D03*
X166400000Y-58400000D03*
D52*
X94250000Y-64500000D03*
D53*
X47876000Y-59324000D03*
D52*
X23800000Y-74000000D03*
D53*
X94200000Y-56400000D03*
D52*
X29000000Y-74200000D03*
D55*
X35500000Y-70800000D03*
D53*
X21450000Y-55400000D03*
X29000000Y-54250000D03*
D52*
X105750000Y-74500000D03*
D53*
X92743114Y-58163215D03*
D55*
X35500000Y-58750000D03*
X171400000Y-56000000D03*
D52*
X26400000Y-74000000D03*
X37000000Y-75000000D03*
D55*
X59250000Y-52250000D03*
D52*
%TO.N,/Host Controller/ST67_SCK*%
X23250000Y-64750000D03*
X42800000Y-64400000D03*
D53*
%TO.N,/Display/DIS3_15*%
X129790000Y-58807405D03*
D52*
X100800000Y-59205331D03*
%TO.N,/Host Controller/ST67_TX*%
X26250000Y-60000000D03*
X37800000Y-64400000D03*
D53*
%TO.N,/Display/DIS3_3*%
X102000000Y-54400000D03*
%TO.N,/Display/DIS3_16*%
X128950000Y-57750000D03*
%TO.N,/Display/DIS3_10*%
X106200000Y-58800000D03*
X128000000Y-64600000D03*
X124400000Y-59200000D03*
%TO.N,/Display/DIS3_5*%
X103800000Y-53800000D03*
%TO.N,/Display/DIS3_1*%
X107200000Y-56000000D03*
%TO.N,/Display/DIS3_6*%
X104700000Y-53200000D03*
D52*
%TO.N,/Host Controller/ST67_MISO*%
X39000000Y-67500000D03*
X23400000Y-68200000D03*
%TO.N,/Host Controller/ST67_RX*%
X40933333Y-65000000D03*
X25000000Y-57750000D03*
%TO.N,/Host Controller/ST67_MOSI*%
X38000000Y-68800000D03*
X22500000Y-63250000D03*
D55*
%TO.N,/Display/VDD_DIG1*%
X88867715Y-56487183D03*
X66600000Y-66600000D03*
%TO.N,/Display/VDD_DIG2*%
X175000000Y-67400000D03*
%TO.N,/Display/VDD_DIG3*%
X130800000Y-56200000D03*
X113000000Y-56200000D03*
%TO.N,/Display/VDD_DIG4*%
X96359796Y-59799998D03*
X84000000Y-66800000D03*
%TO.N,/Display/VDD_DIG5*%
X135800000Y-54600000D03*
X118200000Y-54600000D03*
X156825215Y-56025215D03*
D52*
%TO.N,/Display/SCT1_SDO*%
X97600000Y-52900000D03*
X61200000Y-57600000D03*
%TO.N,/Display/SCT3_SDO*%
X98800000Y-67600000D03*
X174100000Y-55900000D03*
%TO.N,/Display/SCT_CLK_F*%
X175700000Y-56100000D03*
X98287500Y-59950000D03*
X98700000Y-53300000D03*
%TO.N,/Display/DISPLAY3_EN*%
X146000000Y-57600000D03*
%TO.N,/Display/DISPLAY4_EN*%
X137400000Y-57300000D03*
%TO.N,/Display/DISPLAY2_EN*%
X129400000Y-64200000D03*
%TO.N,/Display/~{SCT_EN}*%
X61500000Y-58750000D03*
X101200000Y-65200000D03*
X99050000Y-58350000D03*
X173600000Y-61000000D03*
X97400000Y-62400000D03*
X97700000Y-55600000D03*
%TO.N,/Display/DISPLAY5_EN*%
X150800000Y-58400000D03*
%TO.N,/Display/~{SCT_LA}*%
X99787325Y-59546465D03*
X103100000Y-65300000D03*
X67100000Y-56700000D03*
X99143231Y-55000000D03*
X176600000Y-56300000D03*
X96700000Y-55400000D03*
%TO.N,/Display/DISPLAY1_EN*%
X124000000Y-62800000D03*
%TO.N,/Host Controller/SWDIO*%
X47000000Y-66800000D03*
%TO.N,/Host Controller/SWCLK*%
X49200000Y-66600000D03*
%TO.N,/Display/SCT_SDI*%
X62250000Y-60250000D03*
%TO.N,/Host Controller/VOLTAGE_SENS_FLTR*%
X46250000Y-69000000D03*
%TO.N,/Host Controller/CURRENT_SENSE_FLTR*%
X45750000Y-71250000D03*
%TO.N,/Display/SCT_CLK_F*%
X103800000Y-66200000D03*
%TD*%
D56*
%TO.N,/VBUS_IN*%
X101903430Y-73703430D02*
X102550000Y-73056860D01*
D57*
X97735000Y-74966532D02*
X98300000Y-74401532D01*
X97735000Y-76250000D02*
X97735000Y-74966532D01*
D58*
%TO.N,/Display/DIS3_16*%
X101800000Y-57400000D02*
X100000000Y-55600000D01*
X128950000Y-57750000D02*
X128600000Y-57400000D01*
X128600000Y-57400000D02*
X101800000Y-57400000D01*
D57*
%TO.N,/Display/VDD_DIG4*%
X84000000Y-64400000D02*
X84000000Y-66800000D01*
X86580000Y-61820000D02*
X84000000Y-64400000D01*
X86580000Y-60810000D02*
X86580000Y-61820000D01*
X87200000Y-59400000D02*
X95959798Y-59400000D01*
X86580000Y-60020000D02*
X87200000Y-59400000D01*
X95959798Y-59400000D02*
X96359796Y-59799998D01*
X86580000Y-60810000D02*
X86580000Y-60020000D01*
D59*
%TO.N,/Display/~{SCT_EN}*%
X99100000Y-58400000D02*
X99100000Y-60700000D01*
X99100000Y-60700000D02*
X97400000Y-62400000D01*
X99050000Y-58350000D02*
X99100000Y-58400000D01*
%TO.N,/Display/~{SCT_LA}*%
X99787325Y-56587325D02*
X99787325Y-59546465D01*
X99143231Y-55000000D02*
X99143231Y-55943231D01*
X99143231Y-55943231D02*
X99787325Y-56587325D01*
D58*
%TO.N,/Display/DIS3_10*%
X124000000Y-58800000D02*
X124400000Y-59200000D01*
X106200000Y-58800000D02*
X124000000Y-58800000D01*
D59*
%TO.N,/Display/SCT_CLK_F*%
X97700000Y-57200000D02*
X97600000Y-57200000D01*
X98000000Y-54600000D02*
X98467231Y-55067231D01*
X98467231Y-55067231D02*
X98467231Y-56432769D01*
X98539249Y-53300000D02*
X98000000Y-53839249D01*
X98467231Y-56432769D02*
X97700000Y-57200000D01*
X98700000Y-53300000D02*
X98539249Y-53300000D01*
X98000000Y-53839249D02*
X98000000Y-54600000D01*
%TO.N,/Display/~{SCT_EN}*%
X97700000Y-55200000D02*
X97700000Y-55600000D01*
X97100000Y-54600000D02*
X97700000Y-55200000D01*
X96700000Y-54600000D02*
X97100000Y-54600000D01*
X96300000Y-54200000D02*
X96700000Y-54600000D01*
X88700000Y-54200000D02*
X96300000Y-54200000D01*
X87000000Y-55900000D02*
X88700000Y-54200000D01*
X65900000Y-55900000D02*
X87000000Y-55900000D01*
X62900000Y-57400000D02*
X64400000Y-57400000D01*
X64400000Y-57400000D02*
X65900000Y-55900000D01*
X61550000Y-58750000D02*
X62900000Y-57400000D01*
X61500000Y-58750000D02*
X61550000Y-58750000D01*
%TO.N,/Display/SCT1_SDO*%
X61200000Y-56700000D02*
X61200000Y-57600000D01*
X63997430Y-55200000D02*
X62897430Y-56300000D01*
X88400000Y-53500000D02*
X86700000Y-55200000D01*
X62897430Y-56300000D02*
X61600000Y-56300000D01*
X96400000Y-52900000D02*
X95800000Y-53500000D01*
X86700000Y-55200000D02*
X63997430Y-55200000D01*
X97600000Y-52900000D02*
X96400000Y-52900000D01*
X61600000Y-56300000D02*
X61200000Y-56700000D01*
X95800000Y-53500000D02*
X88400000Y-53500000D01*
%TO.N,/Display/~{SCT_LA}*%
X67300000Y-56500000D02*
X67100000Y-56700000D01*
X87300000Y-56500000D02*
X67300000Y-56500000D01*
X88900000Y-54900000D02*
X87300000Y-56500000D01*
X96200000Y-54900000D02*
X88900000Y-54900000D01*
X96700000Y-55400000D02*
X96200000Y-54900000D01*
%TO.N,/Host Controller/LOW_POWER_ENABLE*%
X112540000Y-52910000D02*
X112540000Y-52000000D01*
X111850000Y-53600000D02*
X112540000Y-52910000D01*
X63400000Y-51800000D02*
X107000000Y-51800000D01*
X108800000Y-53600000D02*
X111850000Y-53600000D01*
X60137500Y-55062500D02*
X63400000Y-51800000D01*
X59450000Y-55062500D02*
X60137500Y-55062500D01*
X107000000Y-51800000D02*
X108800000Y-53600000D01*
X59450000Y-57200000D02*
X59450000Y-55062500D01*
D58*
%TO.N,/Display/DIS3_15*%
X128319962Y-58751000D02*
X129511075Y-58751000D01*
X127568962Y-58000000D02*
X128319962Y-58751000D01*
X129511075Y-58751000D02*
X129622335Y-58639740D01*
X102000000Y-58000000D02*
X127568962Y-58000000D01*
X129622335Y-58639740D02*
X129790000Y-58807405D01*
X100800000Y-59205331D02*
X100800000Y-59200000D01*
X100800000Y-59200000D02*
X102000000Y-58000000D01*
D59*
%TO.N,/Display/SCT3_SDO*%
X98800000Y-66400000D02*
X98800000Y-67600000D01*
X100800000Y-64400000D02*
X98800000Y-66400000D01*
X120100000Y-64400000D02*
X100800000Y-64400000D01*
X121551000Y-65851000D02*
X120100000Y-64400000D01*
X126200000Y-65851000D02*
X121551000Y-65851000D01*
X138900000Y-65600000D02*
X126451000Y-65600000D01*
X126451000Y-65600000D02*
X126200000Y-65851000D01*
X142400000Y-62100000D02*
X138900000Y-65600000D01*
X156400000Y-62100000D02*
X142400000Y-62100000D01*
X159300000Y-59200000D02*
X156400000Y-62100000D01*
X172300000Y-59200000D02*
X159300000Y-59200000D01*
X174100000Y-57400000D02*
X172300000Y-59200000D01*
X174100000Y-55900000D02*
X174100000Y-57400000D01*
%TO.N,/Display/SCT_CLK_F*%
X104900000Y-65100000D02*
X103800000Y-66200000D01*
X119700000Y-65100000D02*
X104900000Y-65100000D01*
X121000000Y-66400000D02*
X119700000Y-65100000D01*
X139400000Y-66400000D02*
X121000000Y-66400000D01*
X142800000Y-63000000D02*
X139400000Y-66400000D01*
X159700000Y-59800000D02*
X156500000Y-63000000D01*
X175700000Y-57000000D02*
X172900000Y-59800000D01*
X175700000Y-56100000D02*
X175700000Y-57000000D01*
X172900000Y-59800000D02*
X159700000Y-59800000D01*
X156500000Y-63000000D02*
X142800000Y-63000000D01*
%TO.N,/Display/~{SCT_LA}*%
X103000000Y-65400000D02*
X103100000Y-65300000D01*
X103000000Y-66600000D02*
X103000000Y-65400000D01*
X103800000Y-67400000D02*
X103000000Y-66600000D01*
X104400000Y-67400000D02*
X103800000Y-67400000D01*
X108600000Y-71600000D02*
X104400000Y-67400000D01*
X136600000Y-71600000D02*
X108600000Y-71600000D01*
X156625000Y-64000000D02*
X144200000Y-64000000D01*
X160225000Y-60400000D02*
X156625000Y-64000000D01*
X144200000Y-64000000D02*
X136600000Y-71600000D01*
X173243991Y-60400000D02*
X160225000Y-60400000D01*
X176600000Y-57100000D02*
X173376000Y-60324000D01*
X176600000Y-56300000D02*
X176600000Y-57100000D01*
X173376000Y-60324000D02*
X173319991Y-60324000D01*
X173319991Y-60324000D02*
X173243991Y-60400000D01*
D57*
%TO.N,/Display/VDD_DIG2*%
X179400000Y-55800000D02*
X184740000Y-55800000D01*
X186060000Y-54480000D02*
X186060000Y-53190000D01*
X176600000Y-58600000D02*
X179400000Y-55800000D01*
X176600000Y-65800000D02*
X176600000Y-58600000D01*
X175000000Y-67400000D02*
X176600000Y-65800000D01*
X184740000Y-55800000D02*
X186060000Y-54480000D01*
D59*
%TO.N,/Display/SCT_CLK_F*%
X91600000Y-57200000D02*
X97600000Y-57200000D01*
X91200000Y-57600000D02*
X91600000Y-57200000D01*
X66600000Y-58300000D02*
X67300000Y-57600000D01*
X65743463Y-58300000D02*
X66600000Y-58300000D01*
X67300000Y-57600000D02*
X91200000Y-57600000D01*
X65671731Y-58371732D02*
X65743463Y-58300000D01*
X65671731Y-58428269D02*
X65671731Y-58371732D01*
X64400000Y-59700000D02*
X65671731Y-58428269D01*
X63750000Y-64950000D02*
X64400000Y-64300000D01*
X62800000Y-64950000D02*
X63750000Y-64950000D01*
X64400000Y-64300000D02*
X64400000Y-59700000D01*
%TO.N,GND*%
X62800000Y-61349998D02*
X62800000Y-63050000D01*
X62900000Y-61100000D02*
X62800000Y-61349998D01*
%TO.N,/Display/SCT_CLK_F*%
X60850000Y-64950000D02*
X62800000Y-64950000D01*
X60100000Y-65700000D02*
X60850000Y-64950000D01*
X60100000Y-66187500D02*
X60100000Y-65700000D01*
%TO.N,/Display/SCT_SDI*%
X61600000Y-62700000D02*
X61600000Y-60900000D01*
X56050000Y-68250000D02*
X61600000Y-62700000D01*
X61600000Y-60900000D02*
X62250000Y-60250000D01*
X50662500Y-68250000D02*
X56050000Y-68250000D01*
%TO.N,/Display/~{SCT_LA}*%
X55650000Y-67750000D02*
X50662500Y-67750000D01*
X63350000Y-58100000D02*
X60900000Y-60550000D01*
X64700000Y-58100000D02*
X63350000Y-58100000D01*
X66100000Y-56700000D02*
X64700000Y-58100000D01*
X67100000Y-56700000D02*
X66100000Y-56700000D01*
X60900000Y-60550000D02*
X60900000Y-62500000D01*
X60900000Y-62500000D02*
X55650000Y-67750000D01*
%TO.N,/Host Controller/I2C_SCL*%
X52200000Y-78100000D02*
X53800000Y-76500000D01*
X46400000Y-76600000D02*
X47900000Y-78100000D01*
X46400000Y-74800000D02*
X46400000Y-76600000D01*
X45750000Y-74150000D02*
X46400000Y-74800000D01*
X53800000Y-76500000D02*
X53920000Y-76500000D01*
X45750000Y-73750000D02*
X45750000Y-74150000D01*
X47900000Y-78100000D02*
X52200000Y-78100000D01*
%TO.N,/Display/SCT_CLK_F*%
X97600000Y-58400000D02*
X97600000Y-57200000D01*
%TO.N,/Display/SCT_CLK*%
X58787500Y-68012500D02*
X60100000Y-68012500D01*
X57550000Y-69250000D02*
X58787500Y-68012500D01*
%TO.N,/Display/DISPLAY1_EN*%
X123600000Y-62800000D02*
X124000000Y-62800000D01*
X87375000Y-69000000D02*
X90875000Y-65500000D01*
X95700000Y-65500000D02*
X99600000Y-61600000D01*
X122400000Y-61600000D02*
X123600000Y-62800000D01*
X58618905Y-69000000D02*
X87375000Y-69000000D01*
X90875000Y-65500000D02*
X95700000Y-65500000D01*
X99600000Y-61600000D02*
X122400000Y-61600000D01*
X57868905Y-69750000D02*
X58618905Y-69000000D01*
X50662500Y-69750000D02*
X57868905Y-69750000D01*
%TO.N,/Display/DISPLAY4_EN*%
X139300000Y-57300000D02*
X137400000Y-57300000D01*
X140600000Y-58600000D02*
X139300000Y-57300000D01*
X140600000Y-60400000D02*
X140600000Y-58600000D01*
X139000000Y-62000000D02*
X140600000Y-60400000D01*
X126000000Y-62000000D02*
X139000000Y-62000000D01*
X124400000Y-63600000D02*
X126000000Y-62000000D01*
X123400000Y-63600000D02*
X124400000Y-63600000D01*
X99809453Y-62200000D02*
X122000000Y-62200000D01*
X122000000Y-62200000D02*
X123400000Y-63600000D01*
X96009453Y-66000000D02*
X99809453Y-62200000D01*
X91150000Y-66000000D02*
X96009453Y-66000000D01*
X58828358Y-69600000D02*
X87550000Y-69600000D01*
X58178358Y-70250000D02*
X58828358Y-69600000D01*
X50662500Y-70250000D02*
X58178358Y-70250000D01*
X87550000Y-69600000D02*
X91150000Y-66000000D01*
%TO.N,/Display/DISPLAY3_EN*%
X145800000Y-57800000D02*
X146000000Y-57600000D01*
X142400000Y-57800000D02*
X145800000Y-57800000D01*
X141200000Y-59000000D02*
X142400000Y-57800000D01*
X141200000Y-60800000D02*
X141200000Y-59000000D01*
X139400000Y-62600000D02*
X141200000Y-60800000D01*
X126400000Y-62600000D02*
X139400000Y-62600000D01*
X124800000Y-64200000D02*
X126400000Y-62600000D01*
X122924190Y-64200000D02*
X124800000Y-64200000D01*
X96300000Y-66500000D02*
X100000000Y-62800000D01*
X100000000Y-62800000D02*
X121524190Y-62800000D01*
X87679726Y-70200000D02*
X91379726Y-66500000D01*
X121524190Y-62800000D02*
X122924190Y-64200000D01*
X59000000Y-70200000D02*
X87679726Y-70200000D01*
X58450000Y-70750000D02*
X59000000Y-70200000D01*
X91379726Y-66500000D02*
X96300000Y-66500000D01*
X50662500Y-70750000D02*
X58450000Y-70750000D01*
%TO.N,/Display/DISPLAY5_EN*%
X142800000Y-58400000D02*
X150800000Y-58400000D01*
X141800000Y-59400000D02*
X142800000Y-58400000D01*
X139800000Y-63200000D02*
X141800000Y-61200000D01*
X126800000Y-63200000D02*
X139800000Y-63200000D01*
X125200000Y-64800000D02*
X126800000Y-63200000D01*
X122600000Y-64800000D02*
X125200000Y-64800000D01*
X121200000Y-63400000D02*
X122600000Y-64800000D01*
X100200000Y-63400000D02*
X121200000Y-63400000D01*
X91700000Y-67000000D02*
X96600000Y-67000000D01*
X87900000Y-70800000D02*
X91700000Y-67000000D01*
X141800000Y-61200000D02*
X141800000Y-59400000D01*
X96600000Y-67000000D02*
X100200000Y-63400000D01*
X59037810Y-70800000D02*
X87900000Y-70800000D01*
X58587810Y-71250000D02*
X59037810Y-70800000D01*
X50662500Y-71250000D02*
X58587810Y-71250000D01*
%TO.N,/Display/DISPLAY2_EN*%
X129051000Y-63851000D02*
X129400000Y-64200000D01*
X125600000Y-65400000D02*
X127149000Y-63851000D01*
X122300000Y-65400000D02*
X125600000Y-65400000D01*
X120751000Y-63851000D02*
X122300000Y-65400000D01*
X100549000Y-63851000D02*
X120751000Y-63851000D01*
X127149000Y-63851000D02*
X129051000Y-63851000D01*
X88100000Y-71300000D02*
X91900000Y-67500000D01*
X59175620Y-71300000D02*
X88100000Y-71300000D01*
X58875620Y-71600000D02*
X59175620Y-71300000D01*
X96900000Y-67500000D02*
X100549000Y-63851000D01*
X58875620Y-71601380D02*
X58875620Y-71600000D01*
X58727000Y-71750000D02*
X58875620Y-71601380D01*
X91900000Y-67500000D02*
X96900000Y-67500000D01*
X50662500Y-71750000D02*
X58727000Y-71750000D01*
%TO.N,/Display/~{SCT_EN}*%
X60200000Y-62400000D02*
X60200000Y-60050000D01*
X60200000Y-60050000D02*
X61500000Y-58750000D01*
X50662500Y-67250000D02*
X55350000Y-67250000D01*
X55350000Y-67250000D02*
X60200000Y-62400000D01*
%TO.N,/Host Controller/LOW_POWER_ENABLE*%
X55050000Y-66750000D02*
X59450000Y-62350000D01*
X59450000Y-62350000D02*
X59450000Y-57200000D01*
X50662500Y-66750000D02*
X55050000Y-66750000D01*
%TO.N,/Display/SCT_CLK*%
X50662500Y-69250000D02*
X57550000Y-69250000D01*
%TO.N,/Host Controller/SWDIO*%
X48750000Y-71750000D02*
X48750000Y-72662500D01*
X48400000Y-71400000D02*
X48750000Y-71750000D01*
X48400000Y-68000000D02*
X48400000Y-71400000D01*
X47000000Y-66800000D02*
X48400000Y-68000000D01*
%TO.N,GND*%
X46250000Y-65800000D02*
X46250000Y-64837500D01*
X45800000Y-66250000D02*
X46250000Y-65800000D01*
%TO.N,/Host Controller/SWCLK*%
X49250000Y-66993994D02*
X49250000Y-72662500D01*
X49200000Y-66600000D02*
X49250000Y-66993994D01*
%TO.N,/Host Controller/ST67_RX*%
X25267937Y-58017937D02*
X25000000Y-57750000D01*
X25267937Y-58250000D02*
X25267937Y-58017937D01*
X25267937Y-58250000D02*
X25270000Y-59000000D01*
X25000000Y-57750000D02*
X25267937Y-58250000D01*
D57*
%TO.N,/Display/VDD_DIG1*%
X125810000Y-69190000D02*
X125810000Y-67810000D01*
X124800000Y-70200000D02*
X125810000Y-69190000D01*
X109000000Y-70200000D02*
X124800000Y-70200000D01*
X108030000Y-69230000D02*
X109000000Y-70200000D01*
X108030000Y-67810000D02*
X108030000Y-69230000D01*
D59*
%TO.N,/Display/~{SCT_EN}*%
X101200000Y-65800000D02*
X101200000Y-65200000D01*
X104032095Y-68051000D02*
X103451000Y-68051000D01*
X108381095Y-72400000D02*
X104032095Y-68051000D01*
X156949000Y-64651000D02*
X144386810Y-64651000D01*
X144386810Y-64651000D02*
X136637810Y-72400000D01*
X103451000Y-68051000D02*
X101200000Y-65800000D01*
X160600000Y-61000000D02*
X156949000Y-64651000D01*
X173600000Y-61000000D02*
X160600000Y-61000000D01*
X136637810Y-72400000D02*
X108381095Y-72400000D01*
D58*
%TO.N,/Display/DIS1_D*%
X80200000Y-62600000D02*
X81500000Y-61300000D01*
X67300000Y-61200000D02*
X67300000Y-61900000D01*
X67300000Y-61900000D02*
X68000000Y-62600000D01*
X68000000Y-62600000D02*
X80200000Y-62600000D01*
X81500000Y-61300000D02*
X81500000Y-60810000D01*
D59*
%TO.N,/Host Controller/LED1*%
X53087500Y-52162500D02*
X54250000Y-52162500D01*
X50549000Y-54701000D02*
X53087500Y-52162500D01*
X49762500Y-64837500D02*
X50549000Y-64051000D01*
X50549000Y-64051000D02*
X50549000Y-54701000D01*
X49250000Y-64837500D02*
X49762500Y-64837500D01*
%TO.N,+3.3V*%
X46750000Y-64837500D02*
X46750000Y-65644178D01*
D57*
%TO.N,/Display/VDD_DIG5*%
X191140000Y-54660000D02*
X191140000Y-53190000D01*
X179800000Y-57600000D02*
X188200000Y-57600000D01*
X178600000Y-62000000D02*
X178600000Y-58800000D01*
X179800000Y-63200000D02*
X178600000Y-62000000D01*
X188200000Y-63200000D02*
X179800000Y-63200000D01*
X191140000Y-66140000D02*
X188200000Y-63200000D01*
X178600000Y-58800000D02*
X179800000Y-57600000D01*
X191140000Y-67190000D02*
X191140000Y-66140000D01*
X188200000Y-57600000D02*
X191140000Y-54660000D01*
D59*
%TO.N,/Host Controller/ADDR_2*%
X44250000Y-72256822D02*
X44250000Y-72662500D01*
X43500000Y-72000000D02*
X43993178Y-72000000D01*
X30000000Y-75000000D02*
X31000000Y-74000000D01*
X31000000Y-74000000D02*
X41500000Y-74000000D01*
X30000000Y-76000000D02*
X30000000Y-75000000D01*
X29700000Y-76300000D02*
X30000000Y-76000000D01*
X41500000Y-74000000D02*
X43500000Y-72000000D01*
X28600000Y-76300000D02*
X29700000Y-76300000D01*
X43993178Y-72000000D02*
X44250000Y-72256822D01*
%TO.N,/Host Controller/ADDR_0*%
X41250000Y-70750000D02*
X42337500Y-70750000D01*
X39200000Y-72800000D02*
X41250000Y-70750000D01*
X26400000Y-72800000D02*
X39200000Y-72800000D01*
X24800000Y-74400000D02*
X26400000Y-72800000D01*
X24400000Y-76300000D02*
X24800000Y-75900000D01*
X24800000Y-75900000D02*
X24800000Y-74400000D01*
X23400000Y-76300000D02*
X24400000Y-76300000D01*
%TO.N,/Host Controller/ADDR_1*%
X28349000Y-73451000D02*
X39281822Y-73451000D01*
X27400000Y-74400000D02*
X28349000Y-73451000D01*
X27400000Y-75900000D02*
X27400000Y-74400000D01*
X39281822Y-73451000D02*
X41482822Y-71250000D01*
X27000000Y-76300000D02*
X27400000Y-75900000D01*
X26000000Y-76300000D02*
X27000000Y-76300000D01*
X41482822Y-71250000D02*
X42337500Y-71250000D01*
D56*
%TO.N,GND*%
X57000000Y-56750000D02*
X57075000Y-56675000D01*
X57000000Y-57600000D02*
X57000000Y-56750000D01*
X57200000Y-55800000D02*
X57550000Y-55450000D01*
X57200000Y-56550000D02*
X57200000Y-55800000D01*
X57075000Y-56675000D02*
X57200000Y-56550000D01*
X57550000Y-55450000D02*
X57550000Y-55062500D01*
D60*
%TO.N,/Host Controller/USB-*%
X90893198Y-72625000D02*
X92859099Y-70659099D01*
X60811394Y-72625000D02*
X90893198Y-72625000D01*
X47750000Y-74150000D02*
X48225000Y-74625000D01*
X47750000Y-73162500D02*
X47750000Y-74150000D01*
%TO.N,/Host Controller/USB+*%
X48299000Y-73898459D02*
X48250000Y-73849459D01*
X48299000Y-73982824D02*
X48299000Y-73898459D01*
X48517176Y-74201000D02*
X48299000Y-73982824D01*
X48982824Y-74201000D02*
X48517176Y-74201000D01*
X49482824Y-74201000D02*
X49017176Y-74201000D01*
X49508824Y-74175000D02*
X49482824Y-74201000D01*
X58625000Y-74175000D02*
X49508824Y-74175000D01*
X60625000Y-72175000D02*
X58625000Y-74175000D01*
%TO.N,/Host Controller/USB-*%
X48225000Y-74625000D02*
X58811394Y-74625000D01*
%TO.N,/Host Controller/USB+*%
X90706802Y-72175000D02*
X60625000Y-72175000D01*
X100875000Y-71306802D02*
X99268198Y-69700000D01*
X49017176Y-74201000D02*
X49000000Y-74183824D01*
X100875000Y-71900000D02*
X100875000Y-71306802D01*
X93181802Y-69700000D02*
X90706802Y-72175000D01*
X100900000Y-71925000D02*
X100875000Y-71900000D01*
X49000000Y-74183824D02*
X48982824Y-74201000D01*
X99268198Y-69700000D02*
X93181802Y-69700000D01*
X100900000Y-72350000D02*
X100900000Y-71925000D01*
%TO.N,/Host Controller/USB-*%
X58811394Y-74625000D02*
X60811394Y-72625000D01*
D56*
%TO.N,GND*%
X37600000Y-57000000D02*
X37600000Y-55200000D01*
D59*
%TO.N,Net-(C304-Pad2)*%
X40775000Y-59625000D02*
X41200000Y-59200000D01*
X41200000Y-59200000D02*
X41200000Y-58200000D01*
X40775000Y-60400000D02*
X40775000Y-59625000D01*
D56*
%TO.N,GND*%
X46524000Y-62424301D02*
X46257426Y-62690875D01*
X46524000Y-61400000D02*
X46524000Y-62424301D01*
D59*
%TO.N,/Host Controller/OSC_IN*%
X44200000Y-55800000D02*
X45200000Y-55800000D01*
X43800000Y-56200000D02*
X44200000Y-55800000D01*
X44350000Y-61750000D02*
X43800000Y-61200000D01*
X45400000Y-61750000D02*
X44350000Y-61750000D01*
X45400000Y-63000000D02*
X45400000Y-61750000D01*
X45750000Y-63350000D02*
X45400000Y-63000000D01*
X45750000Y-64837500D02*
X45750000Y-63350000D01*
X43800000Y-61200000D02*
X43800000Y-56200000D01*
D56*
%TO.N,GND*%
X42600000Y-62000000D02*
X40576708Y-62000000D01*
X40576708Y-62000000D02*
X38988354Y-60411646D01*
D59*
%TO.N,/Host Controller/ST67_CHIP_EN*%
X44250000Y-63850000D02*
X44250000Y-64337500D01*
X44000000Y-63600000D02*
X44250000Y-63850000D01*
X40200000Y-63600000D02*
X44000000Y-63600000D01*
X39350000Y-62750000D02*
X40200000Y-63600000D01*
X38000000Y-62750000D02*
X39350000Y-62750000D01*
%TO.N,/Host Controller/NRST*%
X44750000Y-63700000D02*
X44750000Y-64337500D01*
X44125000Y-63075000D02*
X44750000Y-63700000D01*
X40475000Y-63075000D02*
X44125000Y-63075000D01*
X36800000Y-59400000D02*
X40475000Y-63075000D01*
X36800000Y-57000000D02*
X36800000Y-59400000D01*
%TO.N,/Host Controller/ST67_TX*%
X40000000Y-64200000D02*
X41400000Y-64200000D01*
X41400000Y-64200000D02*
X42337500Y-65137500D01*
X39400000Y-63600000D02*
X40000000Y-64200000D01*
%TO.N,/Host Controller/ST67_SCK*%
X43237500Y-64837500D02*
X42800000Y-64400000D01*
X43750000Y-64837500D02*
X43237500Y-64837500D01*
%TO.N,/Host Controller/ST67_RX*%
X41000000Y-66400000D02*
X41350000Y-66750000D01*
X41000000Y-65066667D02*
X41000000Y-66400000D01*
X40933333Y-65000000D02*
X41000000Y-65066667D01*
X41350000Y-66750000D02*
X42337500Y-66750000D01*
D56*
%TO.N,GND*%
X38988354Y-60411646D02*
X37988354Y-59411646D01*
X37988354Y-59411646D02*
X37600000Y-59023292D01*
X38000000Y-54800000D02*
X38200000Y-54600000D01*
X41400000Y-54600000D02*
X43800000Y-54600000D01*
X43800000Y-54600000D02*
X46400000Y-54600000D01*
X46700000Y-59300000D02*
X46549000Y-59451000D01*
X46600000Y-54800000D02*
X46800000Y-55000000D01*
X46800000Y-57000000D02*
X46800000Y-59200000D01*
X45200000Y-59200000D02*
X45200000Y-59000000D01*
X45200000Y-59200000D02*
X45200000Y-58200000D01*
X39050000Y-56050000D02*
X39600000Y-55500000D01*
X39000000Y-56050000D02*
X39050000Y-56050000D01*
X40000000Y-55800000D02*
X41200000Y-55800000D01*
X39750000Y-56050000D02*
X40000000Y-55800000D01*
X39000000Y-56050000D02*
X39750000Y-56050000D01*
X45200000Y-59850000D02*
X45200000Y-59200000D01*
D59*
%TO.N,Net-(C304-Pad2)*%
X40000000Y-58200000D02*
X41200000Y-58200000D01*
X39750000Y-57950000D02*
X40000000Y-58200000D01*
X39000000Y-57950000D02*
X39750000Y-57950000D01*
D56*
%TO.N,GND*%
X34825000Y-57000000D02*
X34000000Y-57000000D01*
D59*
%TO.N,/Host Controller/NRST*%
X36800000Y-57000000D02*
X36800000Y-52950000D01*
X36375000Y-57000000D02*
X36800000Y-57000000D01*
X41500000Y-51750000D02*
X41500000Y-52500000D01*
X40750000Y-51000000D02*
X41500000Y-51750000D01*
X38750000Y-51000000D02*
X40750000Y-51000000D01*
X36800000Y-52950000D02*
X38750000Y-51000000D01*
D56*
%TO.N,GND*%
X46524000Y-59752708D02*
X46524000Y-61400000D01*
X46549000Y-59727708D02*
X46524000Y-59752708D01*
X46549000Y-59451000D02*
X46549000Y-59727708D01*
X46800000Y-55000000D02*
X46800000Y-57000000D01*
X38200000Y-54600000D02*
X41400000Y-54600000D01*
X37600000Y-55200000D02*
X38000000Y-54800000D01*
X46400000Y-54600000D02*
X46600000Y-54800000D01*
X46800000Y-59200000D02*
X46700000Y-59300000D01*
X37600000Y-59023292D02*
X37600000Y-57000000D01*
D59*
%TO.N,/Host Controller/OSC_OUT*%
X45250000Y-63562190D02*
X42512500Y-60824690D01*
X45250000Y-64837500D02*
X45250000Y-63562190D01*
X42512500Y-60824690D02*
X42512500Y-60400000D01*
%TO.N,/Host Controller/OSC_OUT_PIN*%
X39750000Y-70250000D02*
X38800000Y-71200000D01*
X42337500Y-70250000D02*
X39750000Y-70250000D01*
%TO.N,/Host Controller/ST67_MISO*%
X39850000Y-68250000D02*
X42337500Y-68250000D01*
X39100000Y-67500000D02*
X39850000Y-68250000D01*
X39000000Y-67500000D02*
X39100000Y-67500000D01*
%TO.N,/Host Controller/ST67_RDY*%
X36450000Y-65250000D02*
X34000000Y-62800000D01*
X38625000Y-65250000D02*
X36450000Y-65250000D01*
X40625000Y-67250000D02*
X38625000Y-65250000D01*
X42337500Y-67250000D02*
X40625000Y-67250000D01*
%TO.N,/Host Controller/ST67_CS*%
X35250000Y-65750000D02*
X34500000Y-65000000D01*
X38274187Y-65750000D02*
X35250000Y-65750000D01*
X40274187Y-67750000D02*
X38274187Y-65750000D01*
X42337500Y-67750000D02*
X40274187Y-67750000D01*
%TO.N,/Host Controller/ST67_MOSI*%
X38050000Y-68750000D02*
X38000000Y-68800000D01*
X42337500Y-68750000D02*
X38050000Y-68750000D01*
%TO.N,/Host Controller/ST67_TX*%
X42337500Y-65137500D02*
X42337500Y-66250000D01*
X38400000Y-63600000D02*
X39400000Y-63600000D01*
X37800000Y-64200000D02*
X38400000Y-63600000D01*
X37800000Y-64400000D02*
X37800000Y-64200000D01*
%TO.N,/Host Controller/SWITCH_2*%
X42337500Y-72262500D02*
X42337500Y-71750000D01*
X41600000Y-72600000D02*
X42000000Y-72600000D01*
X42000000Y-72600000D02*
X42337500Y-72262500D01*
%TO.N,/Host Controller/ST67_BOOT*%
X36200000Y-72000000D02*
X38450000Y-69750000D01*
X38450000Y-69750000D02*
X42337500Y-69750000D01*
%TO.N,/Host Controller/LED2*%
X56161500Y-53001000D02*
X57000000Y-52162500D01*
X53042991Y-53001000D02*
X56161500Y-53001000D01*
X51000000Y-55043991D02*
X53042991Y-53001000D01*
X51000000Y-64500000D02*
X51000000Y-55043991D01*
X50662500Y-64837500D02*
X51000000Y-64500000D01*
X50662500Y-66250000D02*
X50662500Y-64837500D01*
%TO.N,/Host Controller/I2C_SDA*%
X50080000Y-75200000D02*
X51380000Y-76500000D01*
X48000000Y-75200000D02*
X50080000Y-75200000D01*
X47250000Y-74450000D02*
X48000000Y-75200000D01*
X47250000Y-73162500D02*
X47250000Y-74450000D01*
%TO.N,/Host Controller/UCPD_CC2*%
X44750000Y-74350000D02*
X44750000Y-73162500D01*
X44400000Y-74800000D02*
X44750000Y-74350000D01*
%TO.N,/Host Controller/SWITCH_1*%
X43750000Y-73162500D02*
X43750000Y-74250000D01*
X43750000Y-74250000D02*
X43200000Y-74800000D01*
%TO.N,/Host Controller/UCPD_CC1*%
X45250000Y-74350000D02*
X45250000Y-73162500D01*
X45400000Y-74800000D02*
X45250000Y-74350000D01*
%TO.N,GND*%
X48975000Y-62625000D02*
X48975000Y-62250000D01*
X48400000Y-63200000D02*
X48975000Y-62625000D01*
X47580822Y-63200000D02*
X48400000Y-63200000D01*
X47250000Y-64337500D02*
X47250000Y-63530822D01*
X47250000Y-63530822D02*
X47580822Y-63200000D01*
%TO.N,+3.3V*%
X47425000Y-62712190D02*
X47425000Y-62250000D01*
X46750000Y-63387190D02*
X47425000Y-62712190D01*
X46750000Y-64337500D02*
X46750000Y-63387190D01*
D56*
%TO.N,GND*%
X49400000Y-61950000D02*
X49400000Y-61825000D01*
X49700000Y-62250000D02*
X49400000Y-61950000D01*
X49800000Y-62250000D02*
X49700000Y-62250000D01*
%TO.N,+3.3V*%
X52500000Y-60250000D02*
X52600000Y-59400000D01*
X52500000Y-60337500D02*
X52500000Y-60250000D01*
D59*
%TO.N,/Host Controller/UCPD_CC1*%
X98900000Y-71600000D02*
X98900000Y-72350000D01*
X95401000Y-70799000D02*
X98099000Y-70799000D01*
X94800000Y-71400000D02*
X95401000Y-70799000D01*
X98099000Y-70799000D02*
X98900000Y-71600000D01*
D56*
%TO.N,GND*%
X96950000Y-71852727D02*
X96950000Y-72350000D01*
X96672273Y-71575000D02*
X96950000Y-71852727D01*
X96400000Y-71575000D02*
X96672273Y-71575000D01*
D59*
%TO.N,/Host Controller/UCPD_CC2*%
X103576000Y-70824000D02*
X104000000Y-70400000D01*
X101900000Y-71747678D02*
X102823678Y-70824000D01*
X102823678Y-70824000D02*
X103576000Y-70824000D01*
X101900000Y-72350000D02*
X101900000Y-71747678D01*
D56*
%TO.N,GND*%
X103350000Y-71850000D02*
X103350000Y-72350000D01*
X103800000Y-71400000D02*
X103350000Y-71850000D01*
X104800000Y-71400000D02*
X103800000Y-71400000D01*
D60*
%TO.N,/Host Controller/USB-*%
X93000000Y-70950000D02*
X93000000Y-70800000D01*
X92859099Y-70659099D02*
X93318198Y-70200000D01*
X93000000Y-70800000D02*
X92859099Y-70659099D01*
D56*
%TO.N,VBUS*%
X171800000Y-68290000D02*
X171575000Y-68515000D01*
X171800000Y-66400000D02*
X171800000Y-68290000D01*
X171575000Y-68515000D02*
X171575000Y-68800000D01*
X171340000Y-65675000D02*
X171340000Y-65940000D01*
X171340000Y-65940000D02*
X171800000Y-66400000D01*
%TO.N,Net-(U601-FB)*%
X170800000Y-62000000D02*
X171340000Y-62540000D01*
X171340000Y-62540000D02*
X171340000Y-63800000D01*
X167800000Y-62000000D02*
X170800000Y-62000000D01*
X167000000Y-62800000D02*
X167800000Y-62000000D01*
X164800000Y-62800000D02*
X167000000Y-62800000D01*
X164000000Y-63600000D02*
X164800000Y-62800000D01*
X163112500Y-63600000D02*
X164000000Y-63600000D01*
%TO.N,Net-(U601-BOOT)*%
X168535000Y-63400000D02*
X167750000Y-64185000D01*
X169440000Y-63400000D02*
X168535000Y-63400000D01*
%TO.N,/Host Controller/ST67_CHIP_EN*%
X31912500Y-56162500D02*
X31950000Y-56200000D01*
D59*
X33250000Y-58750000D02*
X31870000Y-58750000D01*
X31870000Y-58750000D02*
X31620000Y-59000000D01*
D56*
X31912500Y-54250000D02*
X31912500Y-55962500D01*
X31620000Y-59000000D02*
X31620000Y-57780000D01*
X31620000Y-57780000D02*
X31950000Y-57450000D01*
X31950000Y-57450000D02*
X31950000Y-56200000D01*
%TO.N,VDD*%
X163412500Y-70612500D02*
X165115000Y-70612500D01*
X162200000Y-69400000D02*
X163412500Y-70612500D01*
D57*
X158200000Y-68800000D02*
X162200000Y-72800000D01*
X163200000Y-56800000D02*
X163000000Y-56600000D01*
X158000000Y-66400000D02*
X158200000Y-66600000D01*
D56*
X165115000Y-70612500D02*
X167515000Y-70612500D01*
X162200000Y-67550000D02*
X162200000Y-69400000D01*
D57*
X165300000Y-56950000D02*
X163250000Y-56950000D01*
X158200000Y-66600000D02*
X158200000Y-68800000D01*
D56*
X162162500Y-67512500D02*
X162200000Y-67550000D01*
D57*
X162000000Y-73600000D02*
X162000000Y-72800000D01*
X162200000Y-72600000D02*
X164600000Y-72600000D01*
X163250000Y-56950000D02*
X163200000Y-57000000D01*
D56*
X160200000Y-67512500D02*
X162162500Y-67512500D01*
D57*
X163200000Y-57000000D02*
X163200000Y-56800000D01*
X162000000Y-72800000D02*
X162200000Y-72600000D01*
X163000000Y-56600000D02*
X163000000Y-55050000D01*
X163200000Y-58175000D02*
X163200000Y-57000000D01*
D56*
%TO.N,GND*%
X22000000Y-66621500D02*
X21458500Y-66621500D01*
X35500000Y-61950000D02*
X35500000Y-62750000D01*
X22208500Y-61541500D02*
X22250000Y-61500000D01*
X167515000Y-67235000D02*
X168000000Y-66750000D01*
D59*
X28600000Y-77600000D02*
X27200000Y-77600000D01*
D56*
X23650000Y-56800000D02*
X23200000Y-56800000D01*
X32891500Y-61541500D02*
X34041500Y-61541500D01*
D59*
X47275000Y-76275000D02*
X48500000Y-76275000D01*
D56*
X22250000Y-67000000D02*
X22000000Y-66621500D01*
X32200000Y-67800000D02*
X32141500Y-67891500D01*
X168537500Y-67662500D02*
X167515000Y-67662500D01*
X32141500Y-67891500D02*
X32891500Y-67891500D01*
X34200000Y-67550000D02*
X35500000Y-67550000D01*
X168957224Y-66800000D02*
X168956747Y-66799523D01*
X169850000Y-68800000D02*
X169012500Y-68800000D01*
X167515000Y-67662500D02*
X167515000Y-67235000D01*
X30350000Y-59000000D02*
X30350000Y-57600000D01*
X167600000Y-51800000D02*
X167600000Y-50650000D01*
X32250000Y-61541500D02*
X32891500Y-61541500D01*
X49400000Y-61825000D02*
X48975000Y-62250000D01*
X170025000Y-68800000D02*
X169740000Y-68800000D01*
D59*
X48750000Y-76275000D02*
X48025000Y-76275000D01*
D56*
X169000000Y-67200000D02*
X168537500Y-67662500D01*
X22088500Y-69161500D02*
X22250000Y-69000000D01*
X161200000Y-64600000D02*
X161287500Y-63712500D01*
X161287500Y-63712500D02*
X161287500Y-63600000D01*
X167600000Y-56950000D02*
X167600000Y-51800000D01*
X30050000Y-56200000D02*
X29000000Y-56200000D01*
X30350000Y-59750000D02*
X30350000Y-59000000D01*
X165115000Y-67535003D02*
X165800000Y-66850003D01*
X165115000Y-67115000D02*
X164800000Y-66800000D01*
X167600000Y-50650000D02*
X164550000Y-50650000D01*
X167515000Y-67662500D02*
X167515000Y-67265000D01*
X24050000Y-57200000D02*
X23650000Y-56800000D01*
D59*
X60937500Y-50250000D02*
X62000000Y-50250000D01*
D56*
X169000000Y-66800000D02*
X168957224Y-66800000D01*
X169740000Y-68800000D02*
X168956747Y-68016747D01*
D59*
X31775000Y-76275000D02*
X32750000Y-77250000D01*
D56*
X93000000Y-73200000D02*
X93000000Y-74250000D01*
X172200000Y-53200000D02*
X172200000Y-52150000D01*
X169440000Y-65675000D02*
X169000000Y-66115000D01*
D59*
X27200000Y-77600000D02*
X26000000Y-77600000D01*
D56*
X169565000Y-69085000D02*
X169850000Y-68800000D01*
X169012500Y-68800000D02*
X169000000Y-68812500D01*
X21458500Y-61541500D02*
X22208500Y-61541500D01*
X55750000Y-56675000D02*
X57075000Y-56675000D01*
X172200000Y-52150000D02*
X170700000Y-50650000D01*
X165115000Y-67662500D02*
X165115000Y-67535003D01*
X30350000Y-57600000D02*
X30050000Y-57300000D01*
X21458500Y-69161500D02*
X22088500Y-69161500D01*
X30050000Y-57300000D02*
X30050000Y-56000000D01*
X34041500Y-61541500D02*
X34450000Y-61950000D01*
X49400000Y-60500000D02*
X49400000Y-61825000D01*
X33858500Y-67891500D02*
X34200000Y-67550000D01*
X169565000Y-70600000D02*
X169565000Y-69085000D01*
D59*
X47200000Y-76200000D02*
X47275000Y-76275000D01*
D56*
X163000000Y-52200000D02*
X163000000Y-53150000D01*
X103000000Y-69950000D02*
X102849756Y-70150000D01*
X102849756Y-70150000D02*
X102050000Y-70150000D01*
X34450000Y-61950000D02*
X35500000Y-61950000D01*
D59*
X31250000Y-76275000D02*
X31775000Y-76275000D01*
D56*
X170700000Y-50650000D02*
X167600000Y-50650000D01*
X165115000Y-67662500D02*
X165115000Y-67115000D01*
D59*
X26000000Y-77600000D02*
X23400000Y-77600000D01*
D56*
X35500000Y-67550000D02*
X35500000Y-66750000D01*
X32891500Y-67891500D02*
X33858500Y-67891500D01*
X164550000Y-50650000D02*
X163000000Y-52200000D01*
X167515000Y-67265000D02*
X167000000Y-66750000D01*
X168956747Y-68016747D02*
X168956747Y-66799523D01*
X169000000Y-66115000D02*
X169000000Y-66800000D01*
X165115000Y-67662500D02*
X167515000Y-67662500D01*
%TO.N,Net-(U601-SW)*%
X170390000Y-65675000D02*
X170390000Y-66427783D01*
X165000000Y-64600000D02*
X165415000Y-64185000D01*
X170006685Y-66811098D02*
X170787389Y-66811098D01*
X172800001Y-73400000D02*
X173599999Y-73400000D01*
X170390000Y-65675000D02*
X170390000Y-66413709D01*
X170800000Y-67600000D02*
X170800000Y-66823709D01*
X170006685Y-67601968D02*
X169997604Y-67611049D01*
X170788951Y-67611049D02*
X170800000Y-67600000D01*
X173600002Y-74200000D02*
X173600002Y-73399999D01*
X170390000Y-66427783D02*
X170006685Y-66811098D01*
X169997604Y-67611049D02*
X170788951Y-67611049D01*
X172800002Y-73399997D02*
X172800002Y-74200000D01*
X170390000Y-66413709D02*
X170800000Y-66823709D01*
X170006685Y-66811098D02*
X170006685Y-67601968D01*
X172800001Y-74200003D02*
X173600001Y-74200003D01*
X170787389Y-66811098D02*
X170800000Y-66823709D01*
X173600002Y-73823551D02*
X173600000Y-73823549D01*
X165415000Y-64185000D02*
X165850000Y-64185000D01*
%TO.N,VBUS*%
X172800000Y-70600000D02*
X173000000Y-70600000D01*
X173000000Y-70600000D02*
X171465000Y-70600000D01*
%TO.N,Net-(U601-FB)*%
X163112500Y-64737500D02*
X162200000Y-65650000D01*
X163112500Y-63600000D02*
X163112500Y-64737500D01*
X162162500Y-65687500D02*
X162200000Y-65650000D01*
X160200000Y-65687500D02*
X162162500Y-65687500D01*
D60*
%TO.N,/Host Controller/USB-*%
X100400000Y-71925000D02*
X100400000Y-72350000D01*
X93318198Y-70200000D02*
X99112106Y-70200000D01*
X99400000Y-71741176D02*
X100032077Y-71109099D01*
X99112106Y-70200000D02*
X99588106Y-70676000D01*
X100425000Y-71493198D02*
X100425000Y-71900000D01*
X99400000Y-72350000D02*
X99400000Y-71741176D01*
X100040901Y-71109099D02*
X100425000Y-71493198D01*
X99588106Y-70676000D02*
X99607802Y-70676000D01*
X99607802Y-70676000D02*
X100040901Y-71109099D01*
X100032077Y-71109099D02*
X100040901Y-71109099D01*
X100425000Y-71900000D02*
X100400000Y-71925000D01*
%TO.N,/Host Controller/USB+*%
X99900000Y-72958824D02*
X100167176Y-73226000D01*
X100167176Y-73226000D02*
X100724000Y-73226000D01*
X99900000Y-72350000D02*
X99900000Y-72958824D01*
X100724000Y-73226000D02*
X100900000Y-73050000D01*
X100900000Y-73050000D02*
X100900000Y-72350000D01*
D59*
%TO.N,Net-(D301-K)*%
X52337500Y-50337500D02*
X52250000Y-50250000D01*
X52300000Y-50200000D02*
X52250000Y-50250000D01*
X54400000Y-50200000D02*
X52300000Y-50200000D01*
%TO.N,Net-(D302-K)*%
X57000000Y-50337500D02*
X58162500Y-50337500D01*
X59062500Y-50250000D02*
X58250000Y-50250000D01*
X58162500Y-50337500D02*
X58250000Y-50250000D01*
%TO.N,/Host Controller/LOW_POWER_ENABLE*%
X90575221Y-74400000D02*
X90575221Y-75375221D01*
X90575221Y-75375221D02*
X93574000Y-78374000D01*
X93574000Y-78374000D02*
X111226000Y-78374000D01*
X111226000Y-78374000D02*
X112540000Y-77060000D01*
X60150002Y-57200000D02*
X59450000Y-57200000D01*
X112540000Y-77060000D02*
X112540000Y-76115000D01*
%TO.N,/Display/LED_BRIGHTNESS*%
X57127500Y-60622500D02*
X57337500Y-60412500D01*
X56000000Y-63377500D02*
X57127500Y-62250000D01*
X57175000Y-60250000D02*
X57337500Y-60412500D01*
X57127500Y-62250000D02*
X57127500Y-60622500D01*
X56000000Y-63800000D02*
X56000000Y-63377500D01*
X58250000Y-60412500D02*
X57337500Y-60412500D01*
X56412500Y-60250000D02*
X57175000Y-60250000D01*
X54800000Y-65000000D02*
X56000000Y-63800000D01*
D56*
%TO.N,/VBUS_IN*%
X98200000Y-73550000D02*
X97750000Y-73056860D01*
X102550000Y-73056860D02*
X102550000Y-72350000D01*
D57*
X98300000Y-74401532D02*
X101098468Y-74401532D01*
D56*
X98400000Y-73750000D02*
X98200000Y-73550000D01*
X98400000Y-74301532D02*
X98300000Y-74401532D01*
X98400000Y-73750000D02*
X98400000Y-74301532D01*
X101098468Y-74401532D02*
X101205328Y-74401532D01*
X97750000Y-73056860D02*
X97750000Y-72350000D01*
D57*
X101205328Y-74401532D02*
X101903430Y-73703430D01*
D59*
%TO.N,Net-(Q506-E)*%
X53400000Y-54800000D02*
X54600000Y-56000000D01*
X53183333Y-54616667D02*
X53400000Y-54800000D01*
%TO.N,Net-(Q701-D)*%
X58250000Y-58250000D02*
X58500000Y-58000000D01*
X55750000Y-58500000D02*
X55837500Y-58587500D01*
X58500000Y-58000000D02*
X58500000Y-56937500D01*
X55837500Y-58587500D02*
X58250000Y-58587500D01*
X58250000Y-58587500D02*
X58250000Y-58250000D01*
%TO.N,Net-(R306-Pad2)*%
X39000000Y-76275000D02*
X39000000Y-77000000D01*
X39000000Y-77000000D02*
X38750000Y-77250000D01*
%TO.N,Net-(R307-Pad2)*%
X40750000Y-77000000D02*
X41000000Y-77250000D01*
X40750000Y-76275000D02*
X40750000Y-77000000D01*
%TO.N,Net-(R701-Pad2)*%
X53500000Y-62250000D02*
X54587500Y-62250000D01*
X53412500Y-62162500D02*
X53500000Y-62250000D01*
X52500000Y-62162500D02*
X53412500Y-62162500D01*
%TO.N,/Host Controller/ST67_RDY*%
X26540000Y-58210000D02*
X26540000Y-59000000D01*
X27000000Y-57750000D02*
X26540000Y-58210000D01*
%TO.N,/Host Controller/ST67_BOOT*%
X25270000Y-71270000D02*
X26000000Y-72000000D01*
X26000000Y-72000000D02*
X36200000Y-72000000D01*
X25270000Y-70433000D02*
X25270000Y-71270000D01*
%TO.N,/Host Controller/ST67_CS*%
X22730000Y-59480000D02*
X23250000Y-60000000D01*
X22730000Y-59000000D02*
X22730000Y-59480000D01*
D57*
%TO.N,+3.3V*%
X172200000Y-56200000D02*
X172000000Y-56400000D01*
D56*
X171800000Y-56950000D02*
X171950000Y-56950000D01*
D57*
X35500000Y-70800000D02*
X35500000Y-69450000D01*
D56*
X47425000Y-61275000D02*
X47425000Y-62250000D01*
D57*
X172000000Y-56400000D02*
X172000000Y-57600000D01*
X172200000Y-55100000D02*
X172200000Y-56200000D01*
D59*
X26000000Y-74400000D02*
X26400000Y-74000000D01*
D56*
X21450000Y-55600000D02*
X21250000Y-55800000D01*
X29000000Y-54250000D02*
X30087500Y-54250000D01*
X169900000Y-56950000D02*
X169800000Y-57050000D01*
D57*
X35500000Y-58750000D02*
X35500000Y-60050000D01*
D56*
X169900000Y-56500000D02*
X169900000Y-56950000D01*
D59*
X23400000Y-74400000D02*
X23800000Y-74000000D01*
D56*
X34450000Y-60050000D02*
X35500000Y-60050000D01*
D59*
X26000000Y-75000000D02*
X26000000Y-74400000D01*
D57*
X169900000Y-56950000D02*
X171800000Y-56950000D01*
D56*
X21300000Y-57883000D02*
X21458500Y-58041500D01*
D59*
X46750000Y-65644178D02*
X47105822Y-66000000D01*
X28600000Y-75000000D02*
X28600000Y-74600000D01*
D56*
X169800000Y-57050000D02*
X169800000Y-58000000D01*
D59*
X47750000Y-65750000D02*
X47750000Y-64837500D01*
D56*
X47876000Y-59324000D02*
X47500000Y-59700000D01*
D59*
X46750000Y-64337500D02*
X46750000Y-65144178D01*
D56*
X34228500Y-60271500D02*
X34450000Y-60050000D01*
X47500000Y-59700000D02*
X47500000Y-60500000D01*
X21250000Y-56750000D02*
X21300000Y-56800000D01*
D59*
X23400000Y-75000000D02*
X23400000Y-74400000D01*
D56*
X33911500Y-69161500D02*
X34200000Y-69450000D01*
X169800000Y-58000000D02*
X169200000Y-58600000D01*
D59*
X28600000Y-74600000D02*
X29000000Y-74200000D01*
D56*
X21450000Y-55400000D02*
X21450000Y-55600000D01*
X34200000Y-69450000D02*
X35500000Y-69450000D01*
X169200000Y-58600000D02*
X166600000Y-58600000D01*
X172000000Y-57000000D02*
X172000000Y-57600000D01*
X21250000Y-55800000D02*
X21250000Y-56750000D01*
X32891500Y-60271500D02*
X34228500Y-60271500D01*
X47500000Y-61200000D02*
X47425000Y-61275000D01*
X166600000Y-58600000D02*
X166400000Y-58400000D01*
X32891500Y-69161500D02*
X33911500Y-69161500D01*
X52587500Y-60250000D02*
X52500000Y-60337500D01*
X21300000Y-56800000D02*
X21300000Y-57883000D01*
D59*
X47500000Y-66000000D02*
X47750000Y-65750000D01*
D56*
X168800000Y-55600000D02*
X169000000Y-55600000D01*
X171950000Y-56950000D02*
X172000000Y-57000000D01*
X47500000Y-60500000D02*
X47500000Y-61200000D01*
D59*
X47105822Y-66000000D02*
X47500000Y-66000000D01*
D56*
X21458500Y-60271500D02*
X21458500Y-58041500D01*
X169000000Y-55600000D02*
X169900000Y-56500000D01*
X54587500Y-60250000D02*
X52587500Y-60250000D01*
D59*
%TO.N,/Host Controller/ST67_SCK*%
X23250000Y-64750000D02*
X22581500Y-64081500D01*
X22581500Y-64081500D02*
X21458500Y-64081500D01*
%TO.N,/Host Controller/ST67_TX*%
X26250000Y-60000000D02*
X24500000Y-60000000D01*
X24500000Y-60000000D02*
X24000000Y-59500000D01*
X24000000Y-59500000D02*
X24000000Y-59000000D01*
%TO.N,/Host Controller/ST67_MISO*%
X23400000Y-68200000D02*
X23400000Y-66786750D01*
X23400000Y-66786750D02*
X21964750Y-65351500D01*
X21964750Y-65351500D02*
X21458500Y-65351500D01*
%TO.N,/Host Controller/ST67_MOSI*%
X21458500Y-62811500D02*
X22061500Y-62811500D01*
X22061500Y-62811500D02*
X22500000Y-63250000D01*
D57*
%TO.N,/Display/VDD_DIG3*%
X130890000Y-60190000D02*
X130890000Y-56290000D01*
X130890000Y-56290000D02*
X130800000Y-56200000D01*
%TO.N,/Display/VDD_DIG4*%
X86600000Y-74790000D02*
X86620000Y-74810000D01*
X198760000Y-74810000D02*
X198760000Y-70760000D01*
X196800000Y-64000000D02*
X198760000Y-62040000D01*
X196800000Y-68800000D02*
X196800000Y-64000000D01*
X198760000Y-70760000D02*
X196800000Y-68800000D01*
X198760000Y-62040000D02*
X198760000Y-60810000D01*
%TO.N,/Display/VDD_DIG5*%
X156825215Y-56025215D02*
X153750000Y-59100430D01*
X153750000Y-59100430D02*
X153750000Y-60190000D01*
X135970000Y-55370000D02*
X135970000Y-60190000D01*
X135800000Y-54600000D02*
X135970000Y-55370000D01*
D59*
%TO.N,/Display/SCT_CLK_F*%
X97950000Y-59950000D02*
X98287500Y-59950000D01*
X97600000Y-59600000D02*
X97950000Y-59950000D01*
X97600000Y-58400000D02*
X97600000Y-59600000D01*
%TO.N,/Host Controller/VOLTAGE_SENS_FLTR*%
X46750000Y-69500000D02*
X46250000Y-69000000D01*
X46750000Y-72662500D02*
X46750000Y-69500000D01*
%TO.N,/Host Controller/CURRENT_SENSE_FLTR*%
X46250000Y-71750000D02*
X45750000Y-71250000D01*
X46250000Y-72662500D02*
X46250000Y-71750000D01*
%TO.N,/Display/SCT_CLK_F*%
X103800000Y-66200000D02*
X103702000Y-66302000D01*
%TD*%
%TA.AperFunction,Conductor*%
%TO.N,GND*%
G36*
X169542679Y-65018500D02*
G01*
X169588616Y-65071145D01*
X169600000Y-65123046D01*
X169600000Y-66148511D01*
X169580315Y-66215550D01*
X169563529Y-66236344D01*
X169200000Y-66598616D01*
X169200000Y-66598617D01*
X169200000Y-68198617D01*
X169600000Y-68598617D01*
X170076000Y-68598617D01*
X170143039Y-68618302D01*
X170188794Y-68671106D01*
X170200000Y-68722617D01*
X170200000Y-71274617D01*
X170180315Y-71341656D01*
X170127511Y-71387411D01*
X170076000Y-71398617D01*
X169124000Y-71398617D01*
X169056961Y-71378932D01*
X169011206Y-71326128D01*
X169000000Y-71274617D01*
X169000000Y-69798617D01*
X168999999Y-69798616D01*
X168200000Y-68798617D01*
X163624330Y-68810786D01*
X163557238Y-68791279D01*
X163511343Y-68738597D01*
X163500000Y-68686786D01*
X163500000Y-66362479D01*
X163519685Y-66295440D01*
X163536319Y-66274798D01*
X163963681Y-65847436D01*
X164025004Y-65813951D01*
X164051362Y-65811117D01*
X166500011Y-65811117D01*
X166998440Y-65798656D01*
X167001539Y-65798617D01*
X168600001Y-65798617D01*
X168600001Y-65798616D01*
X168745300Y-65605217D01*
X169162959Y-65049301D01*
X169166355Y-65046768D01*
X169168103Y-65042907D01*
X169194120Y-65026059D01*
X169218964Y-65007528D01*
X169224203Y-65006578D01*
X169226750Y-65004929D01*
X169261662Y-64999786D01*
X169475572Y-64999047D01*
X169542679Y-65018500D01*
G37*
%TD.AperFunction*%
%TD*%
%TA.AperFunction,Conductor*%
%TO.N,VDD*%
G36*
X168015677Y-69819685D02*
G01*
X168036319Y-69836319D01*
X168563681Y-70363681D01*
X168597166Y-70425004D01*
X168600000Y-70451362D01*
X168600000Y-71548638D01*
X168580315Y-71615677D01*
X168563681Y-71636319D01*
X166800000Y-73399999D01*
X166800000Y-77076000D01*
X166780315Y-77143039D01*
X166727511Y-77188794D01*
X166676000Y-77200000D01*
X163724000Y-77200000D01*
X163656961Y-77180315D01*
X163611206Y-77127511D01*
X163600000Y-77076000D01*
X163600000Y-69924000D01*
X163619685Y-69856961D01*
X163672489Y-69811206D01*
X163724000Y-69800000D01*
X167948638Y-69800000D01*
X168015677Y-69819685D01*
G37*
%TD.AperFunction*%
%TD*%
%TA.AperFunction,Conductor*%
%TO.N,Net-(U601-SW)*%
G36*
X173943039Y-73019685D02*
G01*
X173988794Y-73072489D01*
X174000000Y-73124000D01*
X174000000Y-74676000D01*
X173980315Y-74743039D01*
X173927511Y-74788794D01*
X173876000Y-74800000D01*
X173200000Y-74800000D01*
X172624920Y-76908627D01*
X172588289Y-76968124D01*
X172525307Y-76998373D01*
X172505289Y-77000000D01*
X172124000Y-77000000D01*
X172056961Y-76980315D01*
X172011206Y-76927511D01*
X172000000Y-76876000D01*
X172000000Y-73451362D01*
X172019685Y-73384323D01*
X172036319Y-73363681D01*
X172363681Y-73036319D01*
X172425004Y-73002834D01*
X172451362Y-73000000D01*
X173876000Y-73000000D01*
X173943039Y-73019685D01*
G37*
%TD.AperFunction*%
%TD*%
%TA.AperFunction,Conductor*%
%TO.N,VBUS*%
G36*
X173343039Y-65019685D02*
G01*
X173388794Y-65072489D01*
X173400000Y-65124000D01*
X173400000Y-72176000D01*
X173380315Y-72243039D01*
X173327511Y-72288794D01*
X173276000Y-72300000D01*
X172051362Y-72300000D01*
X171984323Y-72280315D01*
X171963681Y-72263681D01*
X170836319Y-71136319D01*
X170802834Y-71074996D01*
X170800000Y-71048638D01*
X170800000Y-68451362D01*
X170819685Y-68384323D01*
X170836319Y-68363681D01*
X171400000Y-67800000D01*
X171400000Y-66600000D01*
X171036319Y-66236319D01*
X171002834Y-66174996D01*
X171000000Y-66148638D01*
X171000000Y-65124000D01*
X171019685Y-65056961D01*
X171072489Y-65011206D01*
X171124000Y-65000000D01*
X173276000Y-65000000D01*
X173343039Y-65019685D01*
G37*
%TD.AperFunction*%
%TD*%
M02*
