M48
; DRILL file {KiCad 9.0.7} date 2026-06-28T12:00:33+0200
; FORMAT={-:-/ absolute / metric / decimal}
; #@! TF.CreationDate,2026-06-28T12:00:33+02:00
; #@! TF.GenerationSoftware,Kicad,Pcbnew,9.0.7
; #@! TF.FileFunction,Plated,1,6,PTH
FMAT,2
METRIC
; #@! TA.AperFunction,Plated,PTH,ViaDrill
T1C0.400
; #@! TA.AperFunction,Plated,PTH,ViaDrill
T2C0.500
; #@! TA.AperFunction,Plated,PTH,ComponentDrill
T3C0.600
; #@! TA.AperFunction,Plated,PTH,ComponentDrill
T4C0.750
; #@! TA.AperFunction,Plated,PTH,ViaDrill
T5C0.800
; #@! TA.AperFunction,Plated,PTH,ComponentDrill
T6C0.800
; #@! TA.AperFunction,Plated,PTH,ComponentDrill
T7C1.000
%
G90
G05
T1
X22.25Y-61.5
X22.25Y-67.0
X22.25Y-69.0
X22.5Y-63.25
X22.8Y-62.4
X23.25Y-60.0
X23.25Y-64.75
X23.4Y-63.8
X23.4Y-68.2
X23.6Y-69.2
X23.8Y-74.0
X24.05Y-57.2
X24.6Y-77.6
X25.0Y-57.75
X26.25Y-60.0
X26.4Y-74.0
X27.0Y-57.75
X27.0Y-60.6
X27.2Y-77.6
X29.0Y-56.2
X29.0Y-74.2
X30.35Y-59.75
X32.2Y-67.8
X32.25Y-61.541
X32.75Y-77.25
X33.25Y-58.75
X34.0Y-57.0
X34.0Y-62.8
X34.5Y-65.0
X37.0Y-75.0
X37.6Y-57.0
X37.8Y-64.4
X37.8Y-67.8
X37.988Y-59.412
X38.0Y-54.8
X38.0Y-62.75
X38.0Y-68.8
X38.2Y-66.8
X38.75Y-77.25
X38.8Y-64.4
X38.988Y-60.412
X39.0Y-67.5
X40.0Y-65.0
X40.577Y-62.0
X40.933Y-65.0
X41.0Y-77.25
X41.4Y-54.6
X41.6Y-72.6
X42.6Y-62.0
X42.8Y-64.4
X43.2Y-74.8
X43.8Y-54.6
X44.4Y-74.8
X45.4Y-74.8
X45.75Y-71.25
X45.8Y-66.25
X46.25Y-69.0
X46.257Y-62.691
X46.3Y-67.4
X46.524Y-61.4
X46.6Y-54.8
X46.7Y-59.3
X46.8Y-57.0
X47.0Y-66.8
X47.2Y-76.2
X48.3Y-66.6
X49.2Y-66.6
X49.9Y-76.0
X52.25Y-50.25
X53.183Y-54.617
X54.6Y-56.0
X56.5Y-54.0
X60.15Y-57.2
X61.2Y-57.6
X61.4Y-73.65
X61.5Y-58.75
X61.9Y-57.0
X62.0Y-50.25
X62.25Y-60.25
X62.8Y-74.6
X62.9Y-61.1
X63.0Y-59.6
X65.0Y-65.4
X65.672Y-58.372
X66.2Y-57.6
X67.1Y-56.7
X88.25Y-67.0
X90.575Y-74.4
X92.75Y-68.175
X94.25Y-64.5
X94.8Y-71.4
X96.7Y-55.4
X97.2Y-53.8
X97.4Y-62.4
X97.6Y-52.9
X97.7Y-55.6
X98.1Y-68.2
X98.287Y-59.95
X98.4Y-59.0
X98.7Y-53.3
X98.7Y-54.2
X98.8Y-67.6
X99.05Y-58.35
X99.143Y-55.0
X99.787Y-59.546
X99.8Y-68.2
X100.0Y-55.6
X100.8Y-59.205
X101.2Y-65.2
X102.3Y-68.2
X103.1Y-65.3
X103.6Y-69.0
X103.8Y-66.2
X104.0Y-70.4
X104.6Y-66.7
X105.75Y-74.5
X113.8Y-53.4
X124.0Y-62.8
X129.4Y-64.2
X137.4Y-57.3
X146.0Y-57.6
X150.8Y-58.4
X165.0Y-64.6
X169.998Y-67.6
X170.007Y-66.8
X170.8Y-66.813
X170.8Y-67.589
X172.2Y-71.8
X172.8Y-73.44
X172.8Y-74.24
X173.1Y-71.8
X173.3Y-56.4
X173.6Y-61.0
X173.6Y-73.44
X173.6Y-74.24
X174.1Y-55.9
X175.0Y-56.7
X175.7Y-56.1
X176.6Y-56.3
T2
X21.45Y-55.4
X29.0Y-54.25
X35.5Y-62.75
X35.5Y-66.75
X39.6Y-55.5
X44.0Y-66.75
X45.2Y-59.2
X47.876Y-59.324
X49.8Y-62.25
X52.6Y-59.4
X54.025Y-72.8
X54.2Y-54.0
X57.0Y-57.6
X58.4Y-72.8
X61.2Y-77.8
X63.7Y-53.0
X63.7Y-54.4
X64.3Y-56.3
X67.3Y-61.2
X90.84Y-70.64
X91.25Y-51.0
X92.743Y-58.163
X93.0Y-51.0
X93.0Y-74.25
X93.25Y-60.75
X94.2Y-56.4
X94.25Y-61.487
X94.437Y-50.687
X96.4Y-71.575
X102.0Y-54.4
X103.0Y-69.95
X103.8Y-53.8
X104.7Y-53.2
X104.8Y-71.4
X106.2Y-58.8
X107.2Y-56.0
X108.6Y-66.0
X124.4Y-59.2
X128.0Y-64.6
X128.95Y-57.75
X129.79Y-58.807
X161.2Y-64.6
X161.763Y-57.363
X164.8Y-66.417
X165.6Y-51.8
X165.8Y-61.8
X165.8Y-66.467
X166.4Y-58.4
X167.0Y-66.367
X167.6Y-51.8
X168.0Y-66.367
X168.8Y-55.6
X168.957Y-66.816
X169.0Y-68.829
X169.6Y-51.6
T3
X24.975Y-63.517
X24.975Y-65.916
X26.175Y-62.517
X26.175Y-66.916
X28.175Y-62.517
X28.175Y-66.916
X29.375Y-63.517
X29.375Y-65.716
T4
X39.5Y-52.5
X41.5Y-52.5
X43.5Y-52.5
X45.5Y-52.5
X47.5Y-52.5
X49.5Y-52.5
T5
X35.5Y-58.75
X35.5Y-70.8
X59.25Y-52.25
X66.6Y-66.6
X84.0Y-66.8
X88.868Y-56.487
X96.36Y-59.8
X98.3Y-74.402
X101.0Y-68.2
X113.0Y-56.2
X118.2Y-54.6
X130.8Y-56.2
X135.8Y-54.6
X156.825Y-56.025
X158.0Y-66.4
X163.2Y-58.175
X171.4Y-56.0
X172.8Y-70.6
X175.0Y-67.4
T6
X54.587Y-62.25
X57.127Y-62.25
X68.8Y-53.19
X68.8Y-60.81
X68.84Y-67.19
X68.84Y-74.81
X71.34Y-53.19
X71.34Y-60.81
X71.38Y-67.19
X71.38Y-74.81
X73.88Y-53.19
X73.88Y-60.81
X73.92Y-67.19
X73.92Y-74.81
X76.42Y-53.19
X76.42Y-60.81
X76.46Y-67.19
X76.46Y-74.81
X78.96Y-53.19
X78.96Y-60.81
X79.0Y-67.19
X79.0Y-74.81
X81.5Y-53.19
X81.5Y-60.81
X81.54Y-67.19
X81.54Y-74.81
X84.04Y-60.81
X84.08Y-74.81
X86.58Y-53.19
X86.58Y-60.81
X86.62Y-67.19
X86.62Y-74.81
X107.98Y-60.19
X107.98Y-67.81
X110.52Y-60.19
X110.52Y-67.81
X113.06Y-60.19
X113.06Y-67.81
X115.6Y-60.19
X115.6Y-67.81
X118.14Y-60.19
X118.14Y-67.81
X120.68Y-60.19
X120.68Y-67.81
X125.81Y-60.19
X125.81Y-67.81
X128.35Y-60.19
X128.35Y-67.81
X130.89Y-60.19
X130.89Y-67.81
X133.43Y-60.19
X133.43Y-67.81
X135.97Y-60.19
X135.97Y-67.81
X138.51Y-60.19
X138.51Y-67.81
X143.59Y-60.19
X143.59Y-67.81
X146.13Y-60.19
X146.13Y-67.81
X148.67Y-60.19
X148.67Y-67.81
X151.21Y-60.19
X151.21Y-67.81
X153.75Y-60.19
X153.75Y-67.81
X156.29Y-60.19
X156.29Y-67.81
X180.98Y-53.19
X180.98Y-60.81
X180.98Y-67.19
X180.98Y-74.81
X183.52Y-53.19
X183.52Y-60.81
X183.52Y-67.19
X183.52Y-74.81
X186.06Y-53.19
X186.06Y-60.81
X186.06Y-67.19
X186.06Y-74.81
X188.6Y-53.19
X188.6Y-60.81
X188.6Y-67.19
X188.6Y-74.81
X191.14Y-53.19
X191.14Y-60.81
X191.14Y-67.19
X191.14Y-74.81
X193.68Y-53.19
X193.68Y-60.81
X193.68Y-67.19
X193.68Y-74.81
X196.22Y-60.81
X196.22Y-74.81
X198.76Y-53.19
X198.76Y-60.81
X198.76Y-67.19
X198.76Y-74.81
T7
X51.38Y-76.5
X53.92Y-76.5
X56.46Y-76.5
X59.0Y-76.5
X97.735Y-76.25
X100.275Y-76.25
X110.0Y-52.0
X110.0Y-76.115
X112.54Y-52.0
X112.54Y-76.115
X115.08Y-52.0
X115.08Y-76.115
X117.62Y-52.0
X117.62Y-76.115
X120.16Y-52.0
X120.16Y-76.115
X122.7Y-52.0
X122.7Y-76.115
X125.24Y-52.0
X125.24Y-76.115
X127.78Y-52.0
X127.78Y-76.115
X130.32Y-52.0
X130.32Y-76.115
X132.86Y-52.0
X132.86Y-76.115
M30
