%TF.GenerationSoftware,KiCad,Pcbnew,9.0.7*%
%TF.CreationDate,2026-06-28T12:00:23+02:00*%
%TF.ProjectId,AstroWeather,41737472-6f57-4656-9174-6865722e6b69,rev?*%
%TF.SameCoordinates,Original*%
%TF.FileFunction,Copper,L6,Bot*%
%TF.FilePolarity,Positive*%
%FSLAX46Y46*%
G04 Gerber Fmt 4.6, Leading zero omitted, Abs format (unit mm)*
G04 Created by KiCad (PCBNEW 9.0.7) date 2026-06-28 12:00:23*
%MOMM*%
%LPD*%
G01*
G04 APERTURE LIST*
G04 Aperture macros list*
%AMRoundRect*
0 Rectangle with rounded corners*
0 $1 Rounding radius*
0 $2 $3 $4 $5 $6 $7 $8 $9 X,Y pos of 4 corners*
0 Add a 4 corners polygon primitive as box body*
4,1,4,$2,$3,$4,$5,$6,$7,$8,$9,$2,$3,0*
0 Add four circle primitives for the rounded corners*
1,1,$1+$1,$2,$3*
1,1,$1+$1,$4,$5*
1,1,$1+$1,$6,$7*
1,1,$1+$1,$8,$9*
0 Add four rect primitives between the rounded corners*
20,1,$1+$1,$2,$3,$4,$5,0*
20,1,$1+$1,$4,$5,$6,$7,0*
20,1,$1+$1,$6,$7,$8,$9,0*
20,1,$1+$1,$8,$9,$2,$3,0*%
G04 Aperture macros list end*
%TA.AperFunction,ComponentPad*%
%ADD10R,1.500000X1.500000*%
%TD*%
%TA.AperFunction,ComponentPad*%
%ADD11C,1.500000*%
%TD*%
%TA.AperFunction,ComponentPad*%
%ADD12R,1.700000X1.700000*%
%TD*%
%TA.AperFunction,ComponentPad*%
%ADD13C,1.700000*%
%TD*%
%TA.AperFunction,HeatsinkPad*%
%ADD14C,1.000000*%
%TD*%
%TA.AperFunction,ComponentPad*%
%ADD15C,1.600000*%
%TD*%
%TA.AperFunction,ComponentPad*%
%ADD16RoundRect,0.250000X0.350000X0.625000X-0.350000X0.625000X-0.350000X-0.625000X0.350000X-0.625000X0*%
%TD*%
%TA.AperFunction,ComponentPad*%
%ADD17O,1.200000X1.750000*%
%TD*%
%TA.AperFunction,SMDPad,CuDef*%
%ADD18RoundRect,0.250000X-0.262500X-0.450000X0.262500X-0.450000X0.262500X0.450000X-0.262500X0.450000X0*%
%TD*%
%TA.AperFunction,SMDPad,CuDef*%
%ADD19RoundRect,0.250000X-0.450000X0.262500X-0.450000X-0.262500X0.450000X-0.262500X0.450000X0.262500X0*%
%TD*%
%TA.AperFunction,SMDPad,CuDef*%
%ADD20RoundRect,0.250000X0.475000X-0.250000X0.475000X0.250000X-0.475000X0.250000X-0.475000X-0.250000X0*%
%TD*%
%TA.AperFunction,SMDPad,CuDef*%
%ADD21RoundRect,0.150000X0.150000X-0.512500X0.150000X0.512500X-0.150000X0.512500X-0.150000X-0.512500X0*%
%TD*%
%TA.AperFunction,SMDPad,CuDef*%
%ADD22RoundRect,0.150000X-0.512500X-0.150000X0.512500X-0.150000X0.512500X0.150000X-0.512500X0.150000X0*%
%TD*%
%TA.AperFunction,SMDPad,CuDef*%
%ADD23RoundRect,0.225000X0.225000X0.250000X-0.225000X0.250000X-0.225000X-0.250000X0.225000X-0.250000X0*%
%TD*%
%TA.AperFunction,SMDPad,CuDef*%
%ADD24R,1.200000X0.400000*%
%TD*%
%TA.AperFunction,SMDPad,CuDef*%
%ADD25RoundRect,0.250000X0.650000X-1.000000X0.650000X1.000000X-0.650000X1.000000X-0.650000X-1.000000X0*%
%TD*%
%TA.AperFunction,SMDPad,CuDef*%
%ADD26RoundRect,0.200000X-0.275000X0.200000X-0.275000X-0.200000X0.275000X-0.200000X0.275000X0.200000X0*%
%TD*%
%TA.AperFunction,SMDPad,CuDef*%
%ADD27C,1.500000*%
%TD*%
%TA.AperFunction,SMDPad,CuDef*%
%ADD28RoundRect,0.150000X-0.150000X0.587500X-0.150000X-0.587500X0.150000X-0.587500X0.150000X0.587500X0*%
%TD*%
%TA.AperFunction,SMDPad,CuDef*%
%ADD29RoundRect,0.225000X-0.250000X0.225000X-0.250000X-0.225000X0.250000X-0.225000X0.250000X0.225000X0*%
%TD*%
%TA.AperFunction,SMDPad,CuDef*%
%ADD30RoundRect,0.250000X-0.250000X-0.475000X0.250000X-0.475000X0.250000X0.475000X-0.250000X0.475000X0*%
%TD*%
%TA.AperFunction,SMDPad,CuDef*%
%ADD31RoundRect,0.250000X-0.312500X-0.625000X0.312500X-0.625000X0.312500X0.625000X-0.312500X0.625000X0*%
%TD*%
%TA.AperFunction,SMDPad,CuDef*%
%ADD32RoundRect,0.250000X0.250000X0.475000X-0.250000X0.475000X-0.250000X-0.475000X0.250000X-0.475000X0*%
%TD*%
%TA.AperFunction,SMDPad,CuDef*%
%ADD33RoundRect,0.250000X0.450000X-0.262500X0.450000X0.262500X-0.450000X0.262500X-0.450000X-0.262500X0*%
%TD*%
%TA.AperFunction,SMDPad,CuDef*%
%ADD34RoundRect,0.250000X0.262500X0.450000X-0.262500X0.450000X-0.262500X-0.450000X0.262500X-0.450000X0*%
%TD*%
%TA.AperFunction,SMDPad,CuDef*%
%ADD35RoundRect,0.150000X-0.587500X-0.150000X0.587500X-0.150000X0.587500X0.150000X-0.587500X0.150000X0*%
%TD*%
%TA.AperFunction,SMDPad,CuDef*%
%ADD36R,0.400000X1.200000*%
%TD*%
%TA.AperFunction,ViaPad*%
%ADD37C,0.700000*%
%TD*%
%TA.AperFunction,ViaPad*%
%ADD38C,0.800000*%
%TD*%
%TA.AperFunction,ViaPad*%
%ADD39C,0.900000*%
%TD*%
%TA.AperFunction,ViaPad*%
%ADD40C,1.400000*%
%TD*%
%TA.AperFunction,Conductor*%
%ADD41C,0.500000*%
%TD*%
%TA.AperFunction,Conductor*%
%ADD42C,0.300000*%
%TD*%
%TA.AperFunction,Conductor*%
%ADD43C,1.000000*%
%TD*%
%TA.AperFunction,Conductor*%
%ADD44C,0.250000*%
%TD*%
G04 APERTURE END LIST*
D10*
%TO.P,U508,1,COL1*%
%TO.N,/Display/VDD_DIG1*%
X125810000Y-67810000D03*
D11*
%TO.P,U508,2,ROW3*%
%TO.N,/Display/DIS3_10*%
X128350000Y-67810000D03*
%TO.P,U508,3,COL2*%
%TO.N,/Display/VDD_DIG2*%
X130890000Y-67810000D03*
%TO.P,U508,4,ROW5*%
%TO.N,/Display/DIS3_12*%
X133430000Y-67810000D03*
%TO.P,U508,5,ROW6*%
%TO.N,/Display/DIS3_13*%
X135970000Y-67810000D03*
%TO.P,U508,6,ROW7*%
%TO.N,/Display/DIS3_14*%
X138510000Y-67810000D03*
%TO.P,U508,7,COL4*%
%TO.N,/Display/VDD_DIG4*%
X138510000Y-60190000D03*
%TO.P,U508,8,COL5*%
%TO.N,/Display/VDD_DIG5*%
X135970000Y-60190000D03*
%TO.P,U508,9,ROW4*%
%TO.N,/Display/DIS3_11*%
X133430000Y-60190000D03*
%TO.P,U508,10,COL3*%
%TO.N,/Display/VDD_DIG3*%
X130890000Y-60190000D03*
%TO.P,U508,11,ROW2*%
%TO.N,/Display/DIS3_9*%
X128350000Y-60190000D03*
%TO.P,U508,12,ROW1*%
%TO.N,/Display/DIS3_8*%
X125810000Y-60190000D03*
%TD*%
D10*
%TO.P,U509,1,COL1*%
%TO.N,/Display/VDD_DIG1*%
X143590000Y-67810000D03*
D11*
%TO.P,U509,2,ROW3*%
%TO.N,/Display/DIS3_17*%
X146130000Y-67810000D03*
%TO.P,U509,3,COL2*%
%TO.N,/Display/VDD_DIG2*%
X148670000Y-67810000D03*
%TO.P,U509,4,ROW5*%
%TO.N,/Display/DIS3_19*%
X151210000Y-67810000D03*
%TO.P,U509,5,ROW6*%
%TO.N,/Display/DIS3_20*%
X153750000Y-67810000D03*
%TO.P,U509,6,ROW7*%
%TO.N,/Display/DIS3_21*%
X156290000Y-67810000D03*
%TO.P,U509,7,COL4*%
%TO.N,/Display/VDD_DIG4*%
X156290000Y-60190000D03*
%TO.P,U509,8,COL5*%
%TO.N,/Display/VDD_DIG5*%
X153750000Y-60190000D03*
%TO.P,U509,9,ROW4*%
%TO.N,/Display/DIS3_18*%
X151210000Y-60190000D03*
%TO.P,U509,10,COL3*%
%TO.N,/Display/VDD_DIG3*%
X148670000Y-60190000D03*
%TO.P,U509,11,ROW2*%
%TO.N,/Display/DIS3_16*%
X146130000Y-60190000D03*
%TO.P,U509,12,ROW1*%
%TO.N,/Display/DIS3_15*%
X143590000Y-60190000D03*
%TD*%
D10*
%TO.P,U506,1,COL1*%
%TO.N,/Display/VDD_DIG1*%
X107980000Y-67810000D03*
D11*
%TO.P,U506,2,ROW3*%
%TO.N,/Display/DIS3_3*%
X110520000Y-67810000D03*
%TO.P,U506,3,COL2*%
%TO.N,/Display/VDD_DIG2*%
X113060000Y-67810000D03*
%TO.P,U506,4,ROW5*%
%TO.N,/Display/DIS3_5*%
X115600000Y-67810000D03*
%TO.P,U506,5,ROW6*%
%TO.N,/Display/DIS3_6*%
X118140000Y-67810000D03*
%TO.P,U506,6,ROW7*%
%TO.N,/Display/DIS3_7*%
X120680000Y-67810000D03*
%TO.P,U506,7,COL4*%
%TO.N,/Display/VDD_DIG4*%
X120680000Y-60190000D03*
%TO.P,U506,8,COL5*%
%TO.N,/Display/VDD_DIG5*%
X118140000Y-60190000D03*
%TO.P,U506,9,ROW4*%
%TO.N,/Display/DIS3_4*%
X115600000Y-60190000D03*
%TO.P,U506,10,COL3*%
%TO.N,/Display/VDD_DIG3*%
X113060000Y-60190000D03*
%TO.P,U506,11,ROW2*%
%TO.N,/Display/DIS3_2*%
X110520000Y-60190000D03*
%TO.P,U506,12,ROW1*%
%TO.N,/Display/DIS3_1*%
X107980000Y-60190000D03*
%TD*%
D10*
%TO.P,U514,1,Dig1*%
%TO.N,/Display/VDD_DIG1*%
X180980000Y-74810000D03*
D11*
%TO.P,U514,2,C*%
%TO.N,/Display/DIS5_C*%
X183520000Y-74810000D03*
%TO.P,U514,3,DP*%
%TO.N,/Display/DIS5_DP*%
X186060000Y-74810000D03*
%TO.P,U514,4*%
%TO.N,N/C*%
X188600000Y-74810000D03*
%TO.P,U514,5,E*%
%TO.N,/Display/DIS5_E*%
X191140000Y-74810000D03*
%TO.P,U514,6,D*%
%TO.N,/Display/DIS5_D*%
X193680000Y-74810000D03*
%TO.P,U514,7,G*%
%TO.N,/Display/DIS5_G*%
X196220000Y-74810000D03*
%TO.P,U514,8,Dig4*%
%TO.N,/Display/VDD_DIG4*%
X198760000Y-74810000D03*
%TO.P,U514,9*%
%TO.N,N/C*%
X198760000Y-67190000D03*
%TO.P,U514,11,Dig3*%
%TO.N,/Display/VDD_DIG3*%
X193680000Y-67190000D03*
%TO.P,U514,12,L*%
%TO.N,/Display/VDD_DIG5*%
X191140000Y-67190000D03*
%TO.P,U514,13,A*%
%TO.N,/Display/DIS5_A*%
X188600000Y-67190000D03*
%TO.P,U514,14,Dig2*%
%TO.N,/Display/VDD_DIG2*%
X186060000Y-67190000D03*
%TO.P,U514,15,B*%
%TO.N,/Display/DIS5_B*%
X183520000Y-67190000D03*
%TO.P,U514,16,F*%
%TO.N,/Display/DIS5_F*%
X180980000Y-67190000D03*
%TD*%
D10*
%TO.P,U502,1,Dig1*%
%TO.N,/Display/VDD_DIG1*%
X68800000Y-60810000D03*
D11*
%TO.P,U502,2,C*%
%TO.N,/Display/DIS1_C*%
X71340000Y-60810000D03*
%TO.P,U502,3,DP*%
%TO.N,/Display/DIS1_DP*%
X73880000Y-60810000D03*
%TO.P,U502,4*%
%TO.N,N/C*%
X76420000Y-60810000D03*
%TO.P,U502,5,E*%
%TO.N,/Display/DIS1_E*%
X78960000Y-60810000D03*
%TO.P,U502,6,D*%
%TO.N,/Display/DIS1_D*%
X81500000Y-60810000D03*
%TO.P,U502,7,G*%
%TO.N,/Display/DIS1_G*%
X84040000Y-60810000D03*
%TO.P,U502,8,Dig4*%
%TO.N,/Display/VDD_DIG4*%
X86580000Y-60810000D03*
%TO.P,U502,9*%
%TO.N,N/C*%
X86580000Y-53190000D03*
%TO.P,U502,11,Dig3*%
%TO.N,/Display/VDD_DIG3*%
X81500000Y-53190000D03*
%TO.P,U502,12,L*%
%TO.N,/Display/VDD_DIG5*%
X78960000Y-53190000D03*
%TO.P,U502,13,A*%
%TO.N,/Display/DIS1_A*%
X76420000Y-53190000D03*
%TO.P,U502,14,Dig2*%
%TO.N,/Display/VDD_DIG2*%
X73880000Y-53190000D03*
%TO.P,U502,15,B*%
%TO.N,/Display/DIS1_B*%
X71340000Y-53190000D03*
%TO.P,U502,16,F*%
%TO.N,/Display/DIS1_F*%
X68800000Y-53190000D03*
%TD*%
D10*
%TO.P,U512,1,Dig1*%
%TO.N,/Display/VDD_DIG1*%
X180980000Y-60810000D03*
D11*
%TO.P,U512,2,C*%
%TO.N,/Display/DIS4_C*%
X183520000Y-60810000D03*
%TO.P,U512,3,DP*%
%TO.N,/Display/DIS4_DP*%
X186060000Y-60810000D03*
%TO.P,U512,4*%
%TO.N,N/C*%
X188600000Y-60810000D03*
%TO.P,U512,5,E*%
%TO.N,/Display/DIS4_E*%
X191140000Y-60810000D03*
%TO.P,U512,6,D*%
%TO.N,/Display/DIS4_D*%
X193680000Y-60810000D03*
%TO.P,U512,7,G*%
%TO.N,/Display/DIS4_G*%
X196220000Y-60810000D03*
%TO.P,U512,8,Dig4*%
%TO.N,/Display/VDD_DIG4*%
X198760000Y-60810000D03*
%TO.P,U512,9*%
%TO.N,N/C*%
X198760000Y-53190000D03*
%TO.P,U512,11,Dig3*%
%TO.N,/Display/VDD_DIG3*%
X193680000Y-53190000D03*
%TO.P,U512,12,L*%
%TO.N,/Display/VDD_DIG5*%
X191140000Y-53190000D03*
%TO.P,U512,13,A*%
%TO.N,/Display/DIS4_A*%
X188600000Y-53190000D03*
%TO.P,U512,14,Dig2*%
%TO.N,/Display/VDD_DIG2*%
X186060000Y-53190000D03*
%TO.P,U512,15,B*%
%TO.N,/Display/DIS4_B*%
X183520000Y-53190000D03*
%TO.P,U512,16,F*%
%TO.N,/Display/DIS4_F*%
X180980000Y-53190000D03*
%TD*%
D10*
%TO.P,U504,1,Dig1*%
%TO.N,/Display/VDD_DIG1*%
X68840000Y-74810000D03*
D11*
%TO.P,U504,2,C*%
%TO.N,/Display/DIS2_C*%
X71380000Y-74810000D03*
%TO.P,U504,3,DP*%
%TO.N,/Display/DIS2_DP*%
X73920000Y-74810000D03*
%TO.P,U504,4*%
%TO.N,N/C*%
X76460000Y-74810000D03*
%TO.P,U504,5,E*%
%TO.N,/Display/DIS2_E*%
X79000000Y-74810000D03*
%TO.P,U504,6,D*%
%TO.N,/Display/DIS2_D*%
X81540000Y-74810000D03*
%TO.P,U504,7,G*%
%TO.N,/Display/DIS2_G*%
X84080000Y-74810000D03*
%TO.P,U504,8,Dig4*%
%TO.N,/Display/VDD_DIG4*%
X86620000Y-74810000D03*
%TO.P,U504,9*%
%TO.N,N/C*%
X86620000Y-67190000D03*
%TO.P,U504,11,Dig3*%
%TO.N,/Display/VDD_DIG3*%
X81540000Y-67190000D03*
%TO.P,U504,12,L*%
%TO.N,/Display/VDD_DIG5*%
X79000000Y-67190000D03*
%TO.P,U504,13,A*%
%TO.N,/Display/DIS2_A*%
X76460000Y-67190000D03*
%TO.P,U504,14,Dig2*%
%TO.N,/Display/VDD_DIG2*%
X73920000Y-67190000D03*
%TO.P,U504,15,B*%
%TO.N,/Display/DIS2_B*%
X71380000Y-67190000D03*
%TO.P,U504,16,F*%
%TO.N,/Display/DIS2_F*%
X68840000Y-67190000D03*
%TD*%
D12*
%TO.P,J102,1,Pin_1*%
%TO.N,GND*%
X132860000Y-52000000D03*
D13*
%TO.P,J102,2,Pin_2*%
%TO.N,/Host Controller/I2C_SCL*%
X130320000Y-52000000D03*
%TO.P,J102,3,Pin_3*%
%TO.N,GND*%
X127780000Y-52000000D03*
%TO.P,J102,4,Pin_4*%
%TO.N,/Host Controller/I2C_SDA*%
X125240000Y-52000000D03*
%TO.P,J102,5,Pin_5*%
%TO.N,GND*%
X122700000Y-52000000D03*
%TO.P,J102,6,Pin_6*%
%TO.N,VBUS*%
X120160000Y-52000000D03*
%TO.P,J102,7,Pin_7*%
%TO.N,GND*%
X117620000Y-52000000D03*
%TO.P,J102,8,Pin_8*%
%TO.N,VBUS*%
X115080000Y-52000000D03*
%TO.P,J102,9,Pin_9*%
%TO.N,/Host Controller/LOW_POWER_ENABLE*%
X112540000Y-52000000D03*
%TO.P,J102,10,Pin_10*%
%TO.N,/Display/LED_BRIGHTNESS*%
X110000000Y-52000000D03*
%TD*%
D14*
%TO.P,U201,33*%
%TO.N,N/C*%
X26175000Y-66916500D03*
X28175000Y-66916500D03*
X24975000Y-65916500D03*
X29375000Y-65716500D03*
X24975000Y-63516500D03*
X29375000Y-63516500D03*
X26175000Y-62516500D03*
X28175000Y-62516500D03*
%TD*%
D12*
%TO.P,J104,1,Pin_1*%
%TO.N,GND*%
X132860000Y-76115000D03*
D13*
%TO.P,J104,2,Pin_2*%
%TO.N,/Host Controller/I2C_SCL*%
X130320000Y-76115000D03*
%TO.P,J104,3,Pin_3*%
%TO.N,GND*%
X127780000Y-76115000D03*
%TO.P,J104,4,Pin_4*%
%TO.N,/Host Controller/I2C_SDA*%
X125240000Y-76115000D03*
%TO.P,J104,5,Pin_5*%
%TO.N,GND*%
X122700000Y-76115000D03*
%TO.P,J104,6,Pin_6*%
%TO.N,VBUS*%
X120160000Y-76115000D03*
%TO.P,J104,7,Pin_7*%
%TO.N,GND*%
X117620000Y-76115000D03*
%TO.P,J104,8,Pin_8*%
%TO.N,VBUS*%
X115080000Y-76115000D03*
%TO.P,J104,9,Pin_9*%
%TO.N,/Host Controller/LOW_POWER_ENABLE*%
X112540000Y-76115000D03*
%TO.P,J104,10,Pin_10*%
%TO.N,/Display/LED_BRIGHTNESS*%
X110000000Y-76115000D03*
%TD*%
D12*
%TO.P,J101,1,Pin_1*%
%TO.N,+3.3V*%
X59000000Y-76500000D03*
D13*
%TO.P,J101,2,Pin_2*%
%TO.N,GND*%
X56460000Y-76500000D03*
%TO.P,J101,3,Pin_3*%
%TO.N,/Host Controller/I2C_SCL*%
X53920000Y-76500000D03*
%TO.P,J101,4,Pin_4*%
%TO.N,/Host Controller/I2C_SDA*%
X51380000Y-76500000D03*
%TD*%
D12*
%TO.P,J105,1,Pin_1*%
%TO.N,GND*%
X100275000Y-76250000D03*
D13*
%TO.P,J105,2,Pin_2*%
%TO.N,/VBUS_IN*%
X97735000Y-76250000D03*
%TD*%
D15*
%TO.P,R703,1*%
%TO.N,Net-(R701-Pad2)*%
X54587500Y-62250000D03*
%TO.P,R703,2*%
%TO.N,/Display/LED_BRIGHTNESS*%
X57127500Y-62250000D03*
%TD*%
D16*
%TO.P,J103,1,Pin_1*%
%TO.N,+3.3V*%
X49500000Y-52500000D03*
D17*
%TO.P,J103,2,Pin_2*%
%TO.N,/Host Controller/SWCLK*%
X47500000Y-52500000D03*
%TO.P,J103,3,Pin_3*%
%TO.N,GND*%
X45500000Y-52500000D03*
%TO.P,J103,4,Pin_4*%
%TO.N,/Host Controller/SWDIO*%
X43500000Y-52500000D03*
%TO.P,J103,5,Pin_5*%
%TO.N,/Host Controller/NRST*%
X41500000Y-52500000D03*
%TO.P,J103,6,Pin_6*%
%TO.N,unconnected-(J103-Pin_6-Pad6)*%
X39500000Y-52500000D03*
%TD*%
D18*
%TO.P,R310,1*%
%TO.N,GND*%
X49087500Y-50200000D03*
%TO.P,R310,2*%
%TO.N,Net-(D301-K)*%
X50912500Y-50200000D03*
%TD*%
D19*
%TO.P,R301,1*%
%TO.N,+3.3V*%
X51275000Y-71750000D03*
%TO.P,R301,2*%
%TO.N,/Host Controller/I2C_SDA*%
X51275000Y-73575000D03*
%TD*%
D18*
%TO.P,R504,1*%
%TO.N,Net-(Q506-E)*%
X55287500Y-56850000D03*
%TO.P,R504,2*%
%TO.N,GND*%
X57112500Y-56850000D03*
%TD*%
D20*
%TO.P,C505,1*%
%TO.N,/Display/SCT2_VDD*%
X93200000Y-53850000D03*
%TO.P,C505,2*%
%TO.N,GND*%
X93200000Y-51950000D03*
%TD*%
D21*
%TO.P,U301,1,SCL*%
%TO.N,/Host Controller/I2C_SCL*%
X54975000Y-73800000D03*
%TO.P,U301,2,GND*%
%TO.N,GND*%
X54025000Y-73800000D03*
%TO.P,U301,3,SDA*%
%TO.N,/Host Controller/I2C_SDA*%
X53075000Y-73800000D03*
%TO.P,U301,4,VCC*%
%TO.N,+3.3V*%
X53075000Y-71525000D03*
%TO.P,U301,5,WP*%
%TO.N,GND*%
X54975000Y-71525000D03*
%TD*%
%TO.P,U515,1*%
%TO.N,Net-(Q509-B)*%
X166735000Y-60937500D03*
%TO.P,U515,2,V-*%
%TO.N,GND*%
X165785000Y-60937500D03*
%TO.P,U515,3,+*%
%TO.N,/Display/LED_BRIGHTNESS*%
X164835000Y-60937500D03*
%TO.P,U515,4,-*%
%TO.N,Net-(U515--)*%
X164835000Y-58662500D03*
%TO.P,U515,5,V+*%
%TO.N,+3.3V*%
X166735000Y-58662500D03*
%TD*%
D22*
%TO.P,U101,1*%
%TO.N,/Host Controller/CURRENT_SENSE*%
X99862500Y-74500000D03*
%TO.P,U101,2,GND*%
%TO.N,GND*%
X99862500Y-73550000D03*
%TO.P,U101,3,+*%
%TO.N,/VBUS_IN*%
X99862500Y-72600000D03*
%TO.P,U101,4,-*%
%TO.N,VBUS*%
X102137500Y-72600000D03*
%TO.P,U101,5,V+*%
%TO.N,+3.3V*%
X102137500Y-74500000D03*
%TD*%
D23*
%TO.P,C101,1*%
%TO.N,+3.3V*%
X103525000Y-76200000D03*
%TO.P,C101,2*%
%TO.N,GND*%
X101975000Y-76200000D03*
%TD*%
D24*
%TO.P,U501,1,GND*%
%TO.N,GND*%
X64200000Y-57325000D03*
%TO.P,U501,2,SDI*%
%TO.N,/Display/SCT_SDI*%
X64200000Y-57960000D03*
%TO.P,U501,3,CLK*%
%TO.N,/Display/SCT_CLK_F*%
X64200000Y-58595000D03*
%TO.P,U501,4,!LA*%
%TO.N,/Display/~{SCT_LA}*%
X64200000Y-59230000D03*
%TO.P,U501,5,Out0*%
%TO.N,/Display/DIS1_F*%
X64200000Y-59865000D03*
%TO.P,U501,6,Out1*%
%TO.N,/Display/DIS1_B*%
X64200000Y-60500000D03*
%TO.P,U501,7,Out2*%
%TO.N,/Display/DIS1_A*%
X64200000Y-61135000D03*
%TO.P,U501,8,Out3*%
%TO.N,/Display/DIS1_D*%
X64200000Y-61770000D03*
%TO.P,U501,9,Out4*%
%TO.N,/Display/DIS1_C*%
X64200000Y-62405000D03*
%TO.P,U501,10,Out5*%
%TO.N,/Display/DIS1_DP*%
X64200000Y-63040000D03*
%TO.P,U501,11,Out6*%
%TO.N,/Display/DIS1_E*%
X64200000Y-63675000D03*
%TO.P,U501,12,Out7*%
%TO.N,/Display/DIS1_G*%
X64200000Y-64310000D03*
%TO.P,U501,13,Out8*%
%TO.N,/Display/DIS2_DP*%
X59000000Y-64310000D03*
%TO.P,U501,14,Out9*%
%TO.N,/Display/DIS2_C*%
X59000000Y-63675000D03*
%TO.P,U501,15,Out10*%
%TO.N,/Display/DIS2_E*%
X59000000Y-63040000D03*
%TO.P,U501,16,Out11*%
%TO.N,/Display/DIS2_D*%
X59000000Y-62405000D03*
%TO.P,U501,17,Out12*%
%TO.N,/Display/DIS2_G*%
X59000000Y-61770000D03*
%TO.P,U501,18,Out13*%
%TO.N,/Display/DIS2_A*%
X59000000Y-61135000D03*
%TO.P,U501,19,Out14*%
%TO.N,/Display/DIS2_B*%
X59000000Y-60500000D03*
%TO.P,U501,20,Out15*%
%TO.N,/Display/DIS2_F*%
X59000000Y-59865000D03*
%TO.P,U501,21,!OE*%
%TO.N,/Display/~{SCT_EN}*%
X59000000Y-59230000D03*
%TO.P,U501,22,SDO*%
%TO.N,/Display/SCT1_SDO*%
X59000000Y-58595000D03*
%TO.P,U501,23,Rext*%
%TO.N,/Display/SCT1_REXT*%
X59000000Y-57960000D03*
%TO.P,U501,24,VDD*%
%TO.N,/Display/SCT1_VDD*%
X59000000Y-57325000D03*
%TD*%
D25*
%TO.P,D501,1,K*%
%TO.N,VDD*%
X159400000Y-63000000D03*
%TO.P,D501,2,A*%
%TO.N,/Display/VDD_LED*%
X159400000Y-59000000D03*
%TD*%
D26*
%TO.P,R309,1*%
%TO.N,/Host Controller/SWITCH_1*%
X44250000Y-75750000D03*
%TO.P,R309,2*%
%TO.N,Net-(R307-Pad2)*%
X44250000Y-77400000D03*
%TD*%
D27*
%TO.P,TP501,1,1*%
%TO.N,Net-(Q506-E)*%
X53400000Y-51400000D03*
%TD*%
%TO.P,TP504,1,1*%
%TO.N,Net-(Q509-E)*%
X163250000Y-54500000D03*
%TD*%
D28*
%TO.P,Q505,1,G*%
%TO.N,/Display/DISPLAY5_EN*%
X151650000Y-56262500D03*
%TO.P,Q505,2,S*%
%TO.N,/Display/VDD_LED*%
X153550000Y-56262500D03*
%TO.P,Q505,3,D*%
%TO.N,/Display/VDD_DIG5*%
X152600000Y-58137500D03*
%TD*%
D29*
%TO.P,C308,1*%
%TO.N,/Host Controller/SWITCH_2*%
X34000000Y-75800000D03*
%TO.P,C308,2*%
%TO.N,GND*%
X34000000Y-77350000D03*
%TD*%
D18*
%TO.P,R505,1*%
%TO.N,+3.3V*%
X93575000Y-55600000D03*
%TO.P,R505,2*%
%TO.N,/Display/SCT2_VDD*%
X95400000Y-55600000D03*
%TD*%
D27*
%TO.P,TP503,1,1*%
%TO.N,Net-(Q508-E)*%
X89000000Y-63000000D03*
%TD*%
D19*
%TO.P,R302,1*%
%TO.N,+3.3V*%
X56775000Y-71750000D03*
%TO.P,R302,2*%
%TO.N,/Host Controller/I2C_SCL*%
X56775000Y-73575000D03*
%TD*%
D21*
%TO.P,U511,1*%
%TO.N,Net-(Q508-B)*%
X92150000Y-69337500D03*
%TO.P,U511,2,V-*%
%TO.N,GND*%
X91200000Y-69337500D03*
%TO.P,U511,3,+*%
%TO.N,/Display/LED_BRIGHTNESS*%
X90250000Y-69337500D03*
%TO.P,U511,4,-*%
%TO.N,Net-(U511--)*%
X90250000Y-67062500D03*
%TO.P,U511,5,V+*%
%TO.N,+3.3V*%
X92150000Y-67062500D03*
%TD*%
D20*
%TO.P,C507,1*%
%TO.N,/Display/SCT3_VDD*%
X93237500Y-63387500D03*
%TO.P,C507,2*%
%TO.N,GND*%
X93237500Y-61487500D03*
%TD*%
D30*
%TO.P,C501,1*%
%TO.N,/Display/SCT1_VDD*%
X61050000Y-55000000D03*
%TO.P,C501,2*%
%TO.N,GND*%
X62950000Y-55000000D03*
%TD*%
%TO.P,C502,1*%
%TO.N,/Display/SCT1_VDD*%
X61050000Y-53000000D03*
%TO.P,C502,2*%
%TO.N,GND*%
X62950000Y-53000000D03*
%TD*%
D31*
%TO.P,R101,1*%
%TO.N,/VBUS_IN*%
X98737500Y-70600000D03*
%TO.P,R101,2*%
%TO.N,VBUS*%
X101662500Y-70600000D03*
%TD*%
D20*
%TO.P,C508,1*%
%TO.N,/Display/SCT3_VDD*%
X95237500Y-63437500D03*
%TO.P,C508,2*%
%TO.N,GND*%
X95237500Y-61537500D03*
%TD*%
%TO.P,C509,1*%
%TO.N,/Display/SCT4_VDD*%
X167585000Y-54550000D03*
%TO.P,C509,2*%
%TO.N,GND*%
X167585000Y-52650000D03*
%TD*%
D22*
%TO.P,U503,1*%
%TO.N,Net-(Q506-B)*%
X55062500Y-55000000D03*
%TO.P,U503,2,V-*%
%TO.N,GND*%
X55062500Y-54050000D03*
%TO.P,U503,3,+*%
%TO.N,/Display/LED_BRIGHTNESS*%
X55062500Y-53100000D03*
%TO.P,U503,4,-*%
%TO.N,Net-(U503--)*%
X57337500Y-53100000D03*
%TO.P,U503,5,V+*%
%TO.N,+3.3V*%
X57337500Y-55000000D03*
%TD*%
D28*
%TO.P,Q503,1,G*%
%TO.N,/Display/DISPLAY3_EN*%
X147650000Y-56262500D03*
%TO.P,Q503,2,S*%
%TO.N,/Display/VDD_LED*%
X149550000Y-56262500D03*
%TO.P,Q503,3,D*%
%TO.N,/Display/VDD_DIG3*%
X148600000Y-58137500D03*
%TD*%
D19*
%TO.P,R501,1*%
%TO.N,+3.3V*%
X59250000Y-53337500D03*
%TO.P,R501,2*%
%TO.N,/Display/SCT1_VDD*%
X59250000Y-55162500D03*
%TD*%
D32*
%TO.P,C307,1*%
%TO.N,/Host Controller/CURRENT_SENSE_FLTR*%
X44950000Y-70250000D03*
%TO.P,C307,2*%
%TO.N,GND*%
X43050000Y-70250000D03*
%TD*%
D26*
%TO.P,R306,1*%
%TO.N,+3.3V*%
X37000000Y-75750000D03*
%TO.P,R306,2*%
%TO.N,Net-(R306-Pad2)*%
X37000000Y-77400000D03*
%TD*%
D20*
%TO.P,C506,1*%
%TO.N,/Display/SCT2_VDD*%
X95200000Y-53850000D03*
%TO.P,C506,2*%
%TO.N,GND*%
X95200000Y-51950000D03*
%TD*%
D27*
%TO.P,TP502,1,1*%
%TO.N,Net-(Q507-E)*%
X89000000Y-53400000D03*
%TD*%
D28*
%TO.P,Q501,1,G*%
%TO.N,/Display/DISPLAY1_EN*%
X124850000Y-63262500D03*
%TO.P,Q501,2,S*%
%TO.N,/Display/VDD_LED*%
X126750000Y-63262500D03*
%TO.P,Q501,3,D*%
%TO.N,/Display/VDD_DIG1*%
X125800000Y-65137500D03*
%TD*%
%TO.P,Q502,1,G*%
%TO.N,/Display/DISPLAY2_EN*%
X130050000Y-64062500D03*
%TO.P,Q502,2,S*%
%TO.N,/Display/VDD_LED*%
X131950000Y-64062500D03*
%TO.P,Q502,3,D*%
%TO.N,/Display/VDD_DIG2*%
X131000000Y-65937500D03*
%TD*%
D33*
%TO.P,R507,1*%
%TO.N,Net-(Q507-E)*%
X91200000Y-53762500D03*
%TO.P,R507,2*%
%TO.N,GND*%
X91200000Y-51937500D03*
%TD*%
D34*
%TO.P,R512,1*%
%TO.N,Net-(Q509-E)*%
X166297500Y-56800000D03*
%TO.P,R512,2*%
%TO.N,Net-(U515--)*%
X164472500Y-56800000D03*
%TD*%
%TO.P,R509,1*%
%TO.N,Net-(Q508-E)*%
X91950000Y-65200000D03*
%TO.P,R509,2*%
%TO.N,Net-(U511--)*%
X90125000Y-65200000D03*
%TD*%
%TO.P,R506,1*%
%TO.N,Net-(Q507-E)*%
X92042831Y-55600000D03*
%TO.P,R506,2*%
%TO.N,Net-(U507--)*%
X90217831Y-55600000D03*
%TD*%
D19*
%TO.P,R103,1*%
%TO.N,/Host Controller/UCPD_CC1*%
X63400000Y-75837500D03*
%TO.P,R103,2*%
%TO.N,GND*%
X63400000Y-77662500D03*
%TD*%
D30*
%TO.P,C503,1*%
%TO.N,/Display/VDD_LED*%
X159250000Y-56400000D03*
%TO.P,C503,2*%
%TO.N,GND*%
X161150000Y-56400000D03*
%TD*%
D21*
%TO.P,U507,5,V+*%
%TO.N,+3.3V*%
X92150000Y-57462500D03*
%TO.P,U507,4,-*%
%TO.N,Net-(U507--)*%
X90250000Y-57462500D03*
%TO.P,U507,3,+*%
%TO.N,/Display/LED_BRIGHTNESS*%
X90250000Y-59737500D03*
%TO.P,U507,2,V-*%
%TO.N,GND*%
X91200000Y-59737500D03*
%TO.P,U507,1*%
%TO.N,Net-(Q507-B)*%
X92150000Y-59737500D03*
%TD*%
D26*
%TO.P,R307,1*%
%TO.N,+3.3V*%
X42750000Y-75750000D03*
%TO.P,R307,2*%
%TO.N,Net-(R307-Pad2)*%
X42750000Y-77400000D03*
%TD*%
D28*
%TO.P,Q504,1,G*%
%TO.N,/Display/DISPLAY4_EN*%
X137600000Y-56200000D03*
%TO.P,Q504,2,S*%
%TO.N,/Display/VDD_LED*%
X139500000Y-56200000D03*
%TO.P,Q504,3,D*%
%TO.N,/Display/VDD_DIG4*%
X138550000Y-58075000D03*
%TD*%
D20*
%TO.P,C510,1*%
%TO.N,/Display/SCT4_VDD*%
X169585000Y-54550000D03*
%TO.P,C510,2*%
%TO.N,GND*%
X169585000Y-52650000D03*
%TD*%
D18*
%TO.P,R511,1*%
%TO.N,+3.3V*%
X167872500Y-56800000D03*
%TO.P,R511,2*%
%TO.N,/Display/SCT4_VDD*%
X169697500Y-56800000D03*
%TD*%
D19*
%TO.P,R102,1*%
%TO.N,/Host Controller/UCPD_CC2*%
X61400000Y-74587500D03*
%TO.P,R102,2*%
%TO.N,GND*%
X61400000Y-76412500D03*
%TD*%
D35*
%TO.P,Q509,1,B*%
%TO.N,Net-(Q509-B)*%
X168647500Y-60550000D03*
%TO.P,Q509,2,E*%
%TO.N,Net-(Q509-E)*%
X168647500Y-58650000D03*
%TO.P,Q509,3,C*%
%TO.N,/Display/SCT4_REXT*%
X170522500Y-59600000D03*
%TD*%
D18*
%TO.P,R304,1*%
%TO.N,/Host Controller/VOLTAGE_SENS_FLTR*%
X47337500Y-68250000D03*
%TO.P,R304,2*%
%TO.N,/VBUS_IN*%
X49162500Y-68250000D03*
%TD*%
D36*
%TO.P,U505,1,GND*%
%TO.N,GND*%
X97507500Y-51600000D03*
%TO.P,U505,2,SDI*%
%TO.N,/Display/SCT1_SDO*%
X98142500Y-51600000D03*
%TO.P,U505,3,CLK*%
%TO.N,/Display/SCT_CLK_F*%
X98777500Y-51600000D03*
%TO.P,U505,4,!LA*%
%TO.N,/Display/~{SCT_LA}*%
X99412500Y-51600000D03*
%TO.P,U505,5,Out0*%
%TO.N,/Display/DIS3_1*%
X100047500Y-51600000D03*
%TO.P,U505,6,Out1*%
%TO.N,/Display/DIS3_2*%
X100682500Y-51600000D03*
%TO.P,U505,7,Out2*%
%TO.N,/Display/DIS3_3*%
X101317500Y-51600000D03*
%TO.P,U505,8,Out3*%
%TO.N,/Display/DIS3_4*%
X101952500Y-51600000D03*
%TO.P,U505,9,Out4*%
%TO.N,/Display/DIS3_5*%
X102587500Y-51600000D03*
%TO.P,U505,10,Out5*%
%TO.N,/Display/DIS3_6*%
X103222500Y-51600000D03*
%TO.P,U505,11,Out6*%
%TO.N,/Display/DIS3_7*%
X103857500Y-51600000D03*
%TO.P,U505,12,Out7*%
%TO.N,/Display/DIS3_8*%
X104492500Y-51600000D03*
%TO.P,U505,13,Out8*%
%TO.N,/Display/DIS3_9*%
X104492500Y-56800000D03*
%TO.P,U505,14,Out9*%
%TO.N,/Display/DIS3_10*%
X103857500Y-56800000D03*
%TO.P,U505,15,Out10*%
%TO.N,/Display/DIS3_11*%
X103222500Y-56800000D03*
%TO.P,U505,16,Out11*%
%TO.N,/Display/DIS3_12*%
X102587500Y-56800000D03*
%TO.P,U505,17,Out12*%
%TO.N,/Display/DIS3_13*%
X101952500Y-56800000D03*
%TO.P,U505,18,Out13*%
%TO.N,/Display/DIS3_14*%
X101317500Y-56800000D03*
%TO.P,U505,19,Out14*%
%TO.N,/Display/DIS3_15*%
X100682500Y-56800000D03*
%TO.P,U505,20,Out15*%
%TO.N,/Display/DIS3_16*%
X100047500Y-56800000D03*
%TO.P,U505,21,!OE*%
%TO.N,/Display/~{SCT_EN}*%
X99412500Y-56800000D03*
%TO.P,U505,22,SDO*%
%TO.N,/Display/SCT2_SDO*%
X98777500Y-56800000D03*
%TO.P,U505,23,Rext*%
%TO.N,/Display/SCT2_REXT*%
X98142500Y-56800000D03*
%TO.P,U505,24,VDD*%
%TO.N,/Display/SCT2_VDD*%
X97507500Y-56800000D03*
%TD*%
D33*
%TO.P,R510,1*%
%TO.N,Net-(Q508-E)*%
X91200000Y-63312500D03*
%TO.P,R510,2*%
%TO.N,GND*%
X91200000Y-61487500D03*
%TD*%
D36*
%TO.P,U510,1,GND*%
%TO.N,GND*%
X96977500Y-61200000D03*
%TO.P,U510,2,SDI*%
%TO.N,/Display/SCT2_SDO*%
X97612500Y-61200000D03*
%TO.P,U510,3,CLK*%
%TO.N,/Display/SCT_CLK_F*%
X98247500Y-61200000D03*
%TO.P,U510,4,!LA*%
%TO.N,/Display/~{SCT_LA}*%
X98882500Y-61200000D03*
%TO.P,U510,5,Out0*%
%TO.N,/Display/DIS3_17*%
X99517500Y-61200000D03*
%TO.P,U510,6,Out1*%
%TO.N,/Display/DIS3_18*%
X100152500Y-61200000D03*
%TO.P,U510,7,Out2*%
%TO.N,/Display/DIS3_19*%
X100787500Y-61200000D03*
%TO.P,U510,8,Out3*%
%TO.N,/Display/DIS3_20*%
X101422500Y-61200000D03*
%TO.P,U510,9,Out4*%
%TO.N,/Display/DIS3_21*%
X101422500Y-66400000D03*
%TO.P,U510,10,Out5*%
%TO.N,unconnected-(U510-Out5-Pad10)*%
X100787500Y-66400000D03*
%TO.P,U510,11,Out6*%
%TO.N,unconnected-(U510-Out6-Pad11)*%
X100152500Y-66400000D03*
%TO.P,U510,12,Out7*%
%TO.N,unconnected-(U510-Out7-Pad12)*%
X99517500Y-66400000D03*
%TO.P,U510,13,!OE*%
%TO.N,/Display/~{SCT_EN}*%
X98882500Y-66400000D03*
%TO.P,U510,14,SDO*%
%TO.N,/Display/SCT3_SDO*%
X98247500Y-66400000D03*
%TO.P,U510,15,Rext*%
%TO.N,/Display/SCT3_REXT*%
X97612500Y-66400000D03*
%TO.P,U510,16,VDD*%
%TO.N,/Display/SCT3_VDD*%
X96977500Y-66400000D03*
%TD*%
D32*
%TO.P,C306,1*%
%TO.N,/Host Controller/VOLTAGE_SENS_FLTR*%
X44950000Y-68250000D03*
%TO.P,C306,2*%
%TO.N,GND*%
X43050000Y-68250000D03*
%TD*%
D18*
%TO.P,R508,1*%
%TO.N,+3.3V*%
X93575000Y-65187500D03*
%TO.P,R508,2*%
%TO.N,/Display/SCT3_VDD*%
X95400000Y-65187500D03*
%TD*%
D35*
%TO.P,Q507,1,B*%
%TO.N,Net-(Q507-B)*%
X94392831Y-59550000D03*
%TO.P,Q507,2,E*%
%TO.N,Net-(Q507-E)*%
X94392831Y-57650000D03*
%TO.P,Q507,3,C*%
%TO.N,/Display/SCT2_REXT*%
X96267831Y-58600000D03*
%TD*%
D26*
%TO.P,R308,1*%
%TO.N,/Host Controller/SWITCH_2*%
X35500000Y-75750000D03*
%TO.P,R308,2*%
%TO.N,Net-(R306-Pad2)*%
X35500000Y-77400000D03*
%TD*%
D18*
%TO.P,R305,1*%
%TO.N,/Host Controller/CURRENT_SENSE_FLTR*%
X47337500Y-70250000D03*
%TO.P,R305,2*%
%TO.N,/Host Controller/CURRENT_SENSE*%
X49162500Y-70250000D03*
%TD*%
%TO.P,R503,1*%
%TO.N,Net-(Q506-E)*%
X55487500Y-51250000D03*
%TO.P,R503,2*%
%TO.N,Net-(U503--)*%
X57312500Y-51250000D03*
%TD*%
D35*
%TO.P,Q508,1,B*%
%TO.N,Net-(Q508-B)*%
X94262500Y-69150000D03*
%TO.P,Q508,2,E*%
%TO.N,Net-(Q508-E)*%
X94262500Y-67250000D03*
%TO.P,Q508,3,C*%
%TO.N,/Display/SCT3_REXT*%
X96137500Y-68200000D03*
%TD*%
D33*
%TO.P,R513,1*%
%TO.N,Net-(Q509-E)*%
X165585000Y-54512500D03*
%TO.P,R513,2*%
%TO.N,GND*%
X165585000Y-52687500D03*
%TD*%
D29*
%TO.P,C309,1*%
%TO.N,/Host Controller/SWITCH_1*%
X45750000Y-75800000D03*
%TO.P,C309,2*%
%TO.N,GND*%
X45750000Y-77350000D03*
%TD*%
D35*
%TO.P,Q506,1,B*%
%TO.N,Net-(Q506-B)*%
X55262500Y-60600000D03*
%TO.P,Q506,2,E*%
%TO.N,Net-(Q506-E)*%
X55262500Y-58700000D03*
%TO.P,Q506,3,C*%
%TO.N,/Display/SCT1_REXT*%
X57137500Y-59650000D03*
%TD*%
D36*
%TO.P,U513,1,GND*%
%TO.N,GND*%
X171780000Y-52800000D03*
%TO.P,U513,2,SDI*%
%TO.N,/Display/SCT3_SDO*%
X172415000Y-52800000D03*
%TO.P,U513,3,CLK*%
%TO.N,/Display/SCT_CLK_F*%
X173050000Y-52800000D03*
%TO.P,U513,4,!LA*%
%TO.N,/Display/~{SCT_LA}*%
X173685000Y-52800000D03*
%TO.P,U513,5,Out0*%
%TO.N,/Display/DIS4_A*%
X174320000Y-52800000D03*
%TO.P,U513,6,Out1*%
%TO.N,/Display/DIS4_B*%
X174955000Y-52800000D03*
%TO.P,U513,7,Out2*%
%TO.N,/Display/DIS4_F*%
X175590000Y-52800000D03*
%TO.P,U513,8,Out3*%
%TO.N,/Display/DIS4_C*%
X176225000Y-52800000D03*
%TO.P,U513,9,Out4*%
%TO.N,/Display/DIS4_DP*%
X176860000Y-52800000D03*
%TO.P,U513,10,Out5*%
%TO.N,/Display/DIS4_E*%
X177495000Y-52800000D03*
%TO.P,U513,11,Out6*%
%TO.N,/Display/DIS4_D*%
X178130000Y-52800000D03*
%TO.P,U513,12,Out7*%
%TO.N,/Display/DIS4_G*%
X178765000Y-52800000D03*
%TO.P,U513,13,Out8*%
%TO.N,/Display/DIS5_A*%
X178765000Y-58000000D03*
%TO.P,U513,14,Out9*%
%TO.N,/Display/DIS5_B*%
X178130000Y-58000000D03*
%TO.P,U513,15,Out10*%
%TO.N,/Display/DIS5_F*%
X177495000Y-58000000D03*
%TO.P,U513,16,Out11*%
%TO.N,/Display/DIS5_G*%
X176860000Y-58000000D03*
%TO.P,U513,17,Out12*%
%TO.N,/Display/DIS5_D*%
X176225000Y-58000000D03*
%TO.P,U513,18,Out13*%
%TO.N,/Display/DIS5_E*%
X175590000Y-58000000D03*
%TO.P,U513,19,Out14*%
%TO.N,/Display/DIS5_DP*%
X174955000Y-58000000D03*
%TO.P,U513,20,Out15*%
%TO.N,/Display/DIS5_C*%
X174320000Y-58000000D03*
%TO.P,U513,21,!OE*%
%TO.N,/Display/~{SCT_EN}*%
X173685000Y-58000000D03*
%TO.P,U513,22,SDO*%
%TO.N,/Display/SCT_SDO*%
X173050000Y-58000000D03*
%TO.P,U513,23,Rext*%
%TO.N,/Display/SCT4_REXT*%
X172415000Y-58000000D03*
%TO.P,U513,24,VDD*%
%TO.N,/Display/SCT4_VDD*%
X171780000Y-58000000D03*
%TD*%
D37*
%TO.N,VBUS*%
X99800000Y-68200000D03*
X102300000Y-68200000D03*
X173100000Y-71800000D03*
X172200000Y-71800000D03*
%TO.N,GND*%
X98400000Y-59000000D03*
%TO.N,/Display/DIS3_16*%
X100000000Y-55600000D03*
%TO.N,/Display/DIS3_7*%
X113800000Y-53400000D03*
%TO.N,GND*%
X98100000Y-68200000D03*
X104600000Y-66700000D03*
X98700000Y-54200000D03*
X97200000Y-53800000D03*
X175000000Y-56700000D03*
X173300000Y-56400000D03*
X62900000Y-61100000D03*
X61900000Y-57000000D03*
X66200000Y-57600000D03*
%TO.N,/Display/SCT_CLK_F*%
X65671731Y-58371732D03*
%TO.N,GND*%
X49900000Y-76000000D03*
X48300000Y-66600000D03*
X46300000Y-67400000D03*
X27000000Y-60600000D03*
X63000000Y-59600000D03*
D38*
%TO.N,+3.3V*%
X58400000Y-72800000D03*
D37*
%TO.N,GND*%
X37600000Y-57000000D03*
X46257426Y-62690875D03*
X42600000Y-62000000D03*
X40576708Y-62000000D03*
X38988354Y-60411646D03*
X37988354Y-59411646D03*
X38000000Y-54800000D03*
X41400000Y-54600000D03*
X43800000Y-54600000D03*
X46524000Y-61400000D03*
X46700000Y-59300000D03*
X46600000Y-54800000D03*
X46800000Y-57000000D03*
D39*
X45200000Y-59200000D03*
X39600000Y-55500000D03*
D37*
X34000000Y-57000000D03*
%TO.N,/Host Controller/UCPD_CC2*%
X104000000Y-70400000D03*
%TO.N,/Host Controller/ST67_CHIP_EN*%
X38000000Y-62750000D03*
X33250000Y-58750000D03*
D40*
%TO.N,VDD*%
X158000000Y-66400000D03*
X163200000Y-58175000D03*
D39*
%TO.N,GND*%
X169600000Y-51600000D03*
X54025000Y-72800000D03*
D37*
X22250000Y-69000000D03*
D39*
X94250000Y-61487500D03*
X161200000Y-64600000D03*
D37*
X24600000Y-77600000D03*
D39*
X164800000Y-66416576D03*
X104800000Y-71400000D03*
X169000000Y-68829076D03*
X35500000Y-66750000D03*
X167600000Y-51800000D03*
D37*
X27200000Y-77600000D03*
X23400000Y-63800000D03*
X23600000Y-69200000D03*
D39*
X63700000Y-54400000D03*
X93000000Y-74250000D03*
X61200000Y-77800000D03*
D37*
X40000000Y-65000000D03*
D38*
X49800000Y-62250000D03*
D37*
X38800000Y-64400000D03*
X32200000Y-67800000D03*
D39*
X165800000Y-61800000D03*
D37*
X29000000Y-56200000D03*
D39*
X168000000Y-66366576D03*
X91250000Y-51000000D03*
X93250000Y-60750000D03*
X96400000Y-71575000D03*
D37*
X32750000Y-77250000D03*
D39*
X165600000Y-51800000D03*
X167000000Y-66366576D03*
X35500000Y-62750000D03*
D37*
X24050000Y-57200000D03*
D39*
X93000000Y-51000000D03*
D37*
X47200000Y-76200000D03*
D39*
X165800000Y-66466579D03*
X94436827Y-50686827D03*
D38*
X44000000Y-66750000D03*
D39*
X57000000Y-57600000D03*
D37*
X32250000Y-61541500D03*
D38*
X103000000Y-69950000D03*
D37*
X22250000Y-67000000D03*
D39*
X64300000Y-56300000D03*
X63700000Y-53000000D03*
X54200000Y-54000000D03*
X90840000Y-70640000D03*
D37*
X22250000Y-61500000D03*
X62000000Y-50250000D03*
X22800000Y-62400000D03*
X45800000Y-66250000D03*
X38200000Y-66800000D03*
X30350000Y-59750000D03*
X37800000Y-67800000D03*
D39*
X161763173Y-57363173D03*
X168956747Y-66816099D03*
D37*
%TO.N,/Host Controller/SWITCH_2*%
X41600000Y-72600000D03*
%TO.N,/Host Controller/SWITCH_1*%
X43200000Y-74800000D03*
%TO.N,Net-(U601-SW)*%
X172800002Y-74240128D03*
X170006685Y-66800000D03*
X165000000Y-64600000D03*
X170800000Y-66812611D03*
X173600002Y-74240128D03*
X169997604Y-67599951D03*
X173600000Y-73440125D03*
X170800000Y-67588902D03*
X172800002Y-73440125D03*
D40*
%TO.N,VBUS*%
X172800000Y-70600000D03*
X101000000Y-68200000D03*
D38*
%TO.N,/Display/DIS1_D*%
X67300000Y-61200000D03*
D37*
%TO.N,Net-(D301-K)*%
X52250000Y-50250000D03*
%TO.N,/Host Controller/LOW_POWER_ENABLE*%
X60150002Y-57200000D03*
X90575221Y-74400000D03*
X65000000Y-65400000D03*
%TO.N,/Display/LED_BRIGHTNESS*%
X56500000Y-54000000D03*
X103600000Y-69000000D03*
X88250000Y-67000000D03*
D40*
%TO.N,/VBUS_IN*%
X98300000Y-74401532D03*
D37*
%TO.N,/Host Controller/UCPD_CC1*%
X94800000Y-71400000D03*
X62800000Y-74600000D03*
X45400000Y-74800000D03*
%TO.N,/Host Controller/UCPD_CC2*%
X61400000Y-73650000D03*
X44400000Y-74800000D03*
%TO.N,Net-(Q506-E)*%
X53183333Y-54616667D03*
X54600000Y-56000000D03*
%TO.N,Net-(R306-Pad2)*%
X38750000Y-77250000D03*
%TO.N,Net-(R307-Pad2)*%
X41000000Y-77250000D03*
%TO.N,/Host Controller/ST67_RDY*%
X34000000Y-62800000D03*
X27000000Y-57750000D03*
%TO.N,/Host Controller/ST67_CS*%
X23250000Y-60000000D03*
X34500000Y-65000000D03*
D38*
%TO.N,+3.3V*%
X108600000Y-66000000D03*
X52600000Y-59400000D03*
D37*
X92750000Y-68175000D03*
D38*
X168800000Y-55600000D03*
X166400000Y-58400000D03*
D37*
X94250000Y-64500000D03*
D38*
X47876000Y-59324000D03*
D37*
X23800000Y-74000000D03*
D38*
X94200000Y-56400000D03*
D37*
X29000000Y-74200000D03*
D40*
X35500000Y-70800000D03*
D38*
X21450000Y-55400000D03*
X29000000Y-54250000D03*
D37*
X105750000Y-74500000D03*
D38*
X92743114Y-58163215D03*
D40*
X35500000Y-58750000D03*
X171400000Y-56000000D03*
D37*
X26400000Y-74000000D03*
X37000000Y-75000000D03*
D40*
X59250000Y-52250000D03*
D37*
%TO.N,/Host Controller/ST67_SCK*%
X23250000Y-64750000D03*
X42800000Y-64400000D03*
D38*
%TO.N,/Display/DIS3_15*%
X129790000Y-58807405D03*
D37*
X100800000Y-59205331D03*
%TO.N,/Host Controller/ST67_TX*%
X26250000Y-60000000D03*
X37800000Y-64400000D03*
D38*
%TO.N,/Display/DIS3_3*%
X102000000Y-54400000D03*
%TO.N,/Display/DIS3_16*%
X128950000Y-57750000D03*
%TO.N,/Display/DIS3_10*%
X106200000Y-58800000D03*
X128000000Y-64600000D03*
X124400000Y-59200000D03*
%TO.N,/Display/DIS3_5*%
X103800000Y-53800000D03*
%TO.N,/Display/DIS3_1*%
X107200000Y-56000000D03*
%TO.N,/Display/DIS3_6*%
X104700000Y-53200000D03*
D37*
%TO.N,/Host Controller/ST67_MISO*%
X39000000Y-67500000D03*
X23400000Y-68200000D03*
%TO.N,/Host Controller/ST67_RX*%
X40933333Y-65000000D03*
X25000000Y-57750000D03*
%TO.N,/Host Controller/ST67_MOSI*%
X38000000Y-68800000D03*
X22500000Y-63250000D03*
D40*
%TO.N,/Display/VDD_DIG1*%
X88867715Y-56487183D03*
X66600000Y-66600000D03*
%TO.N,/Display/VDD_DIG2*%
X175000000Y-67400000D03*
%TO.N,/Display/VDD_DIG3*%
X130800000Y-56200000D03*
X113000000Y-56200000D03*
%TO.N,/Display/VDD_DIG4*%
X96359796Y-59799998D03*
X84000000Y-66800000D03*
%TO.N,/Display/VDD_DIG5*%
X135800000Y-54600000D03*
X118200000Y-54600000D03*
X156825215Y-56025215D03*
D37*
%TO.N,/Display/SCT1_SDO*%
X97600000Y-52900000D03*
X61200000Y-57600000D03*
%TO.N,/Display/SCT3_SDO*%
X98800000Y-67600000D03*
X174100000Y-55900000D03*
%TO.N,/Display/SCT_CLK_F*%
X175700000Y-56100000D03*
X98287500Y-59950000D03*
X98700000Y-53300000D03*
%TO.N,/Display/DISPLAY3_EN*%
X146000000Y-57600000D03*
%TO.N,/Display/DISPLAY4_EN*%
X137400000Y-57300000D03*
%TO.N,/Display/DISPLAY2_EN*%
X129400000Y-64200000D03*
%TO.N,/Display/~{SCT_EN}*%
X61500000Y-58750000D03*
X101200000Y-65200000D03*
X99050000Y-58350000D03*
X173600000Y-61000000D03*
X97400000Y-62400000D03*
X97700000Y-55600000D03*
%TO.N,/Display/DISPLAY5_EN*%
X150800000Y-58400000D03*
%TO.N,/Display/~{SCT_LA}*%
X99787325Y-59546465D03*
X103100000Y-65300000D03*
X67100000Y-56700000D03*
X99143231Y-55000000D03*
X176600000Y-56300000D03*
X96700000Y-55400000D03*
%TO.N,/Display/DISPLAY1_EN*%
X124000000Y-62800000D03*
%TO.N,/Host Controller/SWDIO*%
X47000000Y-66800000D03*
%TO.N,/Host Controller/SWCLK*%
X49200000Y-66600000D03*
%TO.N,/Display/SCT_SDI*%
X62250000Y-60250000D03*
%TO.N,/Host Controller/VOLTAGE_SENS_FLTR*%
X46250000Y-69000000D03*
%TO.N,/Host Controller/CURRENT_SENSE_FLTR*%
X45750000Y-71250000D03*
%TO.N,/Display/SCT_CLK_F*%
X103800000Y-66200000D03*
%TD*%
D41*
%TO.N,GND*%
X63700000Y-54400000D02*
X63750000Y-54200000D01*
X63750000Y-54200000D02*
X62950000Y-55000000D01*
X62950000Y-53000000D02*
X63700000Y-53000000D01*
D42*
%TO.N,/Display/DIS5_D*%
X189930000Y-70000000D02*
X193680000Y-73750000D01*
X193680000Y-73750000D02*
X193680000Y-74810000D01*
X178600000Y-68000000D02*
X180600000Y-70000000D01*
X178600000Y-65800000D02*
X178600000Y-68000000D01*
X176225000Y-63425000D02*
X178600000Y-65800000D01*
X176225000Y-58000000D02*
X176225000Y-63425000D01*
X180600000Y-70000000D02*
X189930000Y-70000000D01*
D43*
%TO.N,/Display/VDD_LED*%
X152900000Y-54400000D02*
X153550000Y-55050000D01*
X149600000Y-54400000D02*
X152900000Y-54400000D01*
D42*
%TO.N,/Display/DIS1_A*%
X76420000Y-54080000D02*
X76420000Y-53190000D01*
X74600000Y-55900000D02*
X76420000Y-54080000D01*
X72700000Y-55900000D02*
X74600000Y-55900000D01*
X69300000Y-59300000D02*
X72700000Y-55900000D01*
X68100000Y-59300000D02*
X69300000Y-59300000D01*
X66265000Y-61135000D02*
X68100000Y-59300000D01*
X64200000Y-61135000D02*
X66265000Y-61135000D01*
D44*
%TO.N,VBUS*%
X101700000Y-70987500D02*
X101662500Y-70950000D01*
X101700000Y-71700000D02*
X101700000Y-70987500D01*
X102137500Y-72137500D02*
X101700000Y-71700000D01*
X102137500Y-72600000D02*
X102137500Y-72137500D01*
D41*
%TO.N,GND*%
X100976000Y-73838501D02*
X100687499Y-73550000D01*
X100687499Y-73550000D02*
X99862500Y-73550000D01*
X100976000Y-76249000D02*
X100976000Y-73838501D01*
X100475000Y-76750000D02*
X100976000Y-76249000D01*
%TO.N,/Display/SCT3_VDD*%
X95800000Y-66400000D02*
X96911500Y-66400000D01*
X95400000Y-66000000D02*
X95800000Y-66400000D01*
X95400000Y-65187500D02*
X95400000Y-66000000D01*
D44*
%TO.N,/Host Controller/CURRENT_SENSE*%
X49750000Y-70250000D02*
X49162500Y-70250000D01*
X51000000Y-69000000D02*
X49750000Y-70250000D01*
X58400000Y-69000000D02*
X51000000Y-69000000D01*
X98150000Y-77750000D02*
X67150000Y-77750000D01*
X99000000Y-75181250D02*
X99000000Y-76900000D01*
X67150000Y-77750000D02*
X58400000Y-69000000D01*
X99681250Y-74500000D02*
X99000000Y-75181250D01*
X99862500Y-74500000D02*
X99681250Y-74500000D01*
X99000000Y-76900000D02*
X98150000Y-77750000D01*
D43*
%TO.N,VBUS*%
X101662500Y-68862500D02*
X101662500Y-70950000D01*
X101000000Y-68200000D02*
X101662500Y-68862500D01*
D41*
%TO.N,GND*%
X91200000Y-70280000D02*
X91200000Y-69337500D01*
X90700000Y-70780000D02*
X91200000Y-70280000D01*
X90840000Y-70640000D02*
X90700000Y-70780000D01*
D42*
%TO.N,/Display/DIS1_B*%
X71340000Y-55860000D02*
X71340000Y-53190000D01*
X68600000Y-58600000D02*
X71340000Y-55860000D01*
X68000000Y-58600000D02*
X68600000Y-58600000D01*
X66100000Y-60500000D02*
X68000000Y-58600000D01*
X64200000Y-60500000D02*
X66100000Y-60500000D01*
%TO.N,/Display/DIS3_7*%
X106400000Y-50500000D02*
X109500000Y-53600000D01*
X104200000Y-50500000D02*
X106400000Y-50500000D01*
X103857500Y-50842500D02*
X104200000Y-50500000D01*
X103857500Y-51600000D02*
X103857500Y-50842500D01*
X109500000Y-53600000D02*
X113600000Y-53600000D01*
X113600000Y-53600000D02*
X113800000Y-53400000D01*
D44*
%TO.N,/Display/SCT2_SDO*%
X97612500Y-58787500D02*
X97612500Y-61200000D01*
X98777500Y-56800000D02*
X98777500Y-57622500D01*
X98777500Y-57622500D02*
X97612500Y-58787500D01*
%TO.N,/Display/~{SCT_EN}*%
X99412500Y-57987500D02*
X99412500Y-56800000D01*
X99050000Y-58350000D02*
X99412500Y-57987500D01*
D42*
%TO.N,/Display/DIS3_4*%
X114699000Y-58299000D02*
X115650000Y-59250000D01*
X111899000Y-58299000D02*
X114699000Y-58299000D01*
X115650000Y-59250000D02*
X115650000Y-60190000D01*
X101952500Y-53102500D02*
X103400000Y-54550000D01*
X103400000Y-54550000D02*
X108150000Y-54550000D01*
X108150000Y-54550000D02*
X111899000Y-58299000D01*
X101952500Y-51600000D02*
X101952500Y-53102500D01*
%TO.N,/Display/DIS3_5*%
X102587500Y-52687500D02*
X102587500Y-51600000D01*
X103700000Y-53800000D02*
X102587500Y-52687500D01*
X103800000Y-53800000D02*
X103700000Y-53800000D01*
%TO.N,/Display/DIS3_6*%
X104400000Y-52900000D02*
X103800000Y-52900000D01*
X103800000Y-52900000D02*
X103222500Y-52322500D01*
X103222500Y-52322500D02*
X103222500Y-51600000D01*
X104700000Y-53200000D02*
X104400000Y-52900000D01*
%TO.N,/Display/DIS3_16*%
X100047500Y-55647500D02*
X100000000Y-55600000D01*
X100047500Y-56800000D02*
X100047500Y-55647500D01*
%TO.N,/Display/DIS3_1*%
X101450000Y-55750000D02*
X100047500Y-54347500D01*
X106950000Y-55750000D02*
X101450000Y-55750000D01*
X107200000Y-56000000D02*
X106950000Y-55750000D01*
X100047500Y-54347500D02*
X100047500Y-51600000D01*
%TO.N,/Display/DIS3_2*%
X100682500Y-54182500D02*
X100682500Y-51600000D01*
X101650000Y-55150000D02*
X100682500Y-54182500D01*
X110570000Y-58035384D02*
X107684616Y-55150000D01*
X107684616Y-55150000D02*
X101650000Y-55150000D01*
X110570000Y-60190000D02*
X110570000Y-58035384D01*
%TO.N,/Display/DIS3_3*%
X101317500Y-53717500D02*
X101317500Y-51600000D01*
X102000000Y-54400000D02*
X101317500Y-53717500D01*
%TO.N,/Display/DIS3_9*%
X128350000Y-61050000D02*
X128350000Y-60190000D01*
X128000000Y-61400000D02*
X128350000Y-61050000D01*
X109800000Y-61400000D02*
X128000000Y-61400000D01*
X109300000Y-59600000D02*
X109300000Y-60900000D01*
X106500000Y-56800000D02*
X109300000Y-59600000D01*
X104492500Y-56800000D02*
X106500000Y-56800000D01*
X109300000Y-60900000D02*
X109800000Y-61400000D01*
%TO.N,/Display/DIS3_10*%
X103857500Y-57557500D02*
X103857500Y-56800000D01*
X105100000Y-58800000D02*
X103857500Y-57557500D01*
X106200000Y-58800000D02*
X105100000Y-58800000D01*
D44*
%TO.N,/Display/~{SCT_LA}*%
X98200000Y-54900000D02*
X98300000Y-55000000D01*
X97200000Y-54900000D02*
X98200000Y-54900000D01*
X98300000Y-55000000D02*
X99143231Y-55000000D01*
X96700000Y-55400000D02*
X97200000Y-54900000D01*
D42*
%TO.N,/Display/DIS3_15*%
X100682500Y-59087831D02*
X100682500Y-56800000D01*
X100800000Y-59205331D02*
X100682500Y-59087831D01*
%TO.N,/Display/DIS3_17*%
X146130000Y-68770000D02*
X146130000Y-67810000D01*
X141900000Y-73000000D02*
X146130000Y-68770000D01*
X122200000Y-73000000D02*
X141900000Y-73000000D01*
X107108520Y-70600000D02*
X119800000Y-70600000D01*
X101634960Y-62652000D02*
X105500000Y-66517040D01*
X100252000Y-62652000D02*
X101634960Y-62652000D01*
X105500000Y-66517040D02*
X105500000Y-68991480D01*
X105500000Y-68991480D02*
X107108520Y-70600000D01*
X99517500Y-61917500D02*
X100252000Y-62652000D01*
X119800000Y-70600000D02*
X122200000Y-73000000D01*
X99517500Y-61200000D02*
X99517500Y-61917500D01*
%TO.N,/Display/DIS3_19*%
X151210000Y-67010000D02*
X151210000Y-67810000D01*
X150600000Y-66400000D02*
X151210000Y-67010000D01*
X142400000Y-66400000D02*
X150600000Y-66400000D01*
X141800000Y-67000000D02*
X142400000Y-66400000D01*
X141800000Y-68800000D02*
X141800000Y-67000000D01*
X138200000Y-72400000D02*
X141800000Y-68800000D01*
X122600000Y-72400000D02*
X138200000Y-72400000D01*
X107291482Y-70000000D02*
X120200000Y-70000000D01*
X106100000Y-66254260D02*
X106100000Y-68808518D01*
X101996740Y-62151000D02*
X106100000Y-66254260D01*
X120200000Y-70000000D02*
X122600000Y-72400000D01*
X101000000Y-62151000D02*
X101996740Y-62151000D01*
X100787500Y-61938500D02*
X101000000Y-62151000D01*
X100787500Y-61200000D02*
X100787500Y-61938500D01*
X106100000Y-68808518D02*
X107291482Y-70000000D01*
%TO.N,/Display/DIS3_20*%
X153750000Y-66950000D02*
X153750000Y-67810000D01*
X152400000Y-65600000D02*
X153750000Y-66950000D01*
X142000000Y-65600000D02*
X152400000Y-65600000D01*
X141000000Y-66600000D02*
X142000000Y-65600000D01*
X141000000Y-68600000D02*
X141000000Y-66600000D01*
X137800000Y-71800000D02*
X141000000Y-68600000D01*
X123050000Y-71800000D02*
X137800000Y-71800000D01*
X120650000Y-69400000D02*
X123050000Y-71800000D01*
X107400002Y-69400000D02*
X120650000Y-69400000D01*
X106700000Y-65900000D02*
X106700000Y-68699998D01*
X106700000Y-68699998D02*
X107400002Y-69400000D01*
X101422500Y-61200000D02*
X102000000Y-61200000D01*
X102000000Y-61200000D02*
X106700000Y-65900000D01*
D44*
%TO.N,/Display/SCT_CLK_F*%
X98700000Y-53300000D02*
X98777500Y-53022500D01*
X98777500Y-53022500D02*
X98777500Y-51600000D01*
%TO.N,/Display/SCT1_SDO*%
X98142500Y-52357500D02*
X98142500Y-51600000D01*
X97600000Y-52900000D02*
X98142500Y-52357500D01*
%TO.N,/Display/~{SCT_EN}*%
X99412500Y-56012500D02*
X99412500Y-56800000D01*
X99100000Y-55700000D02*
X99412500Y-56012500D01*
X97700000Y-55700000D02*
X99100000Y-55700000D01*
X97700000Y-55600000D02*
X97700000Y-55700000D01*
%TO.N,/Display/~{SCT_LA}*%
X99412500Y-53535000D02*
X99412500Y-51600000D01*
X99500000Y-53622500D02*
X99412500Y-53535000D01*
X99500000Y-54443231D02*
X99500000Y-53622500D01*
X99143231Y-55000000D02*
X99500000Y-54443231D01*
D42*
%TO.N,/Display/DIS3_10*%
X128350000Y-64950000D02*
X128350000Y-67810000D01*
X128000000Y-64600000D02*
X128350000Y-64950000D01*
D44*
%TO.N,/Display/~{SCT_LA}*%
X173685000Y-53650000D02*
X173685000Y-52800000D01*
X174235000Y-54200000D02*
X173685000Y-53650000D01*
X175000000Y-54200000D02*
X174235000Y-54200000D01*
X176600000Y-56300000D02*
X176600000Y-55800000D01*
X176600000Y-55800000D02*
X175000000Y-54200000D01*
%TO.N,/Display/SCT_CLK_F*%
X173050000Y-53950000D02*
X173050000Y-52800000D01*
X174100000Y-55000000D02*
X173050000Y-53950000D01*
X175700000Y-56000000D02*
X174700000Y-55000000D01*
X174700000Y-55000000D02*
X174100000Y-55000000D01*
X175700000Y-56100000D02*
X175700000Y-56000000D01*
%TO.N,/Display/SCT3_SDO*%
X172415000Y-54215000D02*
X172415000Y-52800000D01*
X174100000Y-55900000D02*
X172415000Y-54215000D01*
D42*
%TO.N,/Display/DIS1_F*%
X68800000Y-57091480D02*
X68800000Y-53190000D01*
X66026480Y-59865000D02*
X68800000Y-57091480D01*
X64200000Y-59865000D02*
X66026480Y-59865000D01*
D44*
%TO.N,/Display/~{SCT_LA}*%
X65768059Y-59230000D02*
X64200000Y-59230000D01*
X67100000Y-57900000D02*
X65768059Y-59230000D01*
X67100000Y-56700000D02*
X67100000Y-57900000D01*
%TO.N,/Display/SCT_CLK_F*%
X65448463Y-58595000D02*
X64200000Y-58595000D01*
X65671731Y-58371732D02*
X65448463Y-58595000D01*
%TO.N,/Host Controller/SWDIO*%
X47000000Y-66600000D02*
X47000000Y-66800000D01*
X50700000Y-54943904D02*
X50700000Y-62900000D01*
X49878048Y-54121952D02*
X50700000Y-54943904D01*
X47221952Y-54121952D02*
X49878048Y-54121952D01*
X50700000Y-62900000D02*
X47000000Y-66600000D01*
X46900000Y-53800000D02*
X47221952Y-54121952D01*
X43500000Y-52550000D02*
X44750000Y-53800000D01*
X43500000Y-52500000D02*
X43500000Y-52550000D01*
X44750000Y-53800000D02*
X46900000Y-53800000D01*
%TO.N,/Host Controller/SWCLK*%
X49200000Y-66000000D02*
X49200000Y-66600000D01*
X51700000Y-63500000D02*
X49200000Y-66000000D01*
X51700000Y-52600000D02*
X51700000Y-63500000D01*
X50400000Y-51300000D02*
X51700000Y-52600000D01*
X47500000Y-51800000D02*
X48000000Y-51300000D01*
X47500000Y-52500000D02*
X47500000Y-51800000D01*
X48000000Y-51300000D02*
X50400000Y-51300000D01*
%TO.N,/Host Controller/ST67_RX*%
X39800000Y-63600000D02*
X40933333Y-65000000D01*
X32800000Y-63600000D02*
X39800000Y-63600000D01*
X28000000Y-58800000D02*
X32800000Y-63600000D01*
X26645745Y-58800000D02*
X28000000Y-58800000D01*
X25595745Y-57750000D02*
X26645745Y-58800000D01*
X25000000Y-57750000D02*
X25595745Y-57750000D01*
%TO.N,/Host Controller/ST67_SCK*%
X30087500Y-68000000D02*
X25600000Y-68000000D01*
X32287500Y-65800000D02*
X30087500Y-68000000D01*
X41400000Y-65800000D02*
X32287500Y-65800000D01*
X42800000Y-64400000D02*
X41400000Y-65800000D01*
X25600000Y-68000000D02*
X23250000Y-65650000D01*
X23250000Y-65650000D02*
X23250000Y-64750000D01*
%TO.N,/Host Controller/ST67_RDY*%
X29600000Y-57800000D02*
X27050000Y-57800000D01*
X27050000Y-57800000D02*
X27000000Y-57750000D01*
X34000000Y-62200000D02*
X29600000Y-57800000D01*
X34000000Y-62800000D02*
X34000000Y-62200000D01*
%TO.N,/Host Controller/ST67_CS*%
X26400000Y-61400000D02*
X25000000Y-60000000D01*
X28650000Y-61400000D02*
X26400000Y-61400000D01*
X32250000Y-65000000D02*
X28650000Y-61400000D01*
X34500000Y-65000000D02*
X32250000Y-65000000D01*
X25000000Y-60000000D02*
X23250000Y-60000000D01*
%TO.N,/Host Controller/ST67_TX*%
X27800000Y-59800000D02*
X26450000Y-59800000D01*
X32200000Y-64200000D02*
X27800000Y-59800000D01*
X37600000Y-64200000D02*
X32200000Y-64200000D01*
X26450000Y-59800000D02*
X26250000Y-60000000D01*
X37800000Y-64400000D02*
X37600000Y-64200000D01*
D42*
%TO.N,/Display/DIS3_8*%
X125810000Y-59410000D02*
X125810000Y-60190000D01*
X112200000Y-57400000D02*
X123800000Y-57400000D01*
X123800000Y-57400000D02*
X125810000Y-59410000D01*
X106450000Y-51650000D02*
X112200000Y-57400000D01*
X104442500Y-51650000D02*
X106450000Y-51650000D01*
D44*
%TO.N,Net-(Q507-E)*%
X93200000Y-57000000D02*
X93392831Y-57000000D01*
X94042831Y-57650000D02*
X94392831Y-57650000D01*
X92042831Y-55842831D02*
X93200000Y-57000000D01*
X92042831Y-55242831D02*
X92042831Y-55842831D01*
X91130331Y-54330331D02*
X92042831Y-55242831D01*
X93392831Y-57000000D02*
X94042831Y-57650000D01*
X91130331Y-53762500D02*
X91130331Y-54330331D01*
D41*
%TO.N,GND*%
X57000000Y-57600000D02*
X57112500Y-57687500D01*
X57112500Y-57687500D02*
X57112500Y-56850000D01*
D42*
%TO.N,/Display/DIS4_C*%
X183520000Y-59790000D02*
X183520000Y-60810000D01*
X180785000Y-58600000D02*
X182330000Y-58600000D01*
X176225000Y-54040000D02*
X180785000Y-58600000D01*
X182330000Y-58600000D02*
X183520000Y-59790000D01*
X176225000Y-52800000D02*
X176225000Y-54040000D01*
%TO.N,/Display/DIS4_DP*%
X186060000Y-59730000D02*
X186060000Y-60810000D01*
X184130000Y-57800000D02*
X186060000Y-59730000D01*
X180812960Y-57800000D02*
X184130000Y-57800000D01*
X176860000Y-52800000D02*
X176860000Y-53847040D01*
X176860000Y-53847040D02*
X180812960Y-57800000D01*
%TO.N,/Display/DIS4_E*%
X188330000Y-57000000D02*
X191140000Y-59810000D01*
X180721480Y-57000000D02*
X188330000Y-57000000D01*
X177495000Y-53773520D02*
X180721480Y-57000000D01*
X177495000Y-52800000D02*
X177495000Y-53773520D01*
X191140000Y-59810000D02*
X191140000Y-60810000D01*
%TO.N,/Display/DIS4_D*%
X193680000Y-59750000D02*
X193680000Y-60810000D01*
X180630000Y-56200000D02*
X190130000Y-56200000D01*
X178130000Y-53700000D02*
X180630000Y-56200000D01*
X190130000Y-56200000D02*
X193680000Y-59750000D01*
X178130000Y-52800000D02*
X178130000Y-53700000D01*
%TO.N,/Display/DIS4_G*%
X191930000Y-55400000D02*
X196220000Y-59690000D01*
X180730000Y-55400000D02*
X191930000Y-55400000D01*
X196220000Y-59690000D02*
X196220000Y-60810000D01*
X178765000Y-53435000D02*
X180730000Y-55400000D01*
X178765000Y-52800000D02*
X178765000Y-53435000D01*
D41*
%TO.N,Net-(U601-SW)*%
X172640125Y-73440125D02*
X172800002Y-73440125D01*
X170800000Y-71600000D02*
X172640125Y-73440125D01*
X170800000Y-66812611D02*
X170800000Y-71600000D01*
D44*
%TO.N,/Display/LED_BRIGHTNESS*%
X164062500Y-60937500D02*
X164835000Y-60937500D01*
X163000000Y-62000000D02*
X164062500Y-60937500D01*
X147200000Y-70200000D02*
X157600000Y-70200000D01*
X157600000Y-70200000D02*
X163000000Y-64800000D01*
X163000000Y-64800000D02*
X163000000Y-62000000D01*
X143000000Y-74400000D02*
X147200000Y-70200000D01*
X110000000Y-74400000D02*
X143000000Y-74400000D01*
D42*
%TO.N,/Display/DIS3_21*%
X156290000Y-68710000D02*
X156290000Y-67810000D01*
X155600000Y-69400000D02*
X156290000Y-68710000D01*
X146600000Y-69400000D02*
X155600000Y-69400000D01*
X107000000Y-71200000D02*
X119400000Y-71200000D01*
X102200000Y-66400000D02*
X107000000Y-71200000D01*
X119400000Y-71200000D02*
X121800000Y-73600000D01*
X121800000Y-73600000D02*
X142400000Y-73600000D01*
X142400000Y-73600000D02*
X146600000Y-69400000D01*
X101422500Y-66400000D02*
X102200000Y-66400000D01*
%TO.N,/Display/DIS3_18*%
X151210000Y-63190000D02*
X151210000Y-60190000D01*
X149600000Y-64800000D02*
X151210000Y-63190000D01*
X141600000Y-64800000D02*
X149600000Y-64800000D01*
X140299000Y-66101000D02*
X141600000Y-64800000D01*
X140299000Y-68301000D02*
X140299000Y-66101000D01*
X137400000Y-71200000D02*
X140299000Y-68301000D01*
X123500000Y-71200000D02*
X137400000Y-71200000D01*
X122000000Y-69700000D02*
X123500000Y-71200000D01*
X101800000Y-60000000D02*
X106800000Y-65000000D01*
X100400000Y-60000000D02*
X101800000Y-60000000D01*
X120200000Y-65000000D02*
X122000000Y-66800000D01*
X100152500Y-60247500D02*
X100400000Y-60000000D01*
X122000000Y-66800000D02*
X122000000Y-69700000D01*
X100152500Y-61200000D02*
X100152500Y-60247500D01*
X106800000Y-65000000D02*
X120200000Y-65000000D01*
D41*
%TO.N,+3.3V*%
X57750000Y-71750000D02*
X56775000Y-71750000D01*
X58400000Y-72400000D02*
X57750000Y-71750000D01*
X58400000Y-72800000D02*
X58400000Y-72400000D01*
%TO.N,GND*%
X54025000Y-72175000D02*
X54025000Y-72800000D01*
X54675000Y-71525000D02*
X54025000Y-72175000D01*
X54975000Y-71525000D02*
X54675000Y-71525000D01*
X54025000Y-72800000D02*
X54025000Y-73800000D01*
D44*
%TO.N,/Host Controller/ST67_MISO*%
X23800000Y-68200000D02*
X23400000Y-68200000D01*
X25200000Y-69600000D02*
X23800000Y-68200000D01*
X39000000Y-69000000D02*
X38400000Y-69600000D01*
X38400000Y-69600000D02*
X25200000Y-69600000D01*
X39000000Y-67500000D02*
X39000000Y-69000000D01*
%TO.N,/Host Controller/SWITCH_2*%
X35500000Y-75000000D02*
X35500000Y-75750000D01*
X39950000Y-74250000D02*
X36250000Y-74250000D01*
X41600000Y-72600000D02*
X39950000Y-74250000D01*
X36250000Y-74250000D02*
X35500000Y-75000000D01*
%TO.N,/Host Controller/SWITCH_1*%
X43200000Y-74800000D02*
X43300000Y-74800000D01*
X43300000Y-74800000D02*
X44250000Y-75750000D01*
%TO.N,/Host Controller/ST67_CHIP_EN*%
X37250000Y-62750000D02*
X33250000Y-58750000D01*
X38000000Y-62750000D02*
X37250000Y-62750000D01*
D43*
%TO.N,VDD*%
X160600000Y-63000000D02*
X161800000Y-61800000D01*
X159400000Y-64200000D02*
X159400000Y-63000000D01*
X161800000Y-61800000D02*
X161800000Y-59875000D01*
X161800000Y-59875000D02*
X163200000Y-58175000D01*
X158000000Y-65600000D02*
X159400000Y-64200000D01*
X158000000Y-66400000D02*
X158000000Y-65600000D01*
X159400000Y-63000000D02*
X160600000Y-63000000D01*
D41*
%TO.N,GND*%
X95200000Y-51950000D02*
X96650000Y-51950000D01*
X165585000Y-51815000D02*
X165600000Y-51800000D01*
X93200000Y-51950000D02*
X93200000Y-51200000D01*
D43*
X161150000Y-56750000D02*
X161763173Y-57363173D01*
D41*
X165800000Y-61800000D02*
X165785000Y-61137500D01*
X169585000Y-52650000D02*
X169585000Y-51615000D01*
X91200000Y-51050000D02*
X91250000Y-51000000D01*
D44*
X43050000Y-70250000D02*
X43050000Y-68250000D01*
D41*
X55062500Y-54050000D02*
X54250000Y-54050000D01*
X101975000Y-76200000D02*
X101025000Y-76200000D01*
X62950000Y-55700000D02*
X64200000Y-56950000D01*
X100475000Y-76750000D02*
X100475000Y-76450000D01*
X165585000Y-52687500D02*
X167547500Y-52687500D01*
X165585000Y-52687500D02*
X165585000Y-51815000D01*
X62950000Y-55000000D02*
X62950000Y-55700000D01*
D44*
X46500000Y-50250000D02*
X45500000Y-51250000D01*
X46050000Y-77350000D02*
X45750000Y-77350000D01*
D41*
X63000000Y-54950000D02*
X62950000Y-55000000D01*
D43*
X161150000Y-56400000D02*
X161150000Y-56750000D01*
D41*
X94250000Y-61487500D02*
X95187500Y-61487500D01*
X93237500Y-61487500D02*
X93237500Y-60762500D01*
X93187500Y-51937500D02*
X93200000Y-51950000D01*
X167585000Y-51815000D02*
X167600000Y-51800000D01*
X93237500Y-61487500D02*
X94250000Y-61487500D01*
X169585000Y-51615000D02*
X169600000Y-51600000D01*
X94300000Y-61537500D02*
X94250000Y-61487500D01*
X62950000Y-53000000D02*
X63000000Y-53050000D01*
X167585000Y-52650000D02*
X169585000Y-52650000D01*
X91200000Y-61487500D02*
X93237500Y-61487500D01*
X63400000Y-77662500D02*
X61337500Y-77662500D01*
X63000000Y-53050000D02*
X63000000Y-54950000D01*
D44*
X45500000Y-51250000D02*
X45500000Y-52500000D01*
D41*
X95200000Y-51950000D02*
X95200000Y-51450000D01*
X54250000Y-54050000D02*
X54200000Y-54000000D01*
D44*
X43050000Y-67700000D02*
X44000000Y-66750000D01*
D41*
X95237500Y-61537500D02*
X96262500Y-61537500D01*
X91130331Y-51937500D02*
X93187500Y-51937500D01*
X101025000Y-76200000D02*
X100475000Y-76750000D01*
D44*
X43050000Y-68250000D02*
X43050000Y-67700000D01*
D41*
X95237500Y-61537500D02*
X94300000Y-61537500D01*
X169585000Y-52650000D02*
X170835000Y-52650000D01*
X170835000Y-52650000D02*
X170985000Y-52800000D01*
D44*
X49062500Y-50250000D02*
X46500000Y-50250000D01*
D41*
X64200000Y-56950000D02*
X64200000Y-57259000D01*
X61400000Y-77600000D02*
X61200000Y-77800000D01*
X96262500Y-61537500D02*
X96706250Y-61093750D01*
X96650000Y-51950000D02*
X96950000Y-51650000D01*
X91200000Y-61487500D02*
X91200000Y-59737500D01*
X100475000Y-76450000D02*
X100275000Y-76250000D01*
X167585000Y-52650000D02*
X167585000Y-51815000D01*
X170985000Y-52800000D02*
X171714000Y-52800000D01*
D44*
X32850000Y-77350000D02*
X32750000Y-77250000D01*
D41*
X93200000Y-51950000D02*
X95200000Y-51950000D01*
X61337500Y-77662500D02*
X61200000Y-77800000D01*
X91200000Y-51937500D02*
X91200000Y-51050000D01*
X93200000Y-51200000D02*
X93000000Y-51000000D01*
X95187500Y-61487500D02*
X95237500Y-61537500D01*
X95200000Y-51450000D02*
X94436827Y-50686827D01*
X96950000Y-51650000D02*
X97391500Y-51650000D01*
D44*
X34000000Y-77350000D02*
X32850000Y-77350000D01*
D41*
X93237500Y-60762500D02*
X93250000Y-60750000D01*
D44*
X47200000Y-76200000D02*
X46050000Y-77350000D01*
D41*
X96706250Y-61093750D02*
X96949000Y-61093750D01*
X61400000Y-76412500D02*
X61400000Y-77600000D01*
D44*
%TO.N,/Host Controller/SWITCH_2*%
X35500000Y-75750000D02*
X34050000Y-75750000D01*
X34050000Y-75750000D02*
X34000000Y-75800000D01*
%TO.N,/Host Controller/SWITCH_1*%
X44250000Y-75750000D02*
X45700000Y-75750000D01*
X45700000Y-75750000D02*
X45750000Y-75800000D01*
D41*
%TO.N,Net-(U601-SW)*%
X168200000Y-64600000D02*
X165000000Y-64600000D01*
X172800002Y-73399999D02*
X172800002Y-74200002D01*
X172800000Y-74200000D02*
X173600000Y-74200000D01*
X170006685Y-66759875D02*
X170006685Y-67550745D01*
X173600000Y-73399999D02*
X173600000Y-74200000D01*
X169997604Y-67559826D02*
X170788951Y-67559826D01*
X170006685Y-66800000D02*
X170000000Y-66416576D01*
X170000000Y-66416576D02*
X168200000Y-64600000D01*
X172800000Y-73399997D02*
X173599998Y-73399997D01*
X169997604Y-66772326D02*
X170788951Y-66772326D01*
D42*
%TO.N,/Display/DIS1_DP*%
X72560000Y-63040000D02*
X73880000Y-61720000D01*
X73880000Y-61720000D02*
X73880000Y-60810000D01*
X64200000Y-63040000D02*
X72560000Y-63040000D01*
%TO.N,/Display/DIS1_C*%
X71340000Y-61660000D02*
X71340000Y-60810000D01*
X70595000Y-62405000D02*
X71340000Y-61660000D01*
X64200000Y-62405000D02*
X70595000Y-62405000D01*
%TO.N,/Display/DIS1_E*%
X74200000Y-62600000D02*
X78100000Y-62600000D01*
X78960000Y-61740000D02*
X78960000Y-60810000D01*
X73125000Y-63675000D02*
X74200000Y-62600000D01*
X64200000Y-63675000D02*
X73125000Y-63675000D01*
X78100000Y-62600000D02*
X78960000Y-61740000D01*
%TO.N,/Display/DIS1_G*%
X84040000Y-61760000D02*
X84040000Y-60810000D01*
X82400000Y-63400000D02*
X84040000Y-61760000D01*
X74600000Y-63400000D02*
X82400000Y-63400000D01*
X64200000Y-64310000D02*
X73690000Y-64310000D01*
X73690000Y-64310000D02*
X74600000Y-63400000D01*
%TO.N,/Display/DIS1_D*%
X66730000Y-61770000D02*
X67300000Y-61200000D01*
X65730000Y-61770000D02*
X66730000Y-61770000D01*
X64200000Y-61770000D02*
X65730000Y-61770000D01*
%TO.N,/Display/DIS2_G*%
X84080000Y-73820000D02*
X84080000Y-74810000D01*
X61250000Y-62941536D02*
X61250000Y-65850000D01*
X61250000Y-65850000D02*
X65650000Y-70250000D01*
X59000000Y-61770000D02*
X60078464Y-61770000D01*
X65650000Y-70250000D02*
X80510000Y-70250000D01*
X80510000Y-70250000D02*
X84080000Y-73820000D01*
X60078464Y-61770000D02*
X61250000Y-62941536D01*
%TO.N,/Display/DIS2_DP*%
X59000000Y-66600000D02*
X64900000Y-72500000D01*
X64900000Y-72500000D02*
X72625000Y-72500000D01*
X73920000Y-73795000D02*
X73920000Y-74810000D01*
X59000000Y-64310000D02*
X59000000Y-66600000D01*
X72625000Y-72500000D02*
X73920000Y-73795000D01*
%TO.N,/Display/DIS2_D*%
X60699000Y-63169768D02*
X60699000Y-66299000D01*
X81540000Y-73800000D02*
X81540000Y-74810000D01*
X59934232Y-62405000D02*
X60699000Y-63169768D01*
X78740000Y-71000000D02*
X81540000Y-73800000D01*
X59000000Y-62405000D02*
X59934232Y-62405000D01*
X60699000Y-66299000D02*
X65400000Y-71000000D01*
X65400000Y-71000000D02*
X78740000Y-71000000D01*
%TO.N,/Display/DIS2_E*%
X60148000Y-63398000D02*
X60148000Y-66748000D01*
X59790000Y-63040000D02*
X60148000Y-63398000D01*
X59000000Y-63040000D02*
X59790000Y-63040000D01*
X60148000Y-66748000D02*
X65150000Y-71750000D01*
X65150000Y-71750000D02*
X77000000Y-71750000D01*
X79000000Y-73750000D02*
X79000000Y-74810000D01*
X77000000Y-71750000D02*
X79000000Y-73750000D01*
%TO.N,/Display/DIS2_C*%
X64675000Y-73250000D02*
X70785000Y-73250000D01*
X58033000Y-63675000D02*
X57999000Y-63709000D01*
X71380000Y-73845000D02*
X71380000Y-74810000D01*
X57999000Y-63709000D02*
X57999000Y-66574000D01*
X59000000Y-63675000D02*
X58033000Y-63675000D01*
X70785000Y-73250000D02*
X71380000Y-73845000D01*
X57999000Y-66574000D02*
X64675000Y-73250000D01*
%TO.N,/Display/DIS2_B*%
X60529232Y-60500000D02*
X62449000Y-62419768D01*
X71380000Y-68120000D02*
X71380000Y-67190000D01*
X59000000Y-60500000D02*
X60529232Y-60500000D01*
X66000000Y-68750000D02*
X70750000Y-68750000D01*
X70750000Y-68750000D02*
X71380000Y-68120000D01*
X62449000Y-65199000D02*
X66000000Y-68750000D01*
X62449000Y-62419768D02*
X62449000Y-65199000D01*
%TO.N,/Display/DIS2_F*%
X59000000Y-59865000D02*
X60673464Y-59865000D01*
X63000000Y-62191536D02*
X63000000Y-64800000D01*
X68030000Y-68000000D02*
X68840000Y-67190000D01*
X63000000Y-64800000D02*
X66200000Y-68000000D01*
X66200000Y-68000000D02*
X68030000Y-68000000D01*
X60673464Y-59865000D02*
X63000000Y-62191536D01*
D44*
%TO.N,Net-(D301-K)*%
X52250000Y-50250000D02*
X50937500Y-50250000D01*
%TO.N,/Host Controller/LOW_POWER_ENABLE*%
X90575221Y-74400000D02*
X85200000Y-69024779D01*
X85200000Y-66200000D02*
X84400000Y-65400000D01*
X85200000Y-69024779D02*
X85200000Y-66200000D01*
X84400000Y-65400000D02*
X65000000Y-65400000D01*
%TO.N,/Display/LED_BRIGHTNESS*%
X88250000Y-59737500D02*
X90250000Y-59737500D01*
X55600000Y-53100000D02*
X56500000Y-54000000D01*
X90250000Y-69337500D02*
X89837500Y-69337500D01*
X88250000Y-67750000D02*
X88250000Y-64850000D01*
X110000000Y-74400000D02*
X110000000Y-76115000D01*
X85200000Y-52000000D02*
X87289173Y-49910827D01*
X103689112Y-69089112D02*
X103600000Y-69000000D01*
X87400000Y-64000000D02*
X87400000Y-62000000D01*
X88250000Y-61000000D02*
X88250000Y-57450000D01*
X87400000Y-62000000D02*
X88250000Y-61150000D01*
X88250000Y-57450000D02*
X85200000Y-54400000D01*
X88250000Y-61150000D02*
X88250000Y-61000000D01*
X88250000Y-64850000D02*
X87400000Y-64000000D01*
X89837500Y-69337500D02*
X88250000Y-67750000D01*
X110000000Y-74400000D02*
X110000000Y-74200000D01*
X107000000Y-72200000D02*
X103889112Y-69089112D01*
X85200000Y-54400000D02*
X85200000Y-52000000D01*
X108000000Y-72200000D02*
X107000000Y-72200000D01*
X107910827Y-49910827D02*
X110000000Y-52000000D01*
X110000000Y-74200000D02*
X108000000Y-72200000D01*
X88250000Y-61000000D02*
X88250000Y-59737500D01*
X55062500Y-53100000D02*
X55600000Y-53100000D01*
X103889112Y-69089112D02*
X103689112Y-69089112D01*
X87289173Y-49910827D02*
X107910827Y-49910827D01*
%TO.N,/VBUS_IN*%
X99862500Y-72600000D02*
X98450000Y-72600000D01*
X97735000Y-76250000D02*
X96985000Y-77000000D01*
D43*
X98300000Y-74450000D02*
X98300000Y-74401532D01*
X98300000Y-71387500D02*
X98300000Y-72450000D01*
X97750000Y-76235000D02*
X97750000Y-75000000D01*
D44*
X58650000Y-68250000D02*
X49162500Y-68250000D01*
X98450000Y-72600000D02*
X98300000Y-72450000D01*
D43*
X98300000Y-72450000D02*
X98300000Y-74401532D01*
X98737500Y-70950000D02*
X98300000Y-71387500D01*
D44*
X96985000Y-77000000D02*
X67400000Y-77000000D01*
D43*
X97735000Y-76250000D02*
X97750000Y-76235000D01*
D44*
X67400000Y-77000000D02*
X58650000Y-68250000D01*
D43*
X97750000Y-75000000D02*
X98300000Y-74450000D01*
D44*
%TO.N,/Host Controller/UCPD_CC1*%
X62800000Y-74600000D02*
X63400000Y-75200000D01*
X63400000Y-75200000D02*
X63400000Y-75837500D01*
%TO.N,/Host Controller/UCPD_CC2*%
X61400000Y-74587500D02*
X61400000Y-73650000D01*
X61400000Y-74587500D02*
X61750000Y-74237500D01*
D42*
%TO.N,/Display/DIS2_A*%
X59000000Y-61135000D02*
X60385000Y-61135000D01*
X76460000Y-68165000D02*
X76460000Y-67190000D01*
X75125000Y-69500000D02*
X76460000Y-68165000D01*
X61898000Y-62648000D02*
X61898000Y-65498000D01*
X61898000Y-65498000D02*
X65900000Y-69500000D01*
X60385000Y-61135000D02*
X61898000Y-62648000D01*
X65900000Y-69500000D02*
X75125000Y-69500000D01*
D44*
%TO.N,Net-(Q506-E)*%
X55262500Y-58700000D02*
X55262500Y-56875000D01*
X53550000Y-51250000D02*
X53400000Y-51400000D01*
X52800000Y-54200000D02*
X52800000Y-52000000D01*
X52800000Y-52000000D02*
X53400000Y-51400000D01*
X54600000Y-56000000D02*
X54600000Y-56162500D01*
X53183333Y-54616667D02*
X52800000Y-54200000D01*
X55262500Y-56875000D02*
X55287500Y-56850000D01*
X55487500Y-51250000D02*
X53550000Y-51250000D01*
X54600000Y-56162500D02*
X55287500Y-56850000D01*
%TO.N,Net-(Q506-B)*%
X55262500Y-60600000D02*
X54400000Y-60600000D01*
X54200000Y-58347678D02*
X54200000Y-56556009D01*
X54200000Y-59052322D02*
X54199000Y-59051322D01*
X54200000Y-56556009D02*
X53924000Y-56280009D01*
X54400000Y-55000000D02*
X55062500Y-55000000D01*
X53924000Y-55476000D02*
X54400000Y-55000000D01*
X54400000Y-60600000D02*
X54200000Y-60400000D01*
X54199000Y-59051322D02*
X54199000Y-58348678D01*
X54199000Y-58348678D02*
X54200000Y-58347678D01*
X54200000Y-60400000D02*
X54200000Y-59052322D01*
X53924000Y-56280009D02*
X53924000Y-55476000D01*
%TO.N,Net-(Q507-E)*%
X89362500Y-53762500D02*
X89000000Y-53400000D01*
X91200000Y-53762500D02*
X89362500Y-53762500D01*
%TO.N,Net-(Q507-B)*%
X93062500Y-59737500D02*
X92150000Y-59737500D01*
X93250000Y-59550000D02*
X93062500Y-59737500D01*
X94392831Y-59550000D02*
X93250000Y-59550000D01*
%TO.N,/Display/SCT2_REXT*%
X98142500Y-57457500D02*
X97000000Y-58600000D01*
X97000000Y-58600000D02*
X96267831Y-58600000D01*
X98142500Y-56800000D02*
X98142500Y-57457500D01*
%TO.N,Net-(Q508-E)*%
X91950000Y-65200000D02*
X93800000Y-67050000D01*
X91200000Y-63312500D02*
X91200000Y-63700000D01*
X91200000Y-63312500D02*
X89312500Y-63312500D01*
X91200000Y-63700000D02*
X91950000Y-64450000D01*
X93800000Y-67050000D02*
X94262500Y-67250000D01*
X91950000Y-64450000D02*
X91950000Y-65200000D01*
X89312500Y-63312500D02*
X89000000Y-63000000D01*
%TO.N,Net-(Q508-B)*%
X94262500Y-69150000D02*
X93250000Y-69150000D01*
X93062500Y-69337500D02*
X92150000Y-69337500D01*
X93250000Y-69150000D02*
X93062500Y-69337500D01*
%TO.N,Net-(Q509-B)*%
X167650000Y-60550000D02*
X167262500Y-60937500D01*
X168647500Y-60550000D02*
X167650000Y-60550000D01*
X167262500Y-60937500D02*
X166735000Y-60937500D01*
%TO.N,Net-(Q509-E)*%
X165572500Y-54500000D02*
X165585000Y-54512500D01*
X165585000Y-54912500D02*
X165585000Y-55200000D01*
X166297500Y-56800000D02*
X168147500Y-58650000D01*
X168147500Y-58650000D02*
X168647500Y-58650000D01*
X165585000Y-55200000D02*
X166297500Y-55912500D01*
X166297500Y-55912500D02*
X166297500Y-56800000D01*
X163250000Y-54500000D02*
X165572500Y-54500000D01*
%TO.N,/Display/SCT4_REXT*%
X170522500Y-59600000D02*
X171785000Y-59600000D01*
X172415000Y-58970000D02*
X172415000Y-58000000D01*
X171785000Y-59600000D02*
X172415000Y-58970000D01*
%TO.N,Net-(R306-Pad2)*%
X38600000Y-77400000D02*
X38750000Y-77250000D01*
X35500000Y-77400000D02*
X37000000Y-77400000D01*
X37000000Y-77400000D02*
X38600000Y-77400000D01*
%TO.N,Net-(R307-Pad2)*%
X41150000Y-77400000D02*
X41000000Y-77250000D01*
X44250000Y-77400000D02*
X42750000Y-77400000D01*
X42750000Y-77400000D02*
X41150000Y-77400000D01*
%TO.N,Net-(U503--)*%
X57312500Y-51250000D02*
X57312500Y-53075000D01*
X57312500Y-53075000D02*
X57337500Y-53100000D01*
D41*
%TO.N,/Display/SCT2_VDD*%
X95400000Y-55600000D02*
X96600000Y-56800000D01*
X96600000Y-56800000D02*
X97441500Y-56800000D01*
X93200000Y-53850000D02*
X95200000Y-53850000D01*
X95400000Y-55600000D02*
X95400000Y-54050000D01*
X95400000Y-54050000D02*
X95200000Y-53850000D01*
D44*
%TO.N,Net-(U507--)*%
X90250000Y-55682169D02*
X90217831Y-55650000D01*
X90250000Y-57462500D02*
X90250000Y-55682169D01*
D41*
%TO.N,/Display/SCT3_VDD*%
X95187500Y-63387500D02*
X95237500Y-63437500D01*
X93237500Y-63387500D02*
X95187500Y-63387500D01*
X95400000Y-65187500D02*
X95400000Y-63600000D01*
X95400000Y-63600000D02*
X95237500Y-63437500D01*
%TO.N,/Display/SCT4_VDD*%
X167585000Y-54550000D02*
X169585000Y-54550000D01*
X170514000Y-56800000D02*
X171714000Y-58000000D01*
X169697500Y-56800000D02*
X169697500Y-55062500D01*
X169697500Y-56800000D02*
X170514000Y-56800000D01*
X169697500Y-55062500D02*
X169585000Y-54950000D01*
D44*
%TO.N,Net-(U515--)*%
X164472500Y-57687500D02*
X164472500Y-56800000D01*
X164835000Y-58862500D02*
X164835000Y-58050000D01*
X164835000Y-58050000D02*
X164472500Y-57687500D01*
D41*
%TO.N,+3.3V*%
X93575000Y-65187500D02*
X93575000Y-65175000D01*
X168800000Y-55600000D02*
X167872500Y-56577500D01*
X58387500Y-54200000D02*
X59250000Y-53337500D01*
X57337500Y-54662500D02*
X57800000Y-54200000D01*
X92150000Y-57570101D02*
X92743114Y-58163215D01*
X57800000Y-54200000D02*
X58387500Y-54200000D01*
X167872500Y-56577500D02*
X167872500Y-56800000D01*
X94200000Y-56225000D02*
X93575000Y-55600000D01*
X52187500Y-71750000D02*
X51275000Y-71750000D01*
X56775000Y-71750000D02*
X56775000Y-71162500D01*
X55775000Y-70162500D02*
X53775000Y-70162500D01*
X102137500Y-74500000D02*
X103500000Y-74500000D01*
X53075000Y-71525000D02*
X52412500Y-71525000D01*
D44*
X37000000Y-75750000D02*
X37000000Y-75000000D01*
D41*
X56775000Y-71162500D02*
X55775000Y-70162500D01*
X53775000Y-70162500D02*
X53075000Y-70862500D01*
X52412500Y-71525000D02*
X52187500Y-71750000D01*
X57337500Y-55000000D02*
X57337500Y-54662500D01*
X92150000Y-57462500D02*
X92150000Y-57570101D01*
D44*
X23800000Y-74000000D02*
X26400000Y-74000000D01*
D41*
X94200000Y-56400000D02*
X94200000Y-56225000D01*
D44*
X26400000Y-74000000D02*
X28800000Y-74000000D01*
D41*
X92150000Y-67575000D02*
X92750000Y-68175000D01*
X93575000Y-65175000D02*
X94250000Y-64500000D01*
X103525000Y-74525000D02*
X103500000Y-74500000D01*
X53075000Y-70862500D02*
X53075000Y-71525000D01*
D44*
X31800000Y-74200000D02*
X29000000Y-74200000D01*
D41*
X103525000Y-76200000D02*
X103525000Y-74525000D01*
X92150000Y-67062500D02*
X92150000Y-67575000D01*
D44*
X37000000Y-75750000D02*
X41750000Y-75750000D01*
X35500000Y-70800000D02*
X31800000Y-74200000D01*
D41*
X105750000Y-74500000D02*
X103500000Y-74500000D01*
D44*
X28800000Y-74000000D02*
X29000000Y-74200000D01*
X41750000Y-75750000D02*
X42750000Y-75750000D01*
%TO.N,Net-(U511--)*%
X90250000Y-65325000D02*
X90125000Y-65200000D01*
X90250000Y-67062500D02*
X90250000Y-65325000D01*
%TO.N,/Host Controller/I2C_SDA*%
X51250000Y-74000000D02*
X51250000Y-75000000D01*
X51275000Y-73575000D02*
X51275000Y-73975000D01*
X52187500Y-73575000D02*
X51275000Y-73575000D01*
X53075000Y-73800000D02*
X52412500Y-73800000D01*
X51275000Y-73975000D02*
X51250000Y-74000000D01*
X51380000Y-75130000D02*
X51380000Y-76500000D01*
X52412500Y-73800000D02*
X52187500Y-73575000D01*
X51250000Y-75000000D02*
X51380000Y-75130000D01*
D42*
%TO.N,/Display/DIS3_12*%
X102587500Y-56800000D02*
X102587500Y-57987500D01*
X124800000Y-69400000D02*
X132800000Y-69400000D01*
X124400000Y-66200000D02*
X124400000Y-69000000D01*
X121000000Y-62800000D02*
X124400000Y-66200000D01*
X133430000Y-68770000D02*
X133430000Y-67810000D01*
X132800000Y-69400000D02*
X133430000Y-68770000D01*
X124400000Y-69000000D02*
X124800000Y-69400000D01*
X102587500Y-57987500D02*
X107400000Y-62800000D01*
X107400000Y-62800000D02*
X121000000Y-62800000D01*
%TO.N,/Display/DIS3_11*%
X133430000Y-60970000D02*
X133430000Y-60190000D01*
X103222500Y-56800000D02*
X103222500Y-57867000D01*
X133000000Y-61400000D02*
X133430000Y-60970000D01*
X107355500Y-62000000D02*
X128400000Y-62000000D01*
X103222500Y-57867000D02*
X107355500Y-62000000D01*
X128400000Y-62000000D02*
X129000000Y-61400000D01*
X129000000Y-61400000D02*
X133000000Y-61400000D01*
%TO.N,/Display/DIS3_13*%
X123600000Y-66400000D02*
X123600000Y-69200000D01*
X124400000Y-70000000D02*
X134600000Y-70000000D01*
X120699000Y-63499000D02*
X123600000Y-66400000D01*
X135970000Y-68630000D02*
X135970000Y-67810000D01*
X123600000Y-69200000D02*
X124400000Y-70000000D01*
X101952500Y-56800000D02*
X101952500Y-58152500D01*
X134600000Y-70000000D02*
X135970000Y-68630000D01*
X107299000Y-63499000D02*
X120699000Y-63499000D01*
X101952500Y-58152500D02*
X107299000Y-63499000D01*
D44*
%TO.N,/Host Controller/I2C_SCL*%
X55637500Y-73800000D02*
X55862500Y-73575000D01*
X54975000Y-73800000D02*
X54975000Y-75445000D01*
X54975000Y-73800000D02*
X55637500Y-73800000D01*
X55862500Y-73575000D02*
X56775000Y-73575000D01*
X54975000Y-75445000D02*
X53920000Y-76500000D01*
D42*
%TO.N,/Display/DIS3_14*%
X136800000Y-70600000D02*
X138510000Y-68890000D01*
X122800000Y-66600000D02*
X122800000Y-69400000D01*
X124000000Y-70600000D02*
X136800000Y-70600000D01*
X101267500Y-56850000D02*
X101267500Y-58467500D01*
X107000000Y-64200000D02*
X120400000Y-64200000D01*
X122800000Y-69400000D02*
X124000000Y-70600000D01*
X101267500Y-58467500D02*
X107000000Y-64200000D01*
X138510000Y-68890000D02*
X138510000Y-67810000D01*
X120400000Y-64200000D02*
X122800000Y-66600000D01*
%TO.N,/Display/DIS4_A*%
X174320000Y-51785960D02*
X175258960Y-50847000D01*
X175258960Y-50847000D02*
X186257000Y-50847000D01*
X174320000Y-52800000D02*
X174320000Y-51785960D01*
X186257000Y-50847000D02*
X188600000Y-53190000D01*
%TO.N,/Display/DIS4_B*%
X174955000Y-51859480D02*
X175466480Y-51348000D01*
X181678000Y-51348000D02*
X183520000Y-53190000D01*
X174955000Y-52800000D02*
X174955000Y-51859480D01*
X175466480Y-51348000D02*
X181678000Y-51348000D01*
%TO.N,/Display/DIS4_F*%
X175590000Y-51933000D02*
X175674000Y-51849000D01*
X179639000Y-51849000D02*
X180980000Y-53190000D01*
X175674000Y-51849000D02*
X179639000Y-51849000D01*
X175590000Y-52800000D02*
X175590000Y-51933000D01*
D44*
%TO.N,/Host Controller/ST67_MOSI*%
X25400000Y-68800000D02*
X22500000Y-65900000D01*
X22500000Y-65900000D02*
X22500000Y-63250000D01*
X38000000Y-68800000D02*
X25400000Y-68800000D01*
D42*
%TO.N,/Display/DIS5_F*%
X180970000Y-67200000D02*
X180980000Y-67190000D01*
X177495000Y-62695000D02*
X180980000Y-66180000D01*
X180980000Y-66180000D02*
X180980000Y-67190000D01*
X177495000Y-58000000D02*
X177495000Y-62695000D01*
%TO.N,/Display/DIS5_B*%
X183520000Y-66190000D02*
X183520000Y-67190000D01*
X180600000Y-64800000D02*
X182130000Y-64800000D01*
X178130000Y-62330000D02*
X180600000Y-64800000D01*
X182130000Y-64800000D02*
X183520000Y-66190000D01*
X178130000Y-58000000D02*
X178130000Y-62330000D01*
%TO.N,/Display/DIS5_A*%
X186430000Y-64000000D02*
X188600000Y-66170000D01*
X178765000Y-61965000D02*
X180800000Y-64000000D01*
X180800000Y-64000000D02*
X186430000Y-64000000D01*
X178765000Y-58000000D02*
X178765000Y-61965000D01*
X188600000Y-66170000D02*
X188600000Y-67190000D01*
%TO.N,/Display/DIS5_E*%
X175590000Y-63790000D02*
X177800000Y-66000000D01*
X188130000Y-70800000D02*
X191140000Y-73810000D01*
X177800000Y-66000000D02*
X177800000Y-68200000D01*
X191140000Y-73810000D02*
X191140000Y-74810000D01*
X175590000Y-58000000D02*
X175590000Y-63790000D01*
X177800000Y-68200000D02*
X180400000Y-70800000D01*
X180400000Y-70800000D02*
X188130000Y-70800000D01*
%TO.N,/Display/DIS5_G*%
X191730000Y-69200000D02*
X196220000Y-73690000D01*
X196220000Y-73690000D02*
X196220000Y-74810000D01*
X176860000Y-58000000D02*
X176860000Y-63060000D01*
X179400000Y-65600000D02*
X179400000Y-67735000D01*
X180865000Y-69200000D02*
X191730000Y-69200000D01*
X176860000Y-63060000D02*
X179400000Y-65600000D01*
X179400000Y-67735000D02*
X180865000Y-69200000D01*
%TO.N,/Display/DIS5_C*%
X174320000Y-58000000D02*
X174320000Y-64520000D01*
X180000000Y-72400000D02*
X182130000Y-72400000D01*
X182130000Y-72400000D02*
X183520000Y-73790000D01*
X183520000Y-73790000D02*
X183520000Y-74810000D01*
X174320000Y-64520000D02*
X176200000Y-66400000D01*
X176200000Y-66400000D02*
X176200000Y-68600000D01*
X176200000Y-68600000D02*
X180000000Y-72400000D01*
%TO.N,/Display/DIS5_DP*%
X186060000Y-73730000D02*
X186060000Y-74810000D01*
X183930000Y-71600000D02*
X186060000Y-73730000D01*
X177000000Y-68400000D02*
X180200000Y-71600000D01*
X180200000Y-71600000D02*
X183930000Y-71600000D01*
X174955000Y-58000000D02*
X174955000Y-64155000D01*
X174955000Y-64155000D02*
X177000000Y-66200000D01*
X177000000Y-66200000D02*
X177000000Y-68400000D01*
D41*
%TO.N,/Display/SCT1_VDD*%
X59250000Y-56500000D02*
X59000000Y-56750000D01*
X59250000Y-55162500D02*
X60887500Y-55162500D01*
X59250000Y-55162500D02*
X59250000Y-56500000D01*
X61050000Y-53000000D02*
X61050000Y-55000000D01*
X59000000Y-56750000D02*
X59000000Y-57259000D01*
X60887500Y-55162500D02*
X61050000Y-55000000D01*
D44*
%TO.N,/Display/SCT1_REXT*%
X57137500Y-58972500D02*
X58150000Y-57960000D01*
X57137500Y-59650000D02*
X57137500Y-58972500D01*
X58150000Y-57960000D02*
X59000000Y-57960000D01*
D43*
%TO.N,/Display/VDD_LED*%
X159250000Y-56400000D02*
X159250000Y-58850000D01*
X156200000Y-58200000D02*
X154200000Y-56200000D01*
X127012500Y-63400000D02*
X128696636Y-63400000D01*
X154200000Y-56200000D02*
X153550000Y-56200000D01*
X149550000Y-56262500D02*
X149550000Y-54450000D01*
X126750000Y-63262500D02*
X126750000Y-63662500D01*
X159250000Y-58850000D02*
X159400000Y-59000000D01*
X158600000Y-58200000D02*
X156200000Y-58200000D01*
X149550000Y-54450000D02*
X149600000Y-54400000D01*
X126750000Y-63662500D02*
X127012500Y-63400000D01*
X153550000Y-56200000D02*
X153550000Y-56262500D01*
X153550000Y-55050000D02*
X153550000Y-56200000D01*
X139299000Y-62501000D02*
X141400000Y-60400000D01*
X131950000Y-64062500D02*
X131950000Y-62551000D01*
X128696636Y-63400000D02*
X129595636Y-62501000D01*
X141400000Y-60400000D02*
X141400000Y-56200000D01*
X143200000Y-54400000D02*
X149600000Y-54400000D01*
X129595636Y-62501000D02*
X132000000Y-62501000D01*
X131950000Y-62551000D02*
X132000000Y-62501000D01*
X159400000Y-59000000D02*
X158600000Y-58200000D01*
X139500000Y-56200000D02*
X141400000Y-56200000D01*
X141400000Y-56200000D02*
X143200000Y-54400000D01*
X132000000Y-62501000D02*
X139299000Y-62501000D01*
%TO.N,/Display/VDD_DIG1*%
X125800000Y-65737500D02*
X125800000Y-65137500D01*
X125810000Y-65747500D02*
X125800000Y-65737500D01*
X125810000Y-67810000D02*
X125810000Y-65747500D01*
%TO.N,/Display/VDD_DIG2*%
X130890000Y-67810000D02*
X130890000Y-66047500D01*
X130890000Y-66047500D02*
X131000000Y-65937500D01*
%TO.N,/Display/VDD_DIG3*%
X148670000Y-58207500D02*
X148600000Y-58137500D01*
X148670000Y-60190000D02*
X148670000Y-58207500D01*
%TO.N,/Display/VDD_DIG4*%
X138550000Y-60150000D02*
X138510000Y-60190000D01*
X86620000Y-74810000D02*
X86620000Y-73020000D01*
X138550000Y-58075000D02*
X138550000Y-60150000D01*
X84000000Y-70400000D02*
X84000000Y-66800000D01*
X86620000Y-73020000D02*
X84000000Y-70400000D01*
%TO.N,/Display/VDD_DIG5*%
X153750000Y-59050000D02*
X153750000Y-60190000D01*
X152600000Y-58137500D02*
X152937500Y-58137500D01*
X152937500Y-58137500D02*
X153750000Y-59050000D01*
D44*
%TO.N,/Display/SCT3_REXT*%
X97074999Y-68200000D02*
X96137500Y-68200000D01*
X97612500Y-66400000D02*
X97612500Y-67662499D01*
X97612500Y-67662499D02*
X97074999Y-68200000D01*
%TO.N,/Display/SCT1_SDO*%
X59000000Y-58595000D02*
X60205000Y-58595000D01*
X60205000Y-58595000D02*
X61200000Y-57600000D01*
%TO.N,/Display/SCT3_SDO*%
X98247500Y-67400000D02*
X98247500Y-66400000D01*
X98800000Y-67600000D02*
X98447500Y-67600000D01*
X98447500Y-67600000D02*
X98247500Y-67400000D01*
%TO.N,/Display/SCT_CLK_F*%
X98247500Y-59990000D02*
X98287500Y-59950000D01*
X98247500Y-61200000D02*
X98247500Y-59990000D01*
%TO.N,/Display/DISPLAY3_EN*%
X147650000Y-56950000D02*
X147000000Y-57600000D01*
X147650000Y-56262500D02*
X147650000Y-56950000D01*
X147000000Y-57600000D02*
X146000000Y-57600000D01*
%TO.N,/Display/DISPLAY4_EN*%
X137600000Y-57100000D02*
X137400000Y-57300000D01*
X137600000Y-56200000D02*
X137600000Y-57100000D01*
%TO.N,/Display/DISPLAY2_EN*%
X129400000Y-64200000D02*
X130050000Y-64062500D01*
%TO.N,/Display/~{SCT_EN}*%
X97400000Y-63200000D02*
X98882500Y-64682500D01*
X98882500Y-65000000D02*
X98882500Y-66400000D01*
X60970000Y-59230000D02*
X59000000Y-59230000D01*
X98882500Y-65000000D02*
X101000000Y-65000000D01*
X173685000Y-60515000D02*
X173685000Y-58000000D01*
X101000000Y-65000000D02*
X101200000Y-65200000D01*
X173600000Y-61000000D02*
X173685000Y-60515000D01*
X61500000Y-58750000D02*
X60970000Y-59230000D01*
X98882500Y-64682500D02*
X98882500Y-65000000D01*
X97400000Y-62400000D02*
X97400000Y-63200000D01*
%TO.N,/Display/DISPLAY5_EN*%
X151650000Y-57550000D02*
X150800000Y-58400000D01*
X151650000Y-56262500D02*
X151650000Y-57550000D01*
%TO.N,/Display/~{SCT_LA}*%
X103100000Y-65300000D02*
X101000000Y-63200000D01*
X98882500Y-62282500D02*
X98882500Y-61200000D01*
X101000000Y-63200000D02*
X99800000Y-63200000D01*
X98882500Y-61200000D02*
X98882500Y-60451290D01*
X99800000Y-63200000D02*
X98882500Y-62282500D01*
X98882500Y-60451290D02*
X99787325Y-59546465D01*
%TO.N,/Display/DISPLAY1_EN*%
X124000000Y-62800000D02*
X124262500Y-63262500D01*
X124262500Y-63262500D02*
X124850000Y-63262500D01*
%TO.N,/Display/SCT_SDI*%
X63290000Y-57960000D02*
X64200000Y-57960000D01*
X62250000Y-60250000D02*
X62250000Y-59000000D01*
X62250000Y-59000000D02*
X63290000Y-57960000D01*
%TO.N,/Host Controller/VOLTAGE_SENS_FLTR*%
X46250000Y-68250000D02*
X47337500Y-68250000D01*
X44950000Y-68250000D02*
X46250000Y-68250000D01*
X46250000Y-69000000D02*
X46250000Y-68250000D01*
%TO.N,/Host Controller/CURRENT_SENSE_FLTR*%
X44950000Y-70250000D02*
X47337500Y-70250000D01*
X44950000Y-70450000D02*
X45750000Y-71250000D01*
X44950000Y-70250000D02*
X44950000Y-70450000D01*
%TO.N,/Display/SCT_CLK_F*%
X98247500Y-62647500D02*
X98247500Y-61200000D01*
X100800000Y-63800000D02*
X99400000Y-63800000D01*
X102200000Y-65600000D02*
X102200000Y-65200000D01*
X102200000Y-65200000D02*
X100800000Y-63800000D01*
X102800000Y-66200000D02*
X102200000Y-65600000D01*
X99400000Y-63800000D02*
X98247500Y-62647500D01*
X103800000Y-66200000D02*
X102800000Y-66200000D01*
%TD*%
%TA.AperFunction,Conductor*%
%TO.N,Net-(U601-SW)*%
G36*
X171143039Y-66825212D02*
G01*
X171188794Y-66878016D01*
X171200000Y-66929527D01*
X171200000Y-71416576D01*
X171623663Y-71840239D01*
X171655757Y-71895826D01*
X171687017Y-72012488D01*
X171759488Y-72138011D01*
X171759490Y-72138013D01*
X171759491Y-72138015D01*
X171861985Y-72240509D01*
X171861986Y-72240510D01*
X171861988Y-72240511D01*
X171987511Y-72312982D01*
X171987512Y-72312982D01*
X171987515Y-72312984D01*
X172104175Y-72344243D01*
X172159760Y-72376336D01*
X173200000Y-73416576D01*
X173876000Y-73416576D01*
X173943039Y-73436261D01*
X173988794Y-73489065D01*
X174000000Y-73540576D01*
X174000000Y-74892576D01*
X173980315Y-74959615D01*
X173927511Y-75005370D01*
X173876000Y-75016576D01*
X172524000Y-75016576D01*
X172456961Y-74996891D01*
X172411206Y-74944087D01*
X172400000Y-74892576D01*
X172400000Y-74216576D01*
X170236319Y-72052895D01*
X170202834Y-71991572D01*
X170200000Y-71965214D01*
X170200000Y-68800000D01*
X169636319Y-68236319D01*
X169602834Y-68174996D01*
X169600000Y-68148638D01*
X169600000Y-66929527D01*
X169619685Y-66862488D01*
X169672489Y-66816733D01*
X169724000Y-66805527D01*
X171076000Y-66805527D01*
X171143039Y-66825212D01*
G37*
%TD.AperFunction*%
%TD*%
%TA.AperFunction,Conductor*%
%TO.N,VBUS*%
G36*
X100916286Y-67404524D02*
G01*
X102609189Y-67874774D01*
X102668513Y-67911683D01*
X102698466Y-67974806D01*
X102700000Y-67994250D01*
X102700000Y-68448638D01*
X102680315Y-68515677D01*
X102663681Y-68536319D01*
X102226548Y-68973452D01*
X102165225Y-69006937D01*
X102163185Y-69007363D01*
X101235510Y-69192897D01*
X101166249Y-69186874D01*
X99479057Y-68530744D01*
X99423710Y-68488099D01*
X99400205Y-68422302D01*
X99400000Y-68415175D01*
X99400000Y-67934345D01*
X99417671Y-67870548D01*
X99663878Y-67460203D01*
X99715249Y-67412844D01*
X99770207Y-67400000D01*
X100883098Y-67400000D01*
X100916286Y-67404524D01*
G37*
%TD.AperFunction*%
%TD*%
M02*
