%TF.GenerationSoftware,KiCad,Pcbnew,9.0.7*%
%TF.CreationDate,2026-06-28T12:00:23+02:00*%
%TF.ProjectId,AstroWeather,41737472-6f57-4656-9174-6865722e6b69,rev?*%
%TF.SameCoordinates,Original*%
%TF.FileFunction,Paste,Bot*%
%TF.FilePolarity,Positive*%
%FSLAX46Y46*%
G04 Gerber Fmt 4.6, Leading zero omitted, Abs format (unit mm)*
G04 Created by KiCad (PCBNEW 9.0.7) date 2026-06-28 12:00:23*
%MOMM*%
%LPD*%
G01*
G04 APERTURE LIST*
G04 Aperture macros list*
%AMRoundRect*
0 Rectangle with rounded corners*
0 $1 Rounding radius*
0 $2 $3 $4 $5 $6 $7 $8 $9 X,Y pos of 4 corners*
0 Add a 4 corners polygon primitive as box body*
4,1,4,$2,$3,$4,$5,$6,$7,$8,$9,$2,$3,0*
0 Add four circle primitives for the rounded corners*
1,1,$1+$1,$2,$3*
1,1,$1+$1,$4,$5*
1,1,$1+$1,$6,$7*
1,1,$1+$1,$8,$9*
0 Add four rect primitives between the rounded corners*
20,1,$1+$1,$2,$3,$4,$5,0*
20,1,$1+$1,$4,$5,$6,$7,0*
20,1,$1+$1,$6,$7,$8,$9,0*
20,1,$1+$1,$8,$9,$2,$3,0*%
G04 Aperture macros list end*
%ADD10RoundRect,0.250000X-0.262500X-0.450000X0.262500X-0.450000X0.262500X0.450000X-0.262500X0.450000X0*%
%ADD11RoundRect,0.250000X-0.450000X0.262500X-0.450000X-0.262500X0.450000X-0.262500X0.450000X0.262500X0*%
%ADD12RoundRect,0.250000X0.475000X-0.250000X0.475000X0.250000X-0.475000X0.250000X-0.475000X-0.250000X0*%
%ADD13RoundRect,0.150000X0.150000X-0.512500X0.150000X0.512500X-0.150000X0.512500X-0.150000X-0.512500X0*%
%ADD14RoundRect,0.150000X-0.512500X-0.150000X0.512500X-0.150000X0.512500X0.150000X-0.512500X0.150000X0*%
%ADD15RoundRect,0.225000X0.225000X0.250000X-0.225000X0.250000X-0.225000X-0.250000X0.225000X-0.250000X0*%
%ADD16R,1.200000X0.400000*%
%ADD17RoundRect,0.250000X0.650000X-1.000000X0.650000X1.000000X-0.650000X1.000000X-0.650000X-1.000000X0*%
%ADD18RoundRect,0.200000X-0.275000X0.200000X-0.275000X-0.200000X0.275000X-0.200000X0.275000X0.200000X0*%
%ADD19RoundRect,0.150000X-0.150000X0.587500X-0.150000X-0.587500X0.150000X-0.587500X0.150000X0.587500X0*%
%ADD20RoundRect,0.225000X-0.250000X0.225000X-0.250000X-0.225000X0.250000X-0.225000X0.250000X0.225000X0*%
%ADD21RoundRect,0.250000X-0.250000X-0.475000X0.250000X-0.475000X0.250000X0.475000X-0.250000X0.475000X0*%
%ADD22RoundRect,0.250000X-0.312500X-0.625000X0.312500X-0.625000X0.312500X0.625000X-0.312500X0.625000X0*%
%ADD23RoundRect,0.250000X0.250000X0.475000X-0.250000X0.475000X-0.250000X-0.475000X0.250000X-0.475000X0*%
%ADD24RoundRect,0.250000X0.450000X-0.262500X0.450000X0.262500X-0.450000X0.262500X-0.450000X-0.262500X0*%
%ADD25RoundRect,0.250000X0.262500X0.450000X-0.262500X0.450000X-0.262500X-0.450000X0.262500X-0.450000X0*%
%ADD26RoundRect,0.150000X-0.587500X-0.150000X0.587500X-0.150000X0.587500X0.150000X-0.587500X0.150000X0*%
%ADD27R,0.400000X1.200000*%
G04 APERTURE END LIST*
D10*
%TO.C,R310*%
X49087500Y-50200000D03*
X50912500Y-50200000D03*
%TD*%
D11*
%TO.C,R301*%
X51275000Y-71750000D03*
X51275000Y-73575000D03*
%TD*%
D10*
%TO.C,R504*%
X55287500Y-56850000D03*
X57112500Y-56850000D03*
%TD*%
D12*
%TO.C,C505*%
X93200000Y-53850000D03*
X93200000Y-51950000D03*
%TD*%
D13*
%TO.C,U301*%
X54975000Y-73800000D03*
X54025000Y-73800000D03*
X53075000Y-73800000D03*
X53075000Y-71525000D03*
X54975000Y-71525000D03*
%TD*%
%TO.C,U515*%
X166735000Y-60937500D03*
X165785000Y-60937500D03*
X164835000Y-60937500D03*
X164835000Y-58662500D03*
X166735000Y-58662500D03*
%TD*%
D14*
%TO.C,U101*%
X99862500Y-74500000D03*
X99862500Y-73550000D03*
X99862500Y-72600000D03*
X102137500Y-72600000D03*
X102137500Y-74500000D03*
%TD*%
D15*
%TO.C,C101*%
X103525000Y-76200000D03*
X101975000Y-76200000D03*
%TD*%
D16*
%TO.C,U501*%
X64200000Y-57325000D03*
X64200000Y-57960000D03*
X64200000Y-58595000D03*
X64200000Y-59230000D03*
X64200000Y-59865000D03*
X64200000Y-60500000D03*
X64200000Y-61135000D03*
X64200000Y-61770000D03*
X64200000Y-62405000D03*
X64200000Y-63040000D03*
X64200000Y-63675000D03*
X64200000Y-64310000D03*
X59000000Y-64310000D03*
X59000000Y-63675000D03*
X59000000Y-63040000D03*
X59000000Y-62405000D03*
X59000000Y-61770000D03*
X59000000Y-61135000D03*
X59000000Y-60500000D03*
X59000000Y-59865000D03*
X59000000Y-59230000D03*
X59000000Y-58595000D03*
X59000000Y-57960000D03*
X59000000Y-57325000D03*
%TD*%
D17*
%TO.C,D501*%
X159400000Y-63000000D03*
X159400000Y-59000000D03*
%TD*%
D18*
%TO.C,R309*%
X44250000Y-75750000D03*
X44250000Y-77400000D03*
%TD*%
D19*
%TO.C,Q505*%
X151650000Y-56262500D03*
X153550000Y-56262500D03*
X152600000Y-58137500D03*
%TD*%
D20*
%TO.C,C308*%
X34000000Y-75800000D03*
X34000000Y-77350000D03*
%TD*%
D10*
%TO.C,R505*%
X93575000Y-55600000D03*
X95400000Y-55600000D03*
%TD*%
D11*
%TO.C,R302*%
X56775000Y-71750000D03*
X56775000Y-73575000D03*
%TD*%
D13*
%TO.C,U511*%
X92150000Y-69337500D03*
X91200000Y-69337500D03*
X90250000Y-69337500D03*
X90250000Y-67062500D03*
X92150000Y-67062500D03*
%TD*%
D12*
%TO.C,C507*%
X93237500Y-63387500D03*
X93237500Y-61487500D03*
%TD*%
D21*
%TO.C,C501*%
X61050000Y-55000000D03*
X62950000Y-55000000D03*
%TD*%
%TO.C,C502*%
X61050000Y-53000000D03*
X62950000Y-53000000D03*
%TD*%
D22*
%TO.C,R101*%
X98737500Y-70600000D03*
X101662500Y-70600000D03*
%TD*%
D12*
%TO.C,C508*%
X95237500Y-63437500D03*
X95237500Y-61537500D03*
%TD*%
%TO.C,C509*%
X167585000Y-54550000D03*
X167585000Y-52650000D03*
%TD*%
D14*
%TO.C,U503*%
X55062500Y-55000000D03*
X55062500Y-54050000D03*
X55062500Y-53100000D03*
X57337500Y-53100000D03*
X57337500Y-55000000D03*
%TD*%
D19*
%TO.C,Q503*%
X147650000Y-56262500D03*
X149550000Y-56262500D03*
X148600000Y-58137500D03*
%TD*%
D11*
%TO.C,R501*%
X59250000Y-53337500D03*
X59250000Y-55162500D03*
%TD*%
D23*
%TO.C,C307*%
X44950000Y-70250000D03*
X43050000Y-70250000D03*
%TD*%
D18*
%TO.C,R306*%
X37000000Y-75750000D03*
X37000000Y-77400000D03*
%TD*%
D12*
%TO.C,C506*%
X95200000Y-53850000D03*
X95200000Y-51950000D03*
%TD*%
D19*
%TO.C,Q501*%
X124850000Y-63262500D03*
X126750000Y-63262500D03*
X125800000Y-65137500D03*
%TD*%
%TO.C,Q502*%
X130050000Y-64062500D03*
X131950000Y-64062500D03*
X131000000Y-65937500D03*
%TD*%
D24*
%TO.C,R507*%
X91200000Y-53762500D03*
X91200000Y-51937500D03*
%TD*%
D25*
%TO.C,R512*%
X166297500Y-56800000D03*
X164472500Y-56800000D03*
%TD*%
%TO.C,R509*%
X91950000Y-65200000D03*
X90125000Y-65200000D03*
%TD*%
%TO.C,R506*%
X92042831Y-55600000D03*
X90217831Y-55600000D03*
%TD*%
D11*
%TO.C,R103*%
X63400000Y-75837500D03*
X63400000Y-77662500D03*
%TD*%
D21*
%TO.C,C503*%
X159250000Y-56400000D03*
X161150000Y-56400000D03*
%TD*%
D13*
%TO.C,U507*%
X92150000Y-57462500D03*
X90250000Y-57462500D03*
X90250000Y-59737500D03*
X91200000Y-59737500D03*
X92150000Y-59737500D03*
%TD*%
D18*
%TO.C,R307*%
X42750000Y-75750000D03*
X42750000Y-77400000D03*
%TD*%
D19*
%TO.C,Q504*%
X137600000Y-56200000D03*
X139500000Y-56200000D03*
X138550000Y-58075000D03*
%TD*%
D12*
%TO.C,C510*%
X169585000Y-54550000D03*
X169585000Y-52650000D03*
%TD*%
D10*
%TO.C,R511*%
X167872500Y-56800000D03*
X169697500Y-56800000D03*
%TD*%
D11*
%TO.C,R102*%
X61400000Y-74587500D03*
X61400000Y-76412500D03*
%TD*%
D26*
%TO.C,Q509*%
X168647500Y-60550000D03*
X168647500Y-58650000D03*
X170522500Y-59600000D03*
%TD*%
D10*
%TO.C,R304*%
X47337500Y-68250000D03*
X49162500Y-68250000D03*
%TD*%
D27*
%TO.C,U505*%
X97507500Y-51600000D03*
X98142500Y-51600000D03*
X98777500Y-51600000D03*
X99412500Y-51600000D03*
X100047500Y-51600000D03*
X100682500Y-51600000D03*
X101317500Y-51600000D03*
X101952500Y-51600000D03*
X102587500Y-51600000D03*
X103222500Y-51600000D03*
X103857500Y-51600000D03*
X104492500Y-51600000D03*
X104492500Y-56800000D03*
X103857500Y-56800000D03*
X103222500Y-56800000D03*
X102587500Y-56800000D03*
X101952500Y-56800000D03*
X101317500Y-56800000D03*
X100682500Y-56800000D03*
X100047500Y-56800000D03*
X99412500Y-56800000D03*
X98777500Y-56800000D03*
X98142500Y-56800000D03*
X97507500Y-56800000D03*
%TD*%
D24*
%TO.C,R510*%
X91200000Y-63312500D03*
X91200000Y-61487500D03*
%TD*%
D27*
%TO.C,U510*%
X96977500Y-61200000D03*
X97612500Y-61200000D03*
X98247500Y-61200000D03*
X98882500Y-61200000D03*
X99517500Y-61200000D03*
X100152500Y-61200000D03*
X100787500Y-61200000D03*
X101422500Y-61200000D03*
X101422500Y-66400000D03*
X100787500Y-66400000D03*
X100152500Y-66400000D03*
X99517500Y-66400000D03*
X98882500Y-66400000D03*
X98247500Y-66400000D03*
X97612500Y-66400000D03*
X96977500Y-66400000D03*
%TD*%
D23*
%TO.C,C306*%
X44950000Y-68250000D03*
X43050000Y-68250000D03*
%TD*%
D10*
%TO.C,R508*%
X93575000Y-65187500D03*
X95400000Y-65187500D03*
%TD*%
D26*
%TO.C,Q507*%
X94392831Y-59550000D03*
X94392831Y-57650000D03*
X96267831Y-58600000D03*
%TD*%
D18*
%TO.C,R308*%
X35500000Y-75750000D03*
X35500000Y-77400000D03*
%TD*%
D10*
%TO.C,R305*%
X47337500Y-70250000D03*
X49162500Y-70250000D03*
%TD*%
%TO.C,R503*%
X55487500Y-51250000D03*
X57312500Y-51250000D03*
%TD*%
D26*
%TO.C,Q508*%
X94262500Y-69150000D03*
X94262500Y-67250000D03*
X96137500Y-68200000D03*
%TD*%
D24*
%TO.C,R513*%
X165585000Y-54512500D03*
X165585000Y-52687500D03*
%TD*%
D20*
%TO.C,C309*%
X45750000Y-75800000D03*
X45750000Y-77350000D03*
%TD*%
D26*
%TO.C,Q506*%
X55262500Y-60600000D03*
X55262500Y-58700000D03*
X57137500Y-59650000D03*
%TD*%
D27*
%TO.C,U513*%
X171780000Y-52800000D03*
X172415000Y-52800000D03*
X173050000Y-52800000D03*
X173685000Y-52800000D03*
X174320000Y-52800000D03*
X174955000Y-52800000D03*
X175590000Y-52800000D03*
X176225000Y-52800000D03*
X176860000Y-52800000D03*
X177495000Y-52800000D03*
X178130000Y-52800000D03*
X178765000Y-52800000D03*
X178765000Y-58000000D03*
X178130000Y-58000000D03*
X177495000Y-58000000D03*
X176860000Y-58000000D03*
X176225000Y-58000000D03*
X175590000Y-58000000D03*
X174955000Y-58000000D03*
X174320000Y-58000000D03*
X173685000Y-58000000D03*
X173050000Y-58000000D03*
X172415000Y-58000000D03*
X171780000Y-58000000D03*
%TD*%
M02*
