%TF.GenerationSoftware,KiCad,Pcbnew,9.0.7*%
%TF.CreationDate,2026-06-28T12:00:23+02:00*%
%TF.ProjectId,AstroWeather,41737472-6f57-4656-9174-6865722e6b69,rev?*%
%TF.SameCoordinates,Original*%
%TF.FileFunction,Copper,L4,Inr*%
%TF.FilePolarity,Positive*%
%FSLAX46Y46*%
G04 Gerber Fmt 4.6, Leading zero omitted, Abs format (unit mm)*
G04 Created by KiCad (PCBNEW 9.0.7) date 2026-06-28 12:00:23*
%MOMM*%
%LPD*%
G01*
G04 APERTURE LIST*
G04 Aperture macros list*
%AMRoundRect*
0 Rectangle with rounded corners*
0 $1 Rounding radius*
0 $2 $3 $4 $5 $6 $7 $8 $9 X,Y pos of 4 corners*
0 Add a 4 corners polygon primitive as box body*
4,1,4,$2,$3,$4,$5,$6,$7,$8,$9,$2,$3,0*
0 Add four circle primitives for the rounded corners*
1,1,$1+$1,$2,$3*
1,1,$1+$1,$4,$5*
1,1,$1+$1,$6,$7*
1,1,$1+$1,$8,$9*
0 Add four rect primitives between the rounded corners*
20,1,$1+$1,$2,$3,$4,$5,0*
20,1,$1+$1,$4,$5,$6,$7,0*
20,1,$1+$1,$6,$7,$8,$9,0*
20,1,$1+$1,$8,$9,$2,$3,0*%
G04 Aperture macros list end*
%TA.AperFunction,ComponentPad*%
%ADD10R,1.500000X1.500000*%
%TD*%
%TA.AperFunction,ComponentPad*%
%ADD11C,1.500000*%
%TD*%
%TA.AperFunction,ComponentPad*%
%ADD12R,1.700000X1.700000*%
%TD*%
%TA.AperFunction,ComponentPad*%
%ADD13C,1.700000*%
%TD*%
%TA.AperFunction,HeatsinkPad*%
%ADD14C,1.000000*%
%TD*%
%TA.AperFunction,ComponentPad*%
%ADD15C,1.600000*%
%TD*%
%TA.AperFunction,ComponentPad*%
%ADD16RoundRect,0.250000X0.350000X0.625000X-0.350000X0.625000X-0.350000X-0.625000X0.350000X-0.625000X0*%
%TD*%
%TA.AperFunction,ComponentPad*%
%ADD17O,1.200000X1.750000*%
%TD*%
%TA.AperFunction,ViaPad*%
%ADD18C,0.700000*%
%TD*%
%TA.AperFunction,ViaPad*%
%ADD19C,0.800000*%
%TD*%
%TA.AperFunction,ViaPad*%
%ADD20C,0.900000*%
%TD*%
%TA.AperFunction,ViaPad*%
%ADD21C,1.400000*%
%TD*%
%TA.AperFunction,Conductor*%
%ADD22C,1.000000*%
%TD*%
%TA.AperFunction,Conductor*%
%ADD23C,0.500000*%
%TD*%
G04 APERTURE END LIST*
D10*
%TO.N,/Display/VDD_DIG1*%
%TO.C,U508*%
X125810000Y-67810000D03*
D11*
%TO.N,/Display/DIS3_10*%
X128350000Y-67810000D03*
%TO.N,/Display/VDD_DIG2*%
X130890000Y-67810000D03*
%TO.N,/Display/DIS3_12*%
X133430000Y-67810000D03*
%TO.N,/Display/DIS3_13*%
X135970000Y-67810000D03*
%TO.N,/Display/DIS3_14*%
X138510000Y-67810000D03*
%TO.N,/Display/VDD_DIG4*%
X138510000Y-60190000D03*
%TO.N,/Display/VDD_DIG5*%
X135970000Y-60190000D03*
%TO.N,/Display/DIS3_11*%
X133430000Y-60190000D03*
%TO.N,/Display/VDD_DIG3*%
X130890000Y-60190000D03*
%TO.N,/Display/DIS3_9*%
X128350000Y-60190000D03*
%TO.N,/Display/DIS3_8*%
X125810000Y-60190000D03*
%TD*%
D10*
%TO.N,/Display/VDD_DIG1*%
%TO.C,U509*%
X143590000Y-67810000D03*
D11*
%TO.N,/Display/DIS3_17*%
X146130000Y-67810000D03*
%TO.N,/Display/VDD_DIG2*%
X148670000Y-67810000D03*
%TO.N,/Display/DIS3_19*%
X151210000Y-67810000D03*
%TO.N,/Display/DIS3_20*%
X153750000Y-67810000D03*
%TO.N,/Display/DIS3_21*%
X156290000Y-67810000D03*
%TO.N,/Display/VDD_DIG4*%
X156290000Y-60190000D03*
%TO.N,/Display/VDD_DIG5*%
X153750000Y-60190000D03*
%TO.N,/Display/DIS3_18*%
X151210000Y-60190000D03*
%TO.N,/Display/VDD_DIG3*%
X148670000Y-60190000D03*
%TO.N,/Display/DIS3_16*%
X146130000Y-60190000D03*
%TO.N,/Display/DIS3_15*%
X143590000Y-60190000D03*
%TD*%
D10*
%TO.N,/Display/VDD_DIG1*%
%TO.C,U506*%
X107980000Y-67810000D03*
D11*
%TO.N,/Display/DIS3_3*%
X110520000Y-67810000D03*
%TO.N,/Display/VDD_DIG2*%
X113060000Y-67810000D03*
%TO.N,/Display/DIS3_5*%
X115600000Y-67810000D03*
%TO.N,/Display/DIS3_6*%
X118140000Y-67810000D03*
%TO.N,/Display/DIS3_7*%
X120680000Y-67810000D03*
%TO.N,/Display/VDD_DIG4*%
X120680000Y-60190000D03*
%TO.N,/Display/VDD_DIG5*%
X118140000Y-60190000D03*
%TO.N,/Display/DIS3_4*%
X115600000Y-60190000D03*
%TO.N,/Display/VDD_DIG3*%
X113060000Y-60190000D03*
%TO.N,/Display/DIS3_2*%
X110520000Y-60190000D03*
%TO.N,/Display/DIS3_1*%
X107980000Y-60190000D03*
%TD*%
D10*
%TO.N,/Display/VDD_DIG1*%
%TO.C,U514*%
X180980000Y-74810000D03*
D11*
%TO.N,/Display/DIS5_C*%
X183520000Y-74810000D03*
%TO.N,/Display/DIS5_DP*%
X186060000Y-74810000D03*
%TO.N,N/C*%
X188600000Y-74810000D03*
%TO.N,/Display/DIS5_E*%
X191140000Y-74810000D03*
%TO.N,/Display/DIS5_D*%
X193680000Y-74810000D03*
%TO.N,/Display/DIS5_G*%
X196220000Y-74810000D03*
%TO.N,/Display/VDD_DIG4*%
X198760000Y-74810000D03*
%TO.N,N/C*%
X198760000Y-67190000D03*
%TO.N,/Display/VDD_DIG3*%
X193680000Y-67190000D03*
%TO.N,/Display/VDD_DIG5*%
X191140000Y-67190000D03*
%TO.N,/Display/DIS5_A*%
X188600000Y-67190000D03*
%TO.N,/Display/VDD_DIG2*%
X186060000Y-67190000D03*
%TO.N,/Display/DIS5_B*%
X183520000Y-67190000D03*
%TO.N,/Display/DIS5_F*%
X180980000Y-67190000D03*
%TD*%
D10*
%TO.N,/Display/VDD_DIG1*%
%TO.C,U502*%
X68800000Y-60810000D03*
D11*
%TO.N,/Display/DIS1_C*%
X71340000Y-60810000D03*
%TO.N,/Display/DIS1_DP*%
X73880000Y-60810000D03*
%TO.N,N/C*%
X76420000Y-60810000D03*
%TO.N,/Display/DIS1_E*%
X78960000Y-60810000D03*
%TO.N,/Display/DIS1_D*%
X81500000Y-60810000D03*
%TO.N,/Display/DIS1_G*%
X84040000Y-60810000D03*
%TO.N,/Display/VDD_DIG4*%
X86580000Y-60810000D03*
%TO.N,N/C*%
X86580000Y-53190000D03*
%TO.N,/Display/VDD_DIG3*%
X81500000Y-53190000D03*
%TO.N,/Display/VDD_DIG5*%
X78960000Y-53190000D03*
%TO.N,/Display/DIS1_A*%
X76420000Y-53190000D03*
%TO.N,/Display/VDD_DIG2*%
X73880000Y-53190000D03*
%TO.N,/Display/DIS1_B*%
X71340000Y-53190000D03*
%TO.N,/Display/DIS1_F*%
X68800000Y-53190000D03*
%TD*%
D10*
%TO.N,/Display/VDD_DIG1*%
%TO.C,U512*%
X180980000Y-60810000D03*
D11*
%TO.N,/Display/DIS4_C*%
X183520000Y-60810000D03*
%TO.N,/Display/DIS4_DP*%
X186060000Y-60810000D03*
%TO.N,N/C*%
X188600000Y-60810000D03*
%TO.N,/Display/DIS4_E*%
X191140000Y-60810000D03*
%TO.N,/Display/DIS4_D*%
X193680000Y-60810000D03*
%TO.N,/Display/DIS4_G*%
X196220000Y-60810000D03*
%TO.N,/Display/VDD_DIG4*%
X198760000Y-60810000D03*
%TO.N,N/C*%
X198760000Y-53190000D03*
%TO.N,/Display/VDD_DIG3*%
X193680000Y-53190000D03*
%TO.N,/Display/VDD_DIG5*%
X191140000Y-53190000D03*
%TO.N,/Display/DIS4_A*%
X188600000Y-53190000D03*
%TO.N,/Display/VDD_DIG2*%
X186060000Y-53190000D03*
%TO.N,/Display/DIS4_B*%
X183520000Y-53190000D03*
%TO.N,/Display/DIS4_F*%
X180980000Y-53190000D03*
%TD*%
D10*
%TO.N,/Display/VDD_DIG1*%
%TO.C,U504*%
X68840000Y-74810000D03*
D11*
%TO.N,/Display/DIS2_C*%
X71380000Y-74810000D03*
%TO.N,/Display/DIS2_DP*%
X73920000Y-74810000D03*
%TO.N,N/C*%
X76460000Y-74810000D03*
%TO.N,/Display/DIS2_E*%
X79000000Y-74810000D03*
%TO.N,/Display/DIS2_D*%
X81540000Y-74810000D03*
%TO.N,/Display/DIS2_G*%
X84080000Y-74810000D03*
%TO.N,/Display/VDD_DIG4*%
X86620000Y-74810000D03*
%TO.N,N/C*%
X86620000Y-67190000D03*
%TO.N,/Display/VDD_DIG3*%
X81540000Y-67190000D03*
%TO.N,/Display/VDD_DIG5*%
X79000000Y-67190000D03*
%TO.N,/Display/DIS2_A*%
X76460000Y-67190000D03*
%TO.N,/Display/VDD_DIG2*%
X73920000Y-67190000D03*
%TO.N,/Display/DIS2_B*%
X71380000Y-67190000D03*
%TO.N,/Display/DIS2_F*%
X68840000Y-67190000D03*
%TD*%
D12*
%TO.N,GND*%
%TO.C,J102*%
X132860000Y-52000000D03*
D13*
%TO.N,/Host Controller/I2C_SCL*%
X130320000Y-52000000D03*
%TO.N,GND*%
X127780000Y-52000000D03*
%TO.N,/Host Controller/I2C_SDA*%
X125240000Y-52000000D03*
%TO.N,GND*%
X122700000Y-52000000D03*
%TO.N,VBUS*%
X120160000Y-52000000D03*
%TO.N,GND*%
X117620000Y-52000000D03*
%TO.N,VBUS*%
X115080000Y-52000000D03*
%TO.N,/Host Controller/LOW_POWER_ENABLE*%
X112540000Y-52000000D03*
%TO.N,/Display/LED_BRIGHTNESS*%
X110000000Y-52000000D03*
%TD*%
D14*
%TO.N,N/C*%
%TO.C,U201*%
X26175000Y-66916500D03*
X28175000Y-66916500D03*
X24975000Y-65916500D03*
X29375000Y-65716500D03*
X24975000Y-63516500D03*
X29375000Y-63516500D03*
X26175000Y-62516500D03*
X28175000Y-62516500D03*
%TD*%
D12*
%TO.N,GND*%
%TO.C,J104*%
X132860000Y-76115000D03*
D13*
%TO.N,/Host Controller/I2C_SCL*%
X130320000Y-76115000D03*
%TO.N,GND*%
X127780000Y-76115000D03*
%TO.N,/Host Controller/I2C_SDA*%
X125240000Y-76115000D03*
%TO.N,GND*%
X122700000Y-76115000D03*
%TO.N,VBUS*%
X120160000Y-76115000D03*
%TO.N,GND*%
X117620000Y-76115000D03*
%TO.N,VBUS*%
X115080000Y-76115000D03*
%TO.N,/Host Controller/LOW_POWER_ENABLE*%
X112540000Y-76115000D03*
%TO.N,/Display/LED_BRIGHTNESS*%
X110000000Y-76115000D03*
%TD*%
D12*
%TO.N,+3.3V*%
%TO.C,J101*%
X59000000Y-76500000D03*
D13*
%TO.N,GND*%
X56460000Y-76500000D03*
%TO.N,/Host Controller/I2C_SCL*%
X53920000Y-76500000D03*
%TO.N,/Host Controller/I2C_SDA*%
X51380000Y-76500000D03*
%TD*%
D12*
%TO.N,GND*%
%TO.C,J105*%
X100275000Y-76250000D03*
D13*
%TO.N,/VBUS_IN*%
X97735000Y-76250000D03*
%TD*%
D15*
%TO.N,Net-(R701-Pad2)*%
%TO.C,R703*%
X54587500Y-62250000D03*
%TO.N,/Display/LED_BRIGHTNESS*%
X57127500Y-62250000D03*
%TD*%
D16*
%TO.N,+3.3V*%
%TO.C,J103*%
X49500000Y-52500000D03*
D17*
%TO.N,/Host Controller/SWCLK*%
X47500000Y-52500000D03*
%TO.N,GND*%
X45500000Y-52500000D03*
%TO.N,/Host Controller/SWDIO*%
X43500000Y-52500000D03*
%TO.N,/Host Controller/NRST*%
X41500000Y-52500000D03*
%TO.N,unconnected-(J103-Pin_6-Pad6)*%
X39500000Y-52500000D03*
%TD*%
D18*
%TO.N,VBUS*%
X99800000Y-68200000D03*
X102300000Y-68200000D03*
X173100000Y-71800000D03*
X172200000Y-71800000D03*
%TO.N,GND*%
X98400000Y-59000000D03*
%TO.N,/Display/DIS3_16*%
X100000000Y-55600000D03*
%TO.N,/Display/DIS3_7*%
X113800000Y-53400000D03*
%TO.N,GND*%
X98100000Y-68200000D03*
X104600000Y-66700000D03*
X98700000Y-54200000D03*
X97200000Y-53800000D03*
X175000000Y-56700000D03*
X173300000Y-56400000D03*
X62900000Y-61100000D03*
X61900000Y-57000000D03*
X66200000Y-57600000D03*
%TO.N,/Display/SCT_CLK_F*%
X65671731Y-58371732D03*
%TO.N,GND*%
X49900000Y-76000000D03*
X48300000Y-66600000D03*
X46300000Y-67400000D03*
X27000000Y-60600000D03*
X63000000Y-59600000D03*
D19*
%TO.N,+3.3V*%
X58400000Y-72800000D03*
D18*
%TO.N,GND*%
X37600000Y-57000000D03*
X46257426Y-62690875D03*
X42600000Y-62000000D03*
X40576708Y-62000000D03*
X38988354Y-60411646D03*
X37988354Y-59411646D03*
X38000000Y-54800000D03*
X41400000Y-54600000D03*
X43800000Y-54600000D03*
X46524000Y-61400000D03*
X46700000Y-59300000D03*
X46600000Y-54800000D03*
X46800000Y-57000000D03*
D20*
X45200000Y-59200000D03*
X39600000Y-55500000D03*
D18*
X34000000Y-57000000D03*
%TO.N,/Host Controller/UCPD_CC2*%
X104000000Y-70400000D03*
%TO.N,/Host Controller/ST67_CHIP_EN*%
X38000000Y-62750000D03*
X33250000Y-58750000D03*
D21*
%TO.N,VDD*%
X158000000Y-66400000D03*
X163200000Y-58175000D03*
D20*
%TO.N,GND*%
X169600000Y-51600000D03*
X54025000Y-72800000D03*
D18*
X22250000Y-69000000D03*
D20*
X94250000Y-61487500D03*
X161200000Y-64600000D03*
D18*
X24600000Y-77600000D03*
D20*
X164800000Y-66416576D03*
X104800000Y-71400000D03*
X169000000Y-68829076D03*
X35500000Y-66750000D03*
X167600000Y-51800000D03*
D18*
X27200000Y-77600000D03*
X23400000Y-63800000D03*
X23600000Y-69200000D03*
D20*
X63700000Y-54400000D03*
X93000000Y-74250000D03*
X61200000Y-77800000D03*
D18*
X40000000Y-65000000D03*
D19*
X49800000Y-62250000D03*
D18*
X38800000Y-64400000D03*
X32200000Y-67800000D03*
D20*
X165800000Y-61800000D03*
D18*
X29000000Y-56200000D03*
D20*
X168000000Y-66366576D03*
X91250000Y-51000000D03*
X93250000Y-60750000D03*
X96400000Y-71575000D03*
D18*
X32750000Y-77250000D03*
D20*
X165600000Y-51800000D03*
X167000000Y-66366576D03*
X35500000Y-62750000D03*
D18*
X24050000Y-57200000D03*
D20*
X93000000Y-51000000D03*
D18*
X47200000Y-76200000D03*
D20*
X165800000Y-66466579D03*
X94436827Y-50686827D03*
D19*
X44000000Y-66750000D03*
D20*
X57000000Y-57600000D03*
D18*
X32250000Y-61541500D03*
D19*
X103000000Y-69950000D03*
D18*
X22250000Y-67000000D03*
D20*
X64300000Y-56300000D03*
X63700000Y-53000000D03*
X54200000Y-54000000D03*
X90840000Y-70640000D03*
D18*
X22250000Y-61500000D03*
X62000000Y-50250000D03*
X22800000Y-62400000D03*
X45800000Y-66250000D03*
X38200000Y-66800000D03*
X30350000Y-59750000D03*
X37800000Y-67800000D03*
D20*
X161763173Y-57363173D03*
X168956747Y-66816099D03*
D18*
%TO.N,/Host Controller/SWITCH_2*%
X41600000Y-72600000D03*
%TO.N,/Host Controller/SWITCH_1*%
X43200000Y-74800000D03*
%TO.N,Net-(U601-SW)*%
X172800002Y-74240128D03*
X170006685Y-66800000D03*
X165000000Y-64600000D03*
X170800000Y-66812611D03*
X173600002Y-74240128D03*
X169997604Y-67599951D03*
X173600000Y-73440125D03*
X170800000Y-67588902D03*
X172800002Y-73440125D03*
D21*
%TO.N,VBUS*%
X172800000Y-70600000D03*
X101000000Y-68200000D03*
D19*
%TO.N,/Display/DIS1_D*%
X67300000Y-61200000D03*
D18*
%TO.N,Net-(D301-K)*%
X52250000Y-50250000D03*
%TO.N,/Host Controller/LOW_POWER_ENABLE*%
X60150002Y-57200000D03*
X90575221Y-74400000D03*
X65000000Y-65400000D03*
%TO.N,/Display/LED_BRIGHTNESS*%
X56500000Y-54000000D03*
X103600000Y-69000000D03*
X88250000Y-67000000D03*
D21*
%TO.N,/VBUS_IN*%
X98300000Y-74401532D03*
D18*
%TO.N,/Host Controller/UCPD_CC1*%
X94800000Y-71400000D03*
X62800000Y-74600000D03*
X45400000Y-74800000D03*
%TO.N,/Host Controller/UCPD_CC2*%
X61400000Y-73650000D03*
X44400000Y-74800000D03*
%TO.N,Net-(Q506-E)*%
X53183333Y-54616667D03*
X54600000Y-56000000D03*
%TO.N,Net-(R306-Pad2)*%
X38750000Y-77250000D03*
%TO.N,Net-(R307-Pad2)*%
X41000000Y-77250000D03*
%TO.N,/Host Controller/ST67_RDY*%
X34000000Y-62800000D03*
X27000000Y-57750000D03*
%TO.N,/Host Controller/ST67_CS*%
X23250000Y-60000000D03*
X34500000Y-65000000D03*
D19*
%TO.N,+3.3V*%
X108600000Y-66000000D03*
X52600000Y-59400000D03*
D18*
X92750000Y-68175000D03*
D19*
X168800000Y-55600000D03*
X166400000Y-58400000D03*
D18*
X94250000Y-64500000D03*
D19*
X47876000Y-59324000D03*
D18*
X23800000Y-74000000D03*
D19*
X94200000Y-56400000D03*
D18*
X29000000Y-74200000D03*
D21*
X35500000Y-70800000D03*
D19*
X21450000Y-55400000D03*
X29000000Y-54250000D03*
D18*
X105750000Y-74500000D03*
D19*
X92743114Y-58163215D03*
D21*
X35500000Y-58750000D03*
X171400000Y-56000000D03*
D18*
X26400000Y-74000000D03*
X37000000Y-75000000D03*
D21*
X59250000Y-52250000D03*
D18*
%TO.N,/Host Controller/ST67_SCK*%
X23250000Y-64750000D03*
X42800000Y-64400000D03*
D19*
%TO.N,/Display/DIS3_15*%
X129790000Y-58807405D03*
D18*
X100800000Y-59205331D03*
%TO.N,/Host Controller/ST67_TX*%
X26250000Y-60000000D03*
X37800000Y-64400000D03*
D19*
%TO.N,/Display/DIS3_3*%
X102000000Y-54400000D03*
%TO.N,/Display/DIS3_16*%
X128950000Y-57750000D03*
%TO.N,/Display/DIS3_10*%
X106200000Y-58800000D03*
X128000000Y-64600000D03*
X124400000Y-59200000D03*
%TO.N,/Display/DIS3_5*%
X103800000Y-53800000D03*
%TO.N,/Display/DIS3_1*%
X107200000Y-56000000D03*
%TO.N,/Display/DIS3_6*%
X104700000Y-53200000D03*
D18*
%TO.N,/Host Controller/ST67_MISO*%
X39000000Y-67500000D03*
X23400000Y-68200000D03*
%TO.N,/Host Controller/ST67_RX*%
X40933333Y-65000000D03*
X25000000Y-57750000D03*
%TO.N,/Host Controller/ST67_MOSI*%
X38000000Y-68800000D03*
X22500000Y-63250000D03*
D21*
%TO.N,/Display/VDD_DIG1*%
X88867715Y-56487183D03*
X66600000Y-66600000D03*
%TO.N,/Display/VDD_DIG2*%
X175000000Y-67400000D03*
%TO.N,/Display/VDD_DIG3*%
X130800000Y-56200000D03*
X113000000Y-56200000D03*
%TO.N,/Display/VDD_DIG4*%
X96359796Y-59799998D03*
X84000000Y-66800000D03*
%TO.N,/Display/VDD_DIG5*%
X135800000Y-54600000D03*
X118200000Y-54600000D03*
X156825215Y-56025215D03*
D18*
%TO.N,/Display/SCT1_SDO*%
X97600000Y-52900000D03*
X61200000Y-57600000D03*
%TO.N,/Display/SCT3_SDO*%
X98800000Y-67600000D03*
X174100000Y-55900000D03*
%TO.N,/Display/SCT_CLK_F*%
X175700000Y-56100000D03*
X98287500Y-59950000D03*
X98700000Y-53300000D03*
%TO.N,/Display/DISPLAY3_EN*%
X146000000Y-57600000D03*
%TO.N,/Display/DISPLAY4_EN*%
X137400000Y-57300000D03*
%TO.N,/Display/DISPLAY2_EN*%
X129400000Y-64200000D03*
%TO.N,/Display/~{SCT_EN}*%
X61500000Y-58750000D03*
X101200000Y-65200000D03*
X99050000Y-58350000D03*
X173600000Y-61000000D03*
X97400000Y-62400000D03*
X97700000Y-55600000D03*
%TO.N,/Display/DISPLAY5_EN*%
X150800000Y-58400000D03*
%TO.N,/Display/~{SCT_LA}*%
X99787325Y-59546465D03*
X103100000Y-65300000D03*
X67100000Y-56700000D03*
X99143231Y-55000000D03*
X176600000Y-56300000D03*
X96700000Y-55400000D03*
%TO.N,/Display/DISPLAY1_EN*%
X124000000Y-62800000D03*
%TO.N,/Host Controller/SWDIO*%
X47000000Y-66800000D03*
%TO.N,/Host Controller/SWCLK*%
X49200000Y-66600000D03*
%TO.N,/Display/SCT_SDI*%
X62250000Y-60250000D03*
%TO.N,/Host Controller/VOLTAGE_SENS_FLTR*%
X46250000Y-69000000D03*
%TO.N,/Host Controller/CURRENT_SENSE_FLTR*%
X45750000Y-71250000D03*
%TO.N,/Display/SCT_CLK_F*%
X103800000Y-66200000D03*
%TD*%
D22*
%TO.N,/VBUS_IN*%
X97735000Y-74966532D02*
X98300000Y-74401532D01*
X97735000Y-76250000D02*
X97735000Y-74966532D01*
%TO.N,VBUS*%
X103351000Y-71751000D02*
X105000000Y-73400000D01*
X102951000Y-71751000D02*
X103351000Y-71751000D01*
X101700000Y-70500000D02*
X102951000Y-71751000D01*
X101700000Y-68900000D02*
X101700000Y-70500000D01*
X105000000Y-73400000D02*
X115000000Y-73400000D01*
X101000000Y-68200000D02*
X101700000Y-68900000D01*
D23*
X173100000Y-70900000D02*
X172800000Y-70600000D01*
X173100000Y-71800000D02*
X173100000Y-70900000D01*
X172200000Y-71800000D02*
X173100000Y-71800000D01*
D22*
X172200000Y-71800000D02*
X171600000Y-72400000D01*
X121400000Y-72400000D02*
X120400000Y-73400000D01*
X171600000Y-72400000D02*
X121400000Y-72400000D01*
X120400000Y-73400000D02*
X120250000Y-73400000D01*
X172800000Y-71200000D02*
X172200000Y-71800000D01*
X172800000Y-70600000D02*
X172800000Y-71200000D01*
%TO.N,/Display/VDD_DIG3*%
X198950000Y-63800000D02*
X195500000Y-63800000D01*
X200750000Y-62000000D02*
X198950000Y-63800000D01*
X195500000Y-63800000D02*
X193680000Y-65620000D01*
X193680000Y-65620000D02*
X193680000Y-67190000D01*
X200750000Y-58550000D02*
X200750000Y-62000000D01*
X198400000Y-56200000D02*
X200750000Y-58550000D01*
X193800000Y-56200000D02*
X198400000Y-56200000D01*
%TO.N,/Display/VDD_DIG4*%
X198760000Y-59560000D02*
X198760000Y-60810000D01*
X197500000Y-58300000D02*
X198760000Y-59560000D01*
X180400000Y-58300000D02*
X197500000Y-58300000D01*
X176500000Y-54400000D02*
X180400000Y-58300000D01*
X168098470Y-54400000D02*
X176500000Y-54400000D01*
X164200000Y-59600000D02*
X165249235Y-58550765D01*
X165249235Y-58550765D02*
X165249235Y-57249235D01*
X156880000Y-59600000D02*
X164200000Y-59600000D01*
X156290000Y-60190000D02*
X156880000Y-59600000D01*
X165249235Y-57249235D02*
X168098470Y-54400000D01*
%TO.N,/Display/VDD_DIG3*%
X163700000Y-53000000D02*
X177600000Y-53000000D01*
X158900000Y-57800000D02*
X163700000Y-53000000D01*
X152800000Y-57800000D02*
X158900000Y-57800000D01*
X152000000Y-57000000D02*
X152800000Y-57800000D01*
X180800000Y-56200000D02*
X193800000Y-56200000D01*
X148600000Y-57000000D02*
X152000000Y-57000000D01*
X177600000Y-53000000D02*
X180800000Y-56200000D01*
%TO.N,/Display/VDD_DIG5*%
X171600000Y-51200000D02*
X189800000Y-51200000D01*
X189800000Y-51200000D02*
X191140000Y-52540000D01*
X158174785Y-56025215D02*
X163800000Y-50400000D01*
X163800000Y-50400000D02*
X170800000Y-50400000D01*
X191140000Y-52540000D02*
X191140000Y-53190000D01*
X156825215Y-56025215D02*
X158174785Y-56025215D01*
X170800000Y-50400000D02*
X171600000Y-51200000D01*
%TO.N,+3.3V*%
X171400000Y-57400000D02*
X171400000Y-56000000D01*
X164400000Y-61400000D02*
X165600000Y-60200000D01*
X158200000Y-61400000D02*
X164400000Y-61400000D01*
X155600000Y-64000000D02*
X158200000Y-61400000D01*
X142200000Y-64000000D02*
X155600000Y-64000000D01*
X140200000Y-66000000D02*
X142200000Y-64000000D01*
X165600000Y-60200000D02*
X168600000Y-60200000D01*
X108600000Y-66000000D02*
X140200000Y-66000000D01*
X168600000Y-60200000D02*
X171400000Y-57400000D01*
%TO.N,/Display/VDD_DIG2*%
X73920000Y-66320000D02*
X73920000Y-67190000D01*
X72600000Y-65000000D02*
X73920000Y-66320000D01*
X66000000Y-62900000D02*
X68100000Y-65000000D01*
X69900000Y-58300000D02*
X67900000Y-58300000D01*
X66000000Y-60200000D02*
X66000000Y-62900000D01*
X68100000Y-65000000D02*
X72600000Y-65000000D01*
X73880000Y-54320000D02*
X69900000Y-58300000D01*
X67900000Y-58300000D02*
X66000000Y-60200000D01*
X73880000Y-53190000D02*
X73880000Y-54320000D01*
D23*
%TO.N,+3.3V*%
X37000000Y-75000000D02*
X36700000Y-74700000D01*
X36700000Y-74700000D02*
X36700000Y-70800000D01*
D22*
X35500000Y-60800000D02*
X36750000Y-62050000D01*
X36750000Y-62050000D02*
X36750000Y-70750000D01*
X36750000Y-70750000D02*
X36700000Y-70800000D01*
X35500000Y-58750000D02*
X35500000Y-60800000D01*
X36700000Y-70800000D02*
X35500000Y-70800000D01*
%TO.N,/Display/VDD_DIG4*%
X96359796Y-58440204D02*
X96359796Y-59799998D01*
X97950000Y-56850000D02*
X96359796Y-58440204D01*
X106456050Y-56850000D02*
X97950000Y-56850000D01*
X107406050Y-57800000D02*
X106456050Y-56850000D01*
X119600000Y-57800000D02*
X107406050Y-57800000D01*
X122200000Y-60200000D02*
X122190000Y-60190000D01*
X120730000Y-60190000D02*
X120730000Y-58930000D01*
X123200000Y-60200000D02*
X122200000Y-60200000D01*
X125000000Y-62000000D02*
X123200000Y-60200000D01*
X120730000Y-58930000D02*
X119600000Y-57800000D01*
X138510000Y-62000000D02*
X125000000Y-62000000D01*
X122190000Y-60190000D02*
X120730000Y-60190000D01*
%TO.N,/Display/VDD_DIG2*%
X73920000Y-67920000D02*
X73920000Y-67190000D01*
X75149000Y-69149000D02*
X73920000Y-67920000D01*
X90200000Y-67400000D02*
X88349000Y-69149000D01*
X103850000Y-67900000D02*
X102200000Y-66250000D01*
X104700000Y-67900000D02*
X103850000Y-67900000D01*
X106800000Y-70000000D02*
X104700000Y-67900000D01*
X102200000Y-66250000D02*
X91350000Y-66250000D01*
X113000000Y-70000000D02*
X106800000Y-70000000D01*
X91350000Y-66250000D02*
X90200000Y-67400000D01*
X88349000Y-69149000D02*
X75149000Y-69149000D01*
%TO.N,/Display/VDD_DIG3*%
X109341662Y-56200000D02*
X113000000Y-56200000D01*
X104641662Y-51500000D02*
X109341662Y-56200000D01*
X97499000Y-51500000D02*
X104641662Y-51500000D01*
X93999000Y-55000000D02*
X97499000Y-51500000D01*
X87500000Y-55000000D02*
X93999000Y-55000000D01*
%TO.N,/Display/VDD_DIG5*%
X109855422Y-54600000D02*
X118200000Y-54600000D01*
X105256422Y-50001000D02*
X109855422Y-54600000D01*
X94500000Y-52250000D02*
X96749000Y-50001000D01*
X80000000Y-51400000D02*
X88150000Y-51400000D01*
X89000000Y-52250000D02*
X94500000Y-52250000D01*
X78960000Y-52440000D02*
X80000000Y-51400000D01*
X78960000Y-53190000D02*
X78960000Y-52440000D01*
X88150000Y-51400000D02*
X89000000Y-52250000D01*
X96749000Y-50001000D02*
X105256422Y-50001000D01*
%TO.N,+3.3V*%
X27250000Y-56000000D02*
X29000000Y-54250000D01*
X22050000Y-56000000D02*
X27250000Y-56000000D01*
X21450000Y-55400000D02*
X22050000Y-56000000D01*
%TO.N,/Display/VDD_DIG2*%
X186060000Y-66260000D02*
X186060000Y-67190000D01*
X177400000Y-67400000D02*
X179800000Y-65000000D01*
X173200000Y-67400000D02*
X177400000Y-67400000D01*
X170200000Y-70400000D02*
X173200000Y-67400000D01*
X160800000Y-70000000D02*
X161200000Y-70400000D01*
X161200000Y-70400000D02*
X170200000Y-70400000D01*
X184800000Y-65000000D02*
X186060000Y-66260000D01*
X148800000Y-70000000D02*
X160800000Y-70000000D01*
X179800000Y-65000000D02*
X184800000Y-65000000D01*
D23*
%TO.N,+3.3V*%
X57475000Y-73725000D02*
X56875000Y-73125000D01*
X58400000Y-72800000D02*
X57475000Y-73725000D01*
D22*
X56875000Y-73125000D02*
X59000000Y-75250000D01*
X49500000Y-51300000D02*
X49500000Y-52500000D01*
X48600000Y-50400000D02*
X49500000Y-51300000D01*
X37600000Y-50400000D02*
X48600000Y-50400000D01*
X35500000Y-52500000D02*
X37600000Y-50400000D01*
X35500000Y-54200000D02*
X35500000Y-52500000D01*
X35450000Y-54250000D02*
X35500000Y-54200000D01*
X29000000Y-54250000D02*
X35450000Y-54250000D01*
X35500000Y-58750000D02*
X35500000Y-54200000D01*
D23*
X51850000Y-59400000D02*
X51750000Y-59500000D01*
X52600000Y-59400000D02*
X51850000Y-59400000D01*
X48000000Y-59200000D02*
X47876000Y-59324000D01*
X51450000Y-59200000D02*
X48000000Y-59200000D01*
X51750000Y-59500000D02*
X51450000Y-59200000D01*
D22*
%TO.N,VBUS*%
X115080000Y-76115000D02*
X115080000Y-73480000D01*
X120160000Y-73490000D02*
X120250000Y-73400000D01*
X120250000Y-73400000D02*
X115000000Y-73400000D01*
X120160000Y-76115000D02*
X120160000Y-73490000D01*
X115080000Y-73480000D02*
X115000000Y-73400000D01*
%TO.N,+3.3V*%
X51750000Y-52500000D02*
X59000000Y-52500000D01*
X51750000Y-59500000D02*
X51750000Y-68000000D01*
X51750000Y-68000000D02*
X56000000Y-72250000D01*
X49500000Y-52500000D02*
X51750000Y-52500000D01*
X95779899Y-61200000D02*
X92743114Y-58163215D01*
D23*
X47952000Y-59400000D02*
X47876000Y-59324000D01*
D22*
X59000000Y-75250000D02*
X59000000Y-76500000D01*
X56000000Y-72250000D02*
X56875000Y-73125000D01*
X51750000Y-59500000D02*
X51750000Y-58750000D01*
X103800000Y-61200000D02*
X95779899Y-61200000D01*
X51750000Y-58750000D02*
X51750000Y-52500000D01*
X108600000Y-66000000D02*
X103800000Y-61200000D01*
X59000000Y-52500000D02*
X59250000Y-52250000D01*
%TO.N,/Display/VDD_DIG1*%
X177300000Y-63300000D02*
X179790000Y-60810000D01*
X66600000Y-72570000D02*
X68840000Y-74810000D01*
X144400000Y-65800000D02*
X156400000Y-65800000D01*
X95600000Y-63800000D02*
X104000000Y-63800000D01*
X88887183Y-56487183D02*
X91600000Y-59200000D01*
X143590000Y-67810000D02*
X143590000Y-66610000D01*
X66600000Y-66600000D02*
X66600000Y-72570000D01*
X179790000Y-60810000D02*
X180980000Y-60810000D01*
X104000000Y-63800000D02*
X108010000Y-67810000D01*
X94800000Y-63000000D02*
X95600000Y-63800000D01*
X156400000Y-65800000D02*
X158900000Y-63300000D01*
X158900000Y-63300000D02*
X177300000Y-63300000D01*
X108010000Y-67810000D02*
X108030000Y-67810000D01*
X91600000Y-59200000D02*
X91600000Y-61100000D01*
X93500000Y-63000000D02*
X94800000Y-63000000D01*
X91600000Y-61100000D02*
X93500000Y-63000000D01*
X88867715Y-56487183D02*
X88887183Y-56487183D01*
X143590000Y-66610000D02*
X144400000Y-65800000D01*
%TO.N,/Display/VDD_DIG2*%
X114800000Y-70000000D02*
X113000000Y-70000000D01*
X113110000Y-69890000D02*
X113000000Y-70000000D01*
X130890000Y-67810000D02*
X130890000Y-69910000D01*
X114800000Y-70000000D02*
X130800000Y-70000000D01*
X130800000Y-70000000D02*
X148800000Y-70000000D01*
X148670000Y-67810000D02*
X148670000Y-69870000D01*
X113110000Y-67810000D02*
X113110000Y-69890000D01*
X130890000Y-69910000D02*
X130800000Y-70000000D01*
X148670000Y-69870000D02*
X148800000Y-70000000D01*
%TO.N,/Display/VDD_DIG3*%
X81500000Y-53190000D02*
X81500000Y-54300000D01*
X87500000Y-55000000D02*
X87250000Y-55250000D01*
X113000000Y-56200000D02*
X130800000Y-56200000D01*
X82200000Y-55000000D02*
X87500000Y-55000000D01*
X87250000Y-55250000D02*
X87250000Y-57250000D01*
X81500000Y-54300000D02*
X82200000Y-55000000D01*
X87250000Y-57250000D02*
X89800000Y-59800000D01*
X87700000Y-64800000D02*
X82800000Y-64800000D01*
X148670000Y-57070000D02*
X148600000Y-57000000D01*
X89800000Y-62700000D02*
X87700000Y-64800000D01*
X89800000Y-59800000D02*
X89800000Y-62700000D01*
X82800000Y-64800000D02*
X81540000Y-66060000D01*
X193680000Y-53190000D02*
X193680000Y-56080000D01*
X193680000Y-56080000D02*
X193800000Y-56200000D01*
X130800000Y-56200000D02*
X147800000Y-56200000D01*
X81540000Y-66060000D02*
X81540000Y-67190000D01*
X147800000Y-56200000D02*
X148600000Y-57000000D01*
X148670000Y-60190000D02*
X148670000Y-57070000D01*
%TO.N,/Display/VDD_DIG4*%
X154600000Y-62000000D02*
X156290000Y-60310000D01*
X138510000Y-62000000D02*
X154600000Y-62000000D01*
X156290000Y-60310000D02*
X156290000Y-60190000D01*
X138510000Y-62000000D02*
X138510000Y-60190000D01*
%TO.N,/Display/VDD_DIG5*%
X152800000Y-54600000D02*
X135800000Y-54600000D01*
X88250000Y-62000000D02*
X87250000Y-63000000D01*
X79000000Y-66000000D02*
X79000000Y-67190000D01*
X78960000Y-54960000D02*
X82600000Y-58600000D01*
X87250000Y-63000000D02*
X82000000Y-63000000D01*
X156825215Y-56025215D02*
X154225215Y-56025215D01*
X86600000Y-58600000D02*
X88250000Y-60250000D01*
X82000000Y-63000000D02*
X79000000Y-66000000D01*
X135800000Y-54600000D02*
X118200000Y-54600000D01*
X154225215Y-56025215D02*
X152800000Y-54600000D01*
X82600000Y-58600000D02*
X86600000Y-58600000D01*
X78960000Y-53190000D02*
X78960000Y-54960000D01*
X88250000Y-60250000D02*
X88250000Y-62000000D01*
%TD*%
%TA.AperFunction,Conductor*%
%TO.N,VBUS*%
G36*
X100916286Y-67404524D02*
G01*
X102609189Y-67874774D01*
X102668513Y-67911683D01*
X102698466Y-67974806D01*
X102700000Y-67994250D01*
X102700000Y-68448638D01*
X102680315Y-68515677D01*
X102663681Y-68536319D01*
X102226548Y-68973452D01*
X102165225Y-69006937D01*
X102163185Y-69007363D01*
X101235510Y-69192897D01*
X101166249Y-69186874D01*
X99479057Y-68530744D01*
X99423710Y-68488099D01*
X99400205Y-68422302D01*
X99400000Y-68415175D01*
X99400000Y-67934345D01*
X99417671Y-67870548D01*
X99663878Y-67460203D01*
X99715249Y-67412844D01*
X99770207Y-67400000D01*
X100883098Y-67400000D01*
X100916286Y-67404524D01*
G37*
%TD.AperFunction*%
%TD*%
M02*
